SplineFontDB: 3.0
FontName: CheyenneSans-Thin
FullName: Cheyenne Sans Thin
FamilyName: Cheyenne Sans Thin
Weight: Thin
Copyright: 
Version: 1.000; ttfautohint (v1.8.2)
ItalicAngle: 0
UnderlinePosition: -150
UnderlineWidth: 50
Ascent: 800
Descent: 200
InvalidEm: 0
sfntRevision: 0x00010000
LayerCount: 2
Layer: 0 1 "Back" 1
Layer: 1 1 "Fore" 0
XUID: [1021 646 1163163066 12606624]
StyleMap: 0x0040
FSType: 0
OS2Version: 3
OS2_WeightWidthSlopeOnly: 0
OS2_UseTypoMetrics: 0
CreationTime: 1513572760
ModificationTime: 1543765619
PfmFamily: 81
TTFWeight: 100
TTFWidth: 5
LineGap: 0
VLineGap: 0
Panose: 0 0 2 0 0 0 0 0 0 0
OS2TypoAscent: 743
OS2TypoAOffset: 0
OS2TypoDescent: -161
OS2TypoDOffset: 0
OS2TypoLinegap: 0
OS2WinAscent: 822
OS2WinAOffset: 0
OS2WinDescent: 178
OS2WinDOffset: 0
HheadAscent: 822
HheadAOffset: 0
HheadDescent: -178
HheadDOffset: 0
OS2SubXSize: 650
OS2SubYSize: 600
OS2SubXOff: 0
OS2SubYOff: 75
OS2SupXSize: 650
OS2SupYSize: 600
OS2SupXOff: 0
OS2SupYOff: 350
OS2StrikeYSize: 50
OS2StrikeYPos: 310
OS2CapHeight: 723
OS2XHeight: 517
OS2Vendor: 'IMPA'
OS2CodePages: 20000193.00000000
OS2UnicodeRanges: 00000007.00000000.00000000.00000000
Lookup: 1 0 0 "'aalt' Access All Alternates in Latin lookup 0" { "'aalt' Access All Alternates in Latin lookup 0 subtable"  } ['aalt' ('DFLT' <'dflt' > 'latn' <'AZE ' 'CAT ' 'CRT ' 'KAZ ' 'MOL ' 'ROM ' 'TAT ' 'TRK ' 'dflt' > ) ]
Lookup: 3 0 0 "'aalt' Access All Alternates in Latin lookup 1" { "'aalt' Access All Alternates in Latin lookup 1 subtable"  } ['aalt' ('DFLT' <'dflt' > 'latn' <'AZE ' 'CAT ' 'CRT ' 'KAZ ' 'MOL ' 'ROM ' 'TAT ' 'TRK ' 'dflt' > ) ]
Lookup: 6 0 0 "'ccmp' Glyph Composition/Decomposition in Latin lookup 2" { "'ccmp' Glyph Composition/Decomposition in Latin lookup 2 contextual 0"  "'ccmp' Glyph Composition/Decomposition in Latin lookup 2 contextual 1"  } ['ccmp' ('DFLT' <'dflt' > 'latn' <'AZE ' 'CAT ' 'CRT ' 'KAZ ' 'MOL ' 'ROM ' 'TAT ' 'TRK ' 'dflt' > ) ]

StartChar: .notdef
Encoding: 65536 -1 0
Width: 711
Flags: W
LayerCount: 2
Fore
SplineSet
603 805 m 2,0,-1
 603 -133 l 2,1,2
 603 -148 603 -148 595.5 -154.5 c 128,-1,3
 588 -161 588 -161 571 -161 c 2,4,-1
 135 -161 l 2,5,6
 120 -161 120 -161 114 -155.5 c 128,-1,7
 108 -150 108 -150 108 -137 c 2,8,-1
 108 803 l 2,9,10
 108 814 108 814 113 820 c 128,-1,11
 118 826 118 826 127 826 c 2,12,-1
 586 826 l 2,13,14
 603 826 603 826 603 805 c 2,0,-1
549 772.5 m 128,-1,16
 545 777 545 777 538 777 c 2,17,-1
 194 777 l 1,18,-1
 553 -57 l 1,19,-1
 553 760 l 2,20,15
 553 768 553 768 549 772.5 c 128,-1,16
164 -107 m 128,-1,22
 169 -112 169 -112 181 -112 c 2,23,-1
 516 -112 l 1,24,-1
 159 716 l 1,25,-1
 159 -92 l 2,26,21
 159 -102 159 -102 164 -107 c 128,-1,22
EndSplineSet
EndChar

StartChar: exclam
Encoding: 33 33 4
Width: 226
GlyphClass: 2
Flags: W
LayerCount: 2
Fore
SplineSet
129 144 m 1,0,-1
 97 144 l 1,1,-1
 88 723 l 1,2,-1
 139 723 l 1,3,-1
 129 144 l 1,0,-1
143 0 m 1,4,-1
 83 0 l 1,5,-1
 83 77 l 1,6,-1
 143 77 l 1,7,-1
 143 0 l 1,4,-1
EndSplineSet
EndChar

StartChar: quotedbl
Encoding: 34 34 5
Width: 362
GlyphClass: 2
Flags: W
LayerCount: 2
Fore
SplineSet
270 536 m 1,0,-1
 237 536 l 1,1,-1
 217 723 l 1,2,-1
 292 723 l 1,3,-1
 270 536 l 1,0,-1
134 536 m 1,4,-1
 101 536 l 1,5,-1
 81 723 l 1,6,-1
 156 723 l 1,7,-1
 134 536 l 1,4,-1
EndSplineSet
EndChar

StartChar: numbersign
Encoding: 35 35 6
Width: 588
GlyphClass: 2
Flags: W
LayerCount: 2
Fore
SplineSet
431 449 m 1,0,-1
 405 281 l 1,1,-1
 512 281 l 1,2,-1
 512 244 l 1,3,-1
 400 244 l 1,4,-1
 362 -1 l 1,5,-1
 325 5 l 1,6,-1
 362 244 l 1,7,-1
 202 244 l 1,8,-1
 164 -1 l 1,9,-1
 127 5 l 1,10,-1
 164 244 l 1,11,-1
 44 244 l 1,12,-1
 44 281 l 1,13,-1
 170 281 l 1,14,-1
 196 449 l 1,15,-1
 76 449 l 1,16,-1
 76 486 l 1,17,-1
 201 486 l 1,18,-1
 238 724 l 1,19,-1
 275 719 l 1,20,-1
 239 486 l 1,21,-1
 399 486 l 1,22,-1
 436 724 l 1,23,-1
 473 719 l 1,24,-1
 437 486 l 1,25,-1
 544 486 l 1,26,-1
 544 449 l 1,27,-1
 431 449 l 1,0,-1
394 449 m 1,28,-1
 233 449 l 1,29,-1
 207 281 l 1,30,-1
 368 281 l 1,31,-1
 394 449 l 1,28,-1
EndSplineSet
EndChar

StartChar: dollar
Encoding: 36 36 7
Width: 560
GlyphClass: 2
Flags: W
LayerCount: 2
Fore
SplineSet
496 73 m 128,-1,1
 471 34 471 34 426 12 c 128,-1,2
 381 -10 381 -10 323 -10 c 0,3,4
 315 -10 315 -10 315 -16 c 2,5,-1
 315 -91 l 1,6,-1
 278 -91 l 1,7,-1
 278 -10 l 1,8,9
 190 -10 190 -10 132.5 22 c 128,-1,10
 75 54 75 54 35 120 c 1,11,-1
 68 140 l 1,12,13
 111 84 111 84 158 58 c 128,-1,14
 205 32 205 32 278 32 c 1,15,-1
 278 339 l 1,16,17
 194 375 194 375 149.5 403 c 128,-1,18
 105 431 105 431 85 464 c 128,-1,19
 65 497 65 497 65 545 c 0,20,21
 65 623 65 623 122 674.5 c 128,-1,22
 179 726 179 726 270 733 c 0,23,24
 277 733 277 733 277 740 c 2,25,-1
 277 801 l 1,26,-1
 314 801 l 1,27,-1
 314 733 l 1,28,29
 376 727 376 727 424 701.5 c 128,-1,30
 472 676 472 676 515 632 c 1,31,-1
 479 605 l 1,32,33
 455 638 455 638 413.5 660.5 c 128,-1,34
 372 683 372 683 323 689 c 1,35,-1
 321 689 l 2,36,37
 314 689 314 689 314 682 c 2,38,-1
 314 372 l 1,39,-1
 351 356 l 2,40,41
 439 316 439 316 480 272 c 128,-1,42
 521 228 521 228 521 161 c 0,43,0
 521 112 521 112 496 73 c 128,-1,1
281 690 m 1,44,45
 245 690 245 690 206 673 c 128,-1,46
 167 656 167 656 140 622.5 c 128,-1,47
 113 589 113 589 113 542 c 0,48,49
 113 499 113 499 139.5 469 c 128,-1,50
 166 439 166 439 190.5 426.5 c 128,-1,51
 215 414 215 414 277 386 c 1,52,-1
 281 690 l 1,44,45
429 69.5 m 128,-1,54
 473 107 473 107 473 165 c 0,55,56
 473 219 473 219 436.5 255.5 c 128,-1,57
 400 292 400 292 315 326 c 1,58,-1
 315 32 l 1,59,53
 385 32 385 32 429 69.5 c 128,-1,54
EndSplineSet
EndChar

StartChar: percent
Encoding: 37 37 8
Width: 875
GlyphClass: 2
Flags: W
LayerCount: 2
Fore
SplineSet
338 680 m 128,-1,1
 381 626 381 626 381 527 c 0,2,3
 381 427 381 427 338 373 c 128,-1,4
 295 319 295 319 223 319 c 128,-1,5
 151 319 151 319 107 373 c 128,-1,6
 63 427 63 427 63 527 c 0,7,8
 63 626 63 626 107 680 c 128,-1,9
 151 734 151 734 223 734 c 128,-1,0
 295 734 295 734 338 680 c 128,-1,1
230 -4 m 1,10,-1
 191 -4 l 1,11,-1
 679 731 l 1,12,-1
 716 731 l 1,13,-1
 230 -4 l 1,10,-1
312.5 398 m 128,-1,15
 347 448 347 448 347 527 c 0,16,17
 347 605 347 605 312.5 655 c 128,-1,18
 278 705 278 705 222 705 c 128,-1,19
 166 705 166 705 131.5 655 c 128,-1,20
 97 605 97 605 97 527 c 128,-1,21
 97 449 97 449 131.5 398.5 c 128,-1,22
 166 348 166 348 222 348 c 128,-1,14
 278 348 278 348 312.5 398 c 128,-1,15
769 352 m 128,-1,24
 812 298 812 298 812 199 c 0,25,26
 812 98 812 98 769 44 c 128,-1,27
 726 -10 726 -10 654 -10 c 128,-1,28
 582 -10 582 -10 538 44 c 128,-1,29
 494 98 494 98 494 199 c 0,30,31
 494 298 494 298 538 352 c 128,-1,32
 582 406 582 406 654 406 c 128,-1,23
 726 406 726 406 769 352 c 128,-1,24
717.5 43.5 m 128,-1,34
 746 67 746 67 762 107.5 c 128,-1,35
 778 148 778 148 778 198 c 128,-1,36
 778 248 778 248 762 288.5 c 128,-1,37
 746 329 746 329 717.5 352.5 c 128,-1,38
 689 376 689 376 653 376 c 128,-1,39
 617 376 617 376 588.5 352.5 c 128,-1,40
 560 329 560 329 544 288 c 128,-1,41
 528 247 528 247 528 198 c 0,42,43
 528 148 528 148 544 107.5 c 128,-1,44
 560 67 560 67 588.5 43.5 c 128,-1,45
 617 20 617 20 653 20 c 128,-1,33
 689 20 689 20 717.5 43.5 c 128,-1,34
EndSplineSet
EndChar

StartChar: ampersand
Encoding: 38 38 9
Width: 632
GlyphClass: 2
Flags: W
LayerCount: 2
Fore
SplineSet
352 715.5 m 128,-1,1
 392 697 392 697 416.5 662.5 c 128,-1,2
 441 628 441 628 441 583 c 0,3,4
 441 475 441 475 259 384 c 1,5,-1
 463 146 l 1,6,7
 489 172 489 172 514 230.5 c 128,-1,8
 539 289 539 289 541 368 c 1,9,-1
 574 368 l 1,10,11
 572 285 572 285 550 228 c 128,-1,12
 528 171 528 171 486 119 c 1,13,-1
 587 0 l 1,14,-1
 539 0 l 1,15,-1
 460 90 l 1,16,17
 359 -5 359 -5 242 -5 c 0,18,19
 149 -5 149 -5 94 46.5 c 128,-1,20
 39 98 39 98 39 182 c 0,21,22
 39 249 39 249 78.5 301.5 c 128,-1,23
 118 354 118 354 200 398 c 1,24,25
 153 446 153 446 130 492 c 128,-1,26
 107 538 107 538 107 585 c 0,27,28
 107 626 107 626 127 660 c 128,-1,29
 147 694 147 694 183.5 714 c 128,-1,30
 220 734 220 734 266 734 c 128,-1,0
 312 734 312 734 352 715.5 c 128,-1,1
179 664 m 128,-1,32
 148 632 148 632 148 586 c 0,33,34
 148 543 148 543 172 501 c 128,-1,35
 196 459 196 459 222 431 c 2,36,-1
 237 414 l 1,37,38
 333 467 333 467 366.5 505.5 c 128,-1,39
 400 544 400 544 400 585 c 0,40,41
 400 642 400 642 360.5 669 c 128,-1,42
 321 696 321 696 266 696 c 0,43,31
 210 696 210 696 179 664 c 128,-1,32
118 284 m 128,-1,45
 80 236 80 236 80 178 c 0,46,47
 80 114 80 114 127.5 73 c 128,-1,48
 175 32 175 32 246 32 c 0,49,50
 299 32 299 32 348.5 55.5 c 128,-1,51
 398 79 398 79 438 118 c 1,52,-1
 223 369 l 1,53,44
 156 332 156 332 118 284 c 128,-1,45
EndSplineSet
EndChar

StartChar: quotesingle
Encoding: 39 39 10
Width: 241
GlyphClass: 2
Flags: W
LayerCount: 2
Fore
SplineSet
136 536 m 1,0,-1
 103 536 l 1,1,-1
 83 723 l 1,2,-1
 158 723 l 1,3,-1
 136 536 l 1,0,-1
EndSplineSet
EndChar

StartChar: parenleft
Encoding: 40 40 11
Width: 274
GlyphClass: 2
Flags: W
LayerCount: 2
Fore
SplineSet
163.5 504 m 128,-1,1
 131 389 131 389 131 277 c 0,2,3
 131 167 131 167 157.5 59.5 c 128,-1,4
 184 -48 184 -48 238 -161 c 1,5,-1
 214 -161 l 1,6,7
 148 -48 148 -48 115.5 55 c 128,-1,8
 83 158 83 158 83 278 c 0,9,10
 83 396 83 396 121.5 511 c 128,-1,11
 160 626 160 626 226 723 c 1,12,-1
 250 723 l 1,13,0
 196 619 196 619 163.5 504 c 128,-1,1
EndSplineSet
EndChar

StartChar: parenright
Encoding: 41 41 12
Width: 284
GlyphClass: 2
Flags: W
LayerCount: 2
Fore
SplineSet
110.5 504 m 128,-1,1
 143 389 143 389 143 277 c 0,2,3
 143 167 143 167 116.5 59.5 c 128,-1,4
 90 -48 90 -48 36 -161 c 1,5,-1
 60 -161 l 1,6,7
 126 -48 126 -48 158.5 55 c 128,-1,8
 191 158 191 158 191 278 c 0,9,10
 191 396 191 396 152.5 511 c 128,-1,11
 114 626 114 626 48 723 c 1,12,-1
 24 723 l 1,13,0
 78 619 78 619 110.5 504 c 128,-1,1
EndSplineSet
EndChar

StartChar: asterisk
Encoding: 42 42 13
Width: 319
GlyphClass: 2
Flags: W
LayerCount: 2
Fore
SplineSet
166 560 m 1,0,-1
 89 440 l 1,1,-1
 57 461 l 1,2,-1
 143 572 l 1,3,-1
 27 606 l 1,4,-1
 38 638 l 1,5,-1
 150 597 l 1,6,-1
 143 723 l 1,7,-1
 184 723 l 1,8,-1
 179 597 l 1,9,-1
 292 644 l 1,10,-1
 302 613 l 1,11,-1
 188 573 l 1,12,-1
 271 468 l 1,13,-1
 239 444 l 1,14,-1
 166 560 l 1,0,-1
EndSplineSet
EndChar

StartChar: plus
Encoding: 43 43 14
Width: 527
GlyphClass: 2
Flags: W
LayerCount: 2
Fore
SplineSet
459 345 m 1,0,-1
 283 345 l 1,1,-1
 283 168 l 1,2,-1
 246 168 l 1,3,-1
 246 344 l 1,4,-1
 68 344 l 1,5,-1
 68 381 l 1,6,-1
 245 381 l 1,7,-1
 245 559 l 1,8,-1
 282 559 l 1,9,-1
 282 382 l 1,10,-1
 459 382 l 1,11,-1
 459 345 l 1,0,-1
EndSplineSet
EndChar

StartChar: comma
Encoding: 44 44 15
Width: 204
GlyphClass: 2
Flags: W
LayerCount: 2
Fore
SplineSet
93 0 m 1,0,-1
 57 0 l 1,1,-1
 57 80 l 1,2,-1
 140 80 l 1,3,-1
 140 12 l 1,4,-1
 71 -111 l 1,5,-1
 39 -111 l 1,6,-1
 93 0 l 1,0,-1
EndSplineSet
Substitution2: "'tnum' Tabular Numbers in Latin lookup 23 subtable" comma.tf
Substitution2: "'aalt' Access All Alternates in Latin lookup 0 subtable" comma.tf
EndChar

StartChar: hyphen
Encoding: 45 45 16
Width: 371
GlyphClass: 2
Flags: W
LayerCount: 2
Fore
SplineSet
303 240 m 1,0,-1
 68 239 l 1,1,-1
 68 278 l 1,2,-1
 303 279 l 1,3,-1
 303 240 l 1,0,-1
EndSplineSet
EndChar

StartChar: period
Encoding: 46 46 17
Width: 187
GlyphClass: 2
Flags: W
LayerCount: 2
Fore
SplineSet
124 0 m 1,0,-1
 63 0 l 1,1,-1
 63 77 l 1,2,-1
 124 77 l 1,3,-1
 124 0 l 1,0,-1
EndSplineSet
Substitution2: "'tnum' Tabular Numbers in Latin lookup 23 subtable" period.tf
Substitution2: "'aalt' Access All Alternates in Latin lookup 0 subtable" period.tf
EndChar

StartChar: slash
Encoding: 47 47 18
Width: 320
GlyphClass: 2
Flags: W
LayerCount: 2
Fore
SplineSet
263 723 m 1,0,-1
 305 723 l 1,1,-1
 57 -59 l 1,2,-1
 15 -59 l 1,3,-1
 263 723 l 1,0,-1
EndSplineSet
Substitution2: "'frac' Diagonal Fractions in Latin lookup 16 subtable" fraction
Substitution2: "'aalt' Access All Alternates in Latin lookup 0 subtable" fraction
EndChar

StartChar: zero
Encoding: 48 48 19
Width: 617
GlyphClass: 2
Flags: W
LayerCount: 2
Fore
SplineSet
438 691.5 m 128,-1,1
 495 650 495 650 528 566 c 128,-1,2
 561 482 561 482 561 360 c 128,-1,3
 561 238 561 238 528 155 c 128,-1,4
 495 72 495 72 438 31 c 128,-1,5
 381 -10 381 -10 308 -10 c 128,-1,6
 235 -10 235 -10 178.5 30.5 c 128,-1,7
 122 71 122 71 89.5 154 c 128,-1,8
 57 237 57 237 57 358 c 0,9,10
 57 480 57 480 90 564.5 c 128,-1,11
 123 649 123 649 180 691 c 128,-1,12
 237 733 237 733 309 733 c 128,-1,0
 381 733 381 733 438 691.5 c 128,-1,1
461 112.5 m 128,-1,14
 517 194 517 194 517 360 c 0,15,16
 517 527 517 527 460 609.5 c 128,-1,17
 403 692 403 692 309 692 c 128,-1,18
 215 692 215 692 157.5 609 c 128,-1,19
 100 526 100 526 100 360 c 0,20,21
 100 195 100 195 157.5 113 c 128,-1,22
 215 31 215 31 310 31 c 128,-1,13
 405 31 405 31 461 112.5 c 128,-1,14
EndSplineSet
Substitution2: "'onum' Oldstyle Figures in Latin lookup 24 subtable" zero.osf
Substitution2: "'tnum' Tabular Numbers in Latin lookup 23 subtable" zero.tf
Substitution2: "'frac' Diagonal Fractions in Latin lookup 17 subtable" zero.numr
Substitution2: "'dnom' Denominators in Latin lookup 15 subtable" zero.dnom
Substitution2: "'numr' Numerators in Latin lookup 14 subtable" zero.numr
Substitution2: "'sups' Superscript in Latin lookup 13 subtable" uni2070
Substitution2: "'sinf' Scientific Inferiors in Latin lookup 12 subtable" zero.subs
Substitution2: "'subs' Subscript in Latin lookup 11 subtable" zero.subs
AlternateSubs2: "'aalt' Access All Alternates in Latin lookup 1 subtable" zero.subs uni2070 zero.numr zero.dnom zero.tf zero.osf
EndChar

StartChar: one
Encoding: 49 49 20
Width: 365
GlyphClass: 2
Flags: W
LayerCount: 2
Fore
SplineSet
192 669 m 1,0,-1
 42 609 l 1,1,-1
 42 648 l 1,2,-1
 193 723 l 1,3,-1
 235 723 l 1,4,-1
 235 0 l 1,5,-1
 192 0 l 1,6,-1
 192 669 l 1,0,-1
EndSplineSet
Substitution2: "'onum' Oldstyle Figures in Latin lookup 24 subtable" one.osf
Substitution2: "'tnum' Tabular Numbers in Latin lookup 23 subtable" one.tf
Substitution2: "'frac' Diagonal Fractions in Latin lookup 17 subtable" one.numr
Substitution2: "'dnom' Denominators in Latin lookup 15 subtable" one.dnom
Substitution2: "'numr' Numerators in Latin lookup 14 subtable" one.numr
Substitution2: "'sups' Superscript in Latin lookup 13 subtable" uni00B9
Substitution2: "'sinf' Scientific Inferiors in Latin lookup 12 subtable" one.subs
Substitution2: "'subs' Subscript in Latin lookup 11 subtable" one.subs
AlternateSubs2: "'aalt' Access All Alternates in Latin lookup 1 subtable" one.subs uni00B9 one.numr one.dnom one.tf one.osf
EndChar

StartChar: two
Encoding: 50 50 21
Width: 546
GlyphClass: 2
Flags: W
LayerCount: 2
Fore
SplineSet
48 50 m 1,0,-1
 287 296 l 2,1,2
 368 379 368 379 402 431.5 c 128,-1,3
 436 484 436 484 436 541 c 0,4,5
 436 594 436 594 410 627.5 c 128,-1,6
 384 661 384 661 346 676 c 128,-1,7
 308 691 308 691 268 691 c 0,8,9
 211 691 211 691 161 666.5 c 128,-1,10
 111 642 111 642 78 591 c 1,11,-1
 47 619 l 1,12,13
 86 677 86 677 143.5 705 c 128,-1,14
 201 733 201 733 272 733 c 0,15,16
 329 733 329 733 375.5 711 c 128,-1,17
 422 689 422 689 449.5 646 c 128,-1,18
 477 603 477 603 477 542 c 0,19,20
 477 497 477 497 460.5 457.5 c 128,-1,21
 444 418 444 418 409 373.5 c 128,-1,22
 374 329 374 329 309 263 c 2,23,-1
 91 41 l 1,24,-1
 485 41 l 1,25,-1
 485 0 l 1,26,-1
 48 0 l 1,27,-1
 48 50 l 1,0,-1
EndSplineSet
Substitution2: "'onum' Oldstyle Figures in Latin lookup 24 subtable" two.osf
Substitution2: "'tnum' Tabular Numbers in Latin lookup 23 subtable" two.tf
Substitution2: "'frac' Diagonal Fractions in Latin lookup 17 subtable" two.numr
Substitution2: "'dnom' Denominators in Latin lookup 15 subtable" two.dnom
Substitution2: "'numr' Numerators in Latin lookup 14 subtable" two.numr
Substitution2: "'sups' Superscript in Latin lookup 13 subtable" uni00B2
Substitution2: "'sinf' Scientific Inferiors in Latin lookup 12 subtable" two.subs
Substitution2: "'subs' Subscript in Latin lookup 11 subtable" two.subs
AlternateSubs2: "'aalt' Access All Alternates in Latin lookup 1 subtable" two.subs uni00B2 two.numr two.dnom two.tf two.osf
EndChar

StartChar: three
Encoding: 51 51 22
Width: 605
GlyphClass: 2
Flags: W
LayerCount: 2
Fore
SplineSet
175 707 m 128,-1,1
 233 733 233 733 296 733 c 0,2,3
 363 733 363 733 414.5 709.5 c 128,-1,4
 466 686 466 686 494 645 c 128,-1,5
 522 604 522 604 522 554 c 0,6,7
 522 435 522 435 378 384 c 1,8,9
 459 362 459 362 501.5 312.5 c 128,-1,10
 544 263 544 263 544 194 c 0,11,12
 544 138 544 138 514 91.5 c 128,-1,13
 484 45 484 45 425 17.5 c 128,-1,14
 366 -10 366 -10 283 -10 c 0,15,16
 212 -10 212 -10 158 12.5 c 128,-1,17
 104 35 104 35 52 88 c 1,18,-1
 84 117 l 1,19,20
 127 71 127 71 176.5 51 c 128,-1,21
 226 31 226 31 288 31 c 0,22,23
 387 31 387 31 443.5 75.5 c 128,-1,24
 500 120 500 120 500 191 c 0,25,26
 500 245 500 245 469 283.5 c 128,-1,27
 438 322 438 322 389 341.5 c 128,-1,28
 340 361 340 361 285 361 c 2,29,-1
 188 361 l 1,30,-1
 188 400 l 1,31,-1
 268 400 l 2,32,33
 326 400 326 400 374 420 c 128,-1,34
 422 440 422 440 450 475 c 128,-1,35
 478 510 478 510 478 554 c 0,36,37
 478 593 478 593 455 624.5 c 128,-1,38
 432 656 432 656 391 674 c 128,-1,39
 350 692 350 692 298 692 c 0,40,41
 238 692 238 692 194.5 670.5 c 128,-1,42
 151 649 151 649 113 607 c 1,43,-1
 83 636 l 1,44,0
 117 681 117 681 175 707 c 128,-1,1
EndSplineSet
Substitution2: "'onum' Oldstyle Figures in Latin lookup 24 subtable" three.osf
Substitution2: "'tnum' Tabular Numbers in Latin lookup 23 subtable" three.tf
Substitution2: "'frac' Diagonal Fractions in Latin lookup 17 subtable" three.numr
Substitution2: "'dnom' Denominators in Latin lookup 15 subtable" three.dnom
Substitution2: "'numr' Numerators in Latin lookup 14 subtable" three.numr
Substitution2: "'sups' Superscript in Latin lookup 13 subtable" uni00B3
Substitution2: "'sinf' Scientific Inferiors in Latin lookup 12 subtable" three.subs
Substitution2: "'subs' Subscript in Latin lookup 11 subtable" three.subs
AlternateSubs2: "'aalt' Access All Alternates in Latin lookup 1 subtable" three.subs uni00B3 three.numr three.dnom three.tf three.osf
EndChar

StartChar: four
Encoding: 52 52 23
Width: 611
GlyphClass: 2
Flags: W
LayerCount: 2
Fore
SplineSet
444 723 m 1,0,-1
 444 250 l 1,1,-1
 560 250 l 1,2,-1
 560 209 l 1,3,-1
 444 209 l 1,4,-1
 444 0 l 1,5,-1
 405 0 l 1,6,-1
 405 209 l 1,7,-1
 57 209 l 1,8,-1
 57 258 l 1,9,-1
 401 723 l 1,10,-1
 444 723 l 1,0,-1
401 250 m 1,11,-1
 401 656 l 1,12,-1
 99 250 l 1,13,-1
 401 250 l 1,11,-1
EndSplineSet
Substitution2: "'onum' Oldstyle Figures in Latin lookup 24 subtable" four.osf
Substitution2: "'tnum' Tabular Numbers in Latin lookup 23 subtable" four.tf
Substitution2: "'frac' Diagonal Fractions in Latin lookup 17 subtable" four.numr
Substitution2: "'dnom' Denominators in Latin lookup 15 subtable" four.dnom
Substitution2: "'numr' Numerators in Latin lookup 14 subtable" four.numr
Substitution2: "'sups' Superscript in Latin lookup 13 subtable" uni2074
Substitution2: "'sinf' Scientific Inferiors in Latin lookup 12 subtable" four.subs
Substitution2: "'subs' Subscript in Latin lookup 11 subtable" four.subs
AlternateSubs2: "'aalt' Access All Alternates in Latin lookup 1 subtable" four.subs uni2074 four.numr four.dnom four.tf four.osf
EndChar

StartChar: five
Encoding: 53 53 24
Width: 631
GlyphClass: 2
Flags: W
LayerCount: 2
Fore
SplineSet
532 723 m 1,0,-1
 527 683 l 1,1,-1
 166 683 l 1,2,-1
 143 390 l 1,3,4
 192 420 192 420 232.5 436 c 128,-1,5
 273 452 273 452 330 452 c 0,6,7
 392 452 392 452 445 429.5 c 128,-1,8
 498 407 498 407 530.5 359 c 128,-1,9
 563 311 563 311 563 237 c 0,10,11
 563 161 563 161 528 105 c 128,-1,12
 493 49 493 49 432 19.5 c 128,-1,13
 371 -10 371 -10 295 -10 c 0,14,15
 229 -10 229 -10 168.5 14 c 128,-1,16
 108 38 108 38 60 87 c 1,17,-1
 88 117 l 1,18,19
 138 71 138 71 181 50 c 128,-1,20
 224 29 224 29 288 29 c 0,21,22
 359 29 359 29 411.5 55 c 128,-1,23
 464 81 464 81 491.5 128 c 128,-1,24
 519 175 519 175 519 236 c 0,25,26
 519 325 519 325 465 369 c 128,-1,27
 411 413 411 413 330 413 c 0,28,29
 275 413 275 413 230 394 c 128,-1,30
 185 375 185 375 136 344 c 0,31,32
 132 341 132 341 130.5 340.5 c 128,-1,33
 129 340 129 340 127.5 341.5 c 128,-1,34
 126 343 126 343 123 345 c 2,35,-1
 96 363 l 1,36,-1
 124 723 l 1,37,-1
 532 723 l 1,0,-1
EndSplineSet
Substitution2: "'onum' Oldstyle Figures in Latin lookup 24 subtable" five.osf
Substitution2: "'tnum' Tabular Numbers in Latin lookup 23 subtable" five.tf
Substitution2: "'frac' Diagonal Fractions in Latin lookup 17 subtable" five.numr
Substitution2: "'dnom' Denominators in Latin lookup 15 subtable" five.dnom
Substitution2: "'numr' Numerators in Latin lookup 14 subtable" five.numr
Substitution2: "'sups' Superscript in Latin lookup 13 subtable" uni2075
Substitution2: "'sinf' Scientific Inferiors in Latin lookup 12 subtable" five.subs
Substitution2: "'subs' Subscript in Latin lookup 11 subtable" five.subs
AlternateSubs2: "'aalt' Access All Alternates in Latin lookup 1 subtable" five.subs uni2075 five.numr five.dnom five.tf five.osf
EndChar

StartChar: six
Encoding: 54 54 25
Width: 588
GlyphClass: 2
Flags: W
LayerCount: 2
Fore
SplineSet
525 636 m 1,0,-1
 497 605 l 1,1,2
 474 637 474 637 454 656.5 c 128,-1,3
 434 676 434 676 404 689 c 128,-1,4
 374 702 374 702 330 702 c 0,5,6
 220 702 220 702 160 603.5 c 128,-1,7
 100 505 100 505 100 312 c 1,8,-1
 101 272 l 1,9,10
 117 345 117 345 175.5 389 c 128,-1,11
 234 433 234 433 312 433 c 0,12,13
 383 433 383 433 433 404 c 128,-1,14
 483 375 483 375 508 325 c 128,-1,15
 533 275 533 275 533 215 c 0,16,17
 533 149 533 149 503.5 99.5 c 128,-1,18
 474 50 474 50 422.5 24 c 128,-1,19
 371 -2 371 -2 306 -2 c 0,20,21
 188 -2 188 -2 121.5 93 c 128,-1,22
 55 188 55 188 55 362 c 0,23,24
 55 480 55 480 87.5 565 c 128,-1,25
 120 650 120 650 181.5 695.5 c 128,-1,26
 243 741 243 741 330 741 c 0,27,28
 461 741 461 741 525 636 c 1,0,-1
176.5 349 m 128,-1,30
 120 306 120 306 120 229 c 1,31,32
 159 39 159 39 309 39 c 0,33,34
 361 39 361 39 402 61 c 128,-1,35
 443 83 443 83 466 123 c 128,-1,36
 489 163 489 163 489 213 c 0,37,38
 489 260 489 260 468.5 301 c 128,-1,39
 448 342 448 342 409 367 c 128,-1,40
 370 392 370 392 317 392 c 0,41,29
 233 392 233 392 176.5 349 c 128,-1,30
EndSplineSet
Substitution2: "'onum' Oldstyle Figures in Latin lookup 24 subtable" six.osf
Substitution2: "'tnum' Tabular Numbers in Latin lookup 23 subtable" six.tf
Substitution2: "'frac' Diagonal Fractions in Latin lookup 17 subtable" six.numr
Substitution2: "'dnom' Denominators in Latin lookup 15 subtable" six.dnom
Substitution2: "'numr' Numerators in Latin lookup 14 subtable" six.numr
Substitution2: "'sups' Superscript in Latin lookup 13 subtable" uni2076
Substitution2: "'sinf' Scientific Inferiors in Latin lookup 12 subtable" six.subs
Substitution2: "'subs' Subscript in Latin lookup 11 subtable" six.subs
AlternateSubs2: "'aalt' Access All Alternates in Latin lookup 1 subtable" six.subs uni2076 six.numr six.dnom six.tf six.osf
EndChar

StartChar: seven
Encoding: 55 55 26
Width: 562
GlyphClass: 2
Flags: W
LayerCount: 2
Fore
SplineSet
520 723 m 1,0,-1
 520 683 l 1,1,2
 453 584 453 584 388.5 451.5 c 128,-1,3
 324 319 324 319 278.5 195.5 c 128,-1,4
 233 72 233 72 218 0 c 1,5,-1
 171 0 l 1,6,7
 200 130 200 130 279 322 c 128,-1,8
 358 514 358 514 466 683 c 1,9,-1
 42 683 l 1,10,-1
 42 723 l 1,11,-1
 520 723 l 1,0,-1
EndSplineSet
Substitution2: "'onum' Oldstyle Figures in Latin lookup 24 subtable" seven.osf
Substitution2: "'tnum' Tabular Numbers in Latin lookup 23 subtable" seven.tf
Substitution2: "'frac' Diagonal Fractions in Latin lookup 17 subtable" seven.numr
Substitution2: "'dnom' Denominators in Latin lookup 15 subtable" seven.dnom
Substitution2: "'numr' Numerators in Latin lookup 14 subtable" seven.numr
Substitution2: "'sups' Superscript in Latin lookup 13 subtable" uni2077
Substitution2: "'sinf' Scientific Inferiors in Latin lookup 12 subtable" seven.subs
Substitution2: "'subs' Subscript in Latin lookup 11 subtable" seven.subs
AlternateSubs2: "'aalt' Access All Alternates in Latin lookup 1 subtable" seven.subs uni2077 seven.numr seven.dnom seven.tf seven.osf
EndChar

StartChar: eight
Encoding: 56 56 27
Width: 607
GlyphClass: 2
Flags: W
LayerCount: 2
Fore
SplineSet
463.5 679 m 128,-1,1
 524 625 524 625 524 535 c 0,2,3
 524 484 524 484 501.5 447 c 128,-1,4
 479 410 479 410 457.5 393 c 128,-1,5
 436 376 436 376 410 360 c 1,6,7
 414 358 414 358 453 344.5 c 128,-1,8
 492 331 492 331 524 288 c 128,-1,9
 556 245 556 245 556 183 c 0,10,11
 556 126 556 126 524 82 c 128,-1,12
 492 38 492 38 434.5 14 c 128,-1,13
 377 -10 377 -10 301 -10 c 0,14,15
 184 -10 184 -10 118 40.5 c 128,-1,16
 52 91 52 91 52 180 c 0,17,18
 52 230 52 230 82 282 c 128,-1,19
 112 334 112 334 189 371 c 1,20,21
 150 384 150 384 110.5 420.5 c 128,-1,22
 71 457 71 457 71 532 c 0,23,24
 71 589 71 589 101.5 635 c 128,-1,25
 132 681 132 681 185 707 c 128,-1,26
 238 733 238 733 303 733 c 0,27,0
 403 733 403 733 463.5 679 c 128,-1,1
208 671 m 128,-1,29
 165 650 165 650 140.5 613.5 c 128,-1,30
 116 577 116 577 116 532 c 0,31,32
 116 424 116 424 237 400 c 2,33,-1
 351 375 l 2,34,35
 370 371 370 371 401.5 395 c 128,-1,36
 433 419 433 419 456 459 c 128,-1,37
 479 499 479 499 479 540 c 0,38,39
 479 609 479 609 431 650.5 c 128,-1,40
 383 692 383 692 303 692 c 0,41,28
 251 692 251 692 208 671 c 128,-1,29
454.5 73.5 m 128,-1,43
 512 116 512 116 512 186 c 0,44,45
 512 241 512 241 483 273 c 128,-1,46
 454 305 454 305 393 319 c 2,47,-1
 245 352 l 2,48,49
 225 357 225 357 188.5 334.5 c 128,-1,50
 152 312 152 312 124 270.5 c 128,-1,51
 96 229 96 229 96 181 c 0,52,53
 96 111 96 111 150.5 71 c 128,-1,54
 205 31 205 31 302 31 c 0,55,42
 397 31 397 31 454.5 73.5 c 128,-1,43
EndSplineSet
Substitution2: "'onum' Oldstyle Figures in Latin lookup 24 subtable" eight.osf
Substitution2: "'tnum' Tabular Numbers in Latin lookup 23 subtable" eight.tf
Substitution2: "'frac' Diagonal Fractions in Latin lookup 17 subtable" eight.numr
Substitution2: "'dnom' Denominators in Latin lookup 15 subtable" eight.dnom
Substitution2: "'numr' Numerators in Latin lookup 14 subtable" eight.numr
Substitution2: "'sups' Superscript in Latin lookup 13 subtable" uni2078
Substitution2: "'sinf' Scientific Inferiors in Latin lookup 12 subtable" eight.subs
Substitution2: "'subs' Subscript in Latin lookup 11 subtable" eight.subs
AlternateSubs2: "'aalt' Access All Alternates in Latin lookup 1 subtable" eight.subs uni2078 eight.numr eight.dnom eight.tf eight.osf
EndChar

StartChar: nine
Encoding: 57 57 28
Width: 588
GlyphClass: 2
Flags: W
LayerCount: 2
Fore
SplineSet
60 96 m 1,0,-1
 88 126 l 1,1,2
 111 94 111 94 131 74.5 c 128,-1,3
 151 55 151 55 181 42 c 128,-1,4
 211 29 211 29 254 29 c 0,5,6
 365 29 365 29 425 127.5 c 128,-1,7
 485 226 485 226 485 419 c 1,8,-1
 484 459 l 1,9,10
 468 386 468 386 409 342 c 128,-1,11
 350 298 350 298 273 298 c 0,12,13
 202 298 202 298 152 327.5 c 128,-1,14
 102 357 102 357 77 406.5 c 128,-1,15
 52 456 52 456 52 517 c 0,16,17
 52 583 52 583 81.5 632 c 128,-1,18
 111 681 111 681 162.5 707 c 128,-1,19
 214 733 214 733 279 733 c 0,20,21
 397 733 397 733 463.5 638.5 c 128,-1,22
 530 544 530 544 530 370 c 0,23,24
 530 252 530 252 497.5 166.5 c 128,-1,25
 465 81 465 81 403 35.5 c 128,-1,26
 341 -10 341 -10 254 -10 c 0,27,28
 123 -10 123 -10 60 96 c 1,0,-1
367 359.5 m 128,-1,30
 412 380 412 380 438.5 417 c 128,-1,31
 465 454 465 454 465 502 c 1,32,33
 426 692 426 692 276 692 c 0,34,35
 224 692 224 692 183 670 c 128,-1,36
 142 648 142 648 119 608.5 c 128,-1,37
 96 569 96 569 96 519 c 0,38,39
 96 471 96 471 116.5 430 c 128,-1,40
 137 389 137 389 176 364 c 128,-1,41
 215 339 215 339 268 339 c 0,42,29
 322 339 322 339 367 359.5 c 128,-1,30
EndSplineSet
Substitution2: "'onum' Oldstyle Figures in Latin lookup 24 subtable" nine.osf
Substitution2: "'tnum' Tabular Numbers in Latin lookup 23 subtable" nine.tf
Substitution2: "'frac' Diagonal Fractions in Latin lookup 17 subtable" nine.numr
Substitution2: "'dnom' Denominators in Latin lookup 15 subtable" nine.dnom
Substitution2: "'numr' Numerators in Latin lookup 14 subtable" nine.numr
Substitution2: "'sups' Superscript in Latin lookup 13 subtable" uni2079
Substitution2: "'sinf' Scientific Inferiors in Latin lookup 12 subtable" nine.subs
Substitution2: "'subs' Subscript in Latin lookup 11 subtable" nine.subs
AlternateSubs2: "'aalt' Access All Alternates in Latin lookup 1 subtable" nine.subs uni2079 nine.numr nine.dnom nine.tf nine.osf
EndChar

StartChar: colon
Encoding: 58 58 29
Width: 187
GlyphClass: 2
Flags: W
LayerCount: 2
Fore
SplineSet
124 410 m 1,0,-1
 63 410 l 1,1,-1
 63 488 l 1,2,-1
 124 488 l 1,3,-1
 124 410 l 1,0,-1
124 3 m 1,4,-1
 63 3 l 1,5,-1
 63 80 l 1,6,-1
 124 80 l 1,7,-1
 124 3 l 1,4,-1
EndSplineSet
EndChar

StartChar: semicolon
Encoding: 59 59 30
Width: 218
GlyphClass: 2
Flags: W
LayerCount: 2
Fore
SplineSet
65 488 m 1,0,-1
 126 488 l 1,1,-1
 126 410 l 1,2,-1
 65 410 l 1,3,-1
 65 488 l 1,0,-1
98 0 m 1,4,-1
 70 0 l 1,5,-1
 70 77 l 1,6,-1
 131 77 l 1,7,-1
 131 9 l 1,8,-1
 70 -131 l 1,9,-1
 49 -131 l 1,10,-1
 98 0 l 1,4,-1
EndSplineSet
EndChar

StartChar: less
Encoding: 60 60 31
Width: 520
GlyphClass: 2
Flags: W
LayerCount: 2
Fore
SplineSet
446 174 m 1,0,-1
 63 325 l 1,1,-1
 63 372 l 1,2,-1
 447 527 l 1,3,-1
 447 478 l 1,4,-1
 123 349 l 1,5,-1
 446 219 l 1,6,-1
 446 174 l 1,0,-1
EndSplineSet
EndChar

StartChar: equal
Encoding: 61 61 32
Width: 527
GlyphClass: 2
Flags: W
LayerCount: 2
Fore
SplineSet
459 443 m 1,0,-1
 68 442 l 1,1,-1
 68 479 l 1,2,-1
 459 480 l 1,3,-1
 459 443 l 1,0,-1
459 228 m 1,4,-1
 68 227 l 1,5,-1
 68 264 l 1,6,-1
 459 265 l 1,7,-1
 459 228 l 1,4,-1
EndSplineSet
EndChar

StartChar: greater
Encoding: 62 62 33
Width: 520
GlyphClass: 2
Flags: W
LayerCount: 2
Fore
SplineSet
397 349 m 1,0,-1
 73 478 l 1,1,-1
 73 527 l 1,2,-1
 456 372 l 1,3,-1
 456 325 l 1,4,-1
 74 174 l 1,5,-1
 74 219 l 1,6,-1
 397 349 l 1,0,-1
EndSplineSet
EndChar

StartChar: question
Encoding: 63 63 34
Width: 508
GlyphClass: 2
Flags: W
LayerCount: 2
Fore
SplineSet
128.5 699 m 128,-1,1
 188 733 188 733 258 733 c 0,2,3
 352 733 352 733 408 685 c 128,-1,4
 464 637 464 637 464 556 c 0,5,6
 464 515 464 515 450 481 c 128,-1,7
 436 447 436 447 416 420 c 128,-1,8
 396 393 396 393 362 355 c 0,9,10
 327 315 327 315 306.5 287.5 c 128,-1,11
 286 260 286 260 272 224.5 c 128,-1,12
 258 189 258 189 258 146 c 1,13,-1
 217 146 l 1,14,15
 217 194 217 194 232 233 c 128,-1,16
 247 272 247 272 268.5 301.5 c 128,-1,17
 290 331 290 331 325 371 c 0,18,19
 372 425 372 425 395.5 465 c 128,-1,20
 419 505 419 505 419 556 c 0,21,22
 419 619 419 619 375.5 655.5 c 128,-1,23
 332 692 332 692 258 692 c 0,24,25
 201 692 201 692 148 661 c 128,-1,26
 95 630 95 630 78 589 c 1,27,-1
 37 608 l 1,28,0
 69 665 69 665 128.5 699 c 128,-1,1
268 0 m 1,29,-1
 208 0 l 1,30,-1
 208 77 l 1,31,-1
 268 77 l 1,32,-1
 268 0 l 1,29,-1
EndSplineSet
EndChar

StartChar: at
Encoding: 64 64 35
Width: 813
GlyphClass: 2
Flags: W
LayerCount: 2
Fore
SplineSet
426 -110 m 0,0,1
 312 -110 312 -110 227 -61.5 c 128,-1,2
 142 -13 142 -13 97 70 c 128,-1,3
 52 153 52 153 52 254 c 0,4,5
 52 359 52 359 101.5 448.5 c 128,-1,6
 151 538 151 538 239 591 c 128,-1,7
 327 644 327 644 438 644 c 0,8,9
 525 644 525 644 602.5 610 c 128,-1,10
 680 576 680 576 728.5 505.5 c 128,-1,11
 777 435 777 435 777 332 c 0,12,13
 777 259 777 259 752.5 201 c 128,-1,14
 728 143 728 143 685.5 111 c 128,-1,15
 643 79 643 79 591 79 c 0,16,17
 554 79 554 79 534.5 91.5 c 128,-1,18
 515 104 515 104 508 135 c 0,19,20
 507 142 507 142 504 142 c 0,21,22
 502 142 502 142 497 137 c 0,23,24
 446 65 446 65 358 65 c 0,25,26
 324 65 324 65 294 86.5 c 128,-1,27
 264 108 264 108 245.5 147.5 c 128,-1,28
 227 187 227 187 227 237 c 0,29,30
 227 300 227 300 251 351.5 c 128,-1,31
 275 403 275 403 316.5 433 c 128,-1,32
 358 463 358 463 410 463 c 0,33,34
 449 463 449 463 479.5 444.5 c 128,-1,35
 510 426 510 426 527 393 c 0,36,37
 528 391 528 391 530 392 c 128,-1,38
 532 393 532 393 533 396 c 2,39,-1
 544 438 l 1,40,-1
 585 438 l 1,41,-1
 547 209 l 2,42,43
 544 188 544 188 544 174 c 0,44,45
 544 145 544 145 555.5 133 c 128,-1,46
 567 121 567 121 592 121 c 0,47,48
 629 121 629 121 660.5 147 c 128,-1,49
 692 173 692 173 710 219.5 c 128,-1,50
 728 266 728 266 728 326 c 0,51,52
 728 419 728 419 685 481.5 c 128,-1,53
 642 544 642 544 575.5 573.5 c 128,-1,54
 509 603 509 603 437 603 c 0,55,56
 336 603 336 603 259.5 555.5 c 128,-1,57
 183 508 183 508 141 428 c 128,-1,58
 99 348 99 348 99 252 c 0,59,60
 99 165 99 165 137.5 92.5 c 128,-1,61
 176 20 176 20 252.5 -23.5 c 128,-1,62
 329 -67 329 -67 438 -67 c 0,63,64
 498 -67 498 -67 535 -51.5 c 128,-1,65
 572 -36 572 -36 622 -1 c 1,66,-1
 648 -35 l 1,67,68
 546 -110 546 -110 426 -110 c 0,0,1
299 142.5 m 128,-1,70
 322 108 322 108 363 108 c 0,71,72
 415 108 415 108 456.5 152 c 128,-1,73
 498 196 498 196 509 259 c 0,74,75
 512 280 512 280 512 297 c 0,76,77
 512 357 512 357 482.5 388.5 c 128,-1,78
 453 420 453 420 412 420 c 0,79,80
 351 420 351 420 313.5 367.5 c 128,-1,81
 276 315 276 315 276 238 c 0,82,69
 276 177 276 177 299 142.5 c 128,-1,70
EndSplineSet
EndChar

StartChar: A
Encoding: 65 65 36
Width: 684
GlyphClass: 2
Flags: W
AnchorPoint: "Anchor-5" 0 0 basechar 0
AnchorPoint: "Anchor-4" 0 0 basechar 0
AnchorPoint: "Anchor-3" 342 723 basechar 0
AnchorPoint: "Anchor-2" 624 11 basechar 0
LayerCount: 2
Fore
SplineSet
315 723 m 1,0,-1
 370 723 l 1,1,-1
 634 0 l 1,2,-1
 591 0 l 1,3,-1
 508 228 l 1,4,-1
 177 228 l 1,5,-1
 92 0 l 1,6,-1
 50 0 l 1,7,-1
 315 723 l 1,0,-1
493 271 m 1,8,-1
 343 681 l 1,9,-1
 191 271 l 1,10,-1
 493 271 l 1,8,-1
EndSplineSet
Substitution2: "Single Substitution lookup 30 subtable" ordfeminine
Substitution2: "'aalt' Access All Alternates in Latin lookup 0 subtable" ordfeminine
EndChar

StartChar: B
Encoding: 66 66 37
Width: 653
GlyphClass: 2
Flags: W
LayerCount: 2
Fore
SplineSet
108 723 m 1,0,-1
 311 723 l 2,1,2
 433 723 433 723 500 674.5 c 128,-1,3
 567 626 567 626 567 536 c 0,4,5
 567 472 567 472 533.5 430.5 c 128,-1,6
 500 389 500 389 424 367 c 1,7,8
 504 354 504 354 544.5 309.5 c 128,-1,9
 585 265 585 265 585 193 c 0,10,11
 585 98 585 98 514.5 49 c 128,-1,12
 444 0 444 0 314 0 c 2,13,-1
 108 0 l 1,14,-1
 108 723 l 1,0,-1
323 386 m 2,15,16
 407 386 407 386 467.5 418.5 c 128,-1,17
 528 451 528 451 528 531 c 0,18,19
 528 608 528 608 469 645.5 c 128,-1,20
 410 683 410 683 307 683 c 2,21,-1
 147 683 l 1,22,-1
 147 386 l 1,23,-1
 323 386 l 2,15,16
309 41 m 2,24,25
 428 41 428 41 487 75.5 c 128,-1,26
 546 110 546 110 546 187 c 0,27,28
 546 269 546 269 484.5 307 c 128,-1,29
 423 345 423 345 323 345 c 2,30,-1
 147 345 l 1,31,-1
 147 41 l 1,32,-1
 309 41 l 2,24,25
EndSplineSet
EndChar

StartChar: C
Encoding: 67 67 38
Width: 659
GlyphClass: 2
Flags: W
AnchorPoint: "Anchor-5" 0 0 basechar 0
AnchorPoint: "Anchor-4" 350 0 basechar 0
AnchorPoint: "Anchor-3" 350 723 basechar 0
AnchorPoint: "Anchor-2" 0 0 basechar 0
LayerCount: 2
Fore
SplineSet
469.5 706 m 128,-1,1
 526 679 526 679 559.5 634 c 128,-1,2
 593 589 593 589 599 536 c 1,3,-1
 556 529 l 1,4,5
 541 603 541 603 487 647.5 c 128,-1,6
 433 692 433 692 344 692 c 0,7,8
 225 692 225 692 164.5 607 c 128,-1,9
 104 522 104 522 104 359 c 0,10,11
 104 199 104 199 165.5 115 c 128,-1,12
 227 31 227 31 352 31 c 0,13,14
 427 31 427 31 481.5 71.5 c 128,-1,15
 536 112 536 112 553 184 c 1,16,-1
 595 173 l 1,17,18
 590 122 590 122 554 80 c 128,-1,19
 518 38 518 38 463.5 14 c 128,-1,20
 409 -10 409 -10 350 -10 c 0,21,22
 210 -10 210 -10 135 86 c 128,-1,23
 60 182 60 182 60 359 c 0,24,25
 60 537 60 537 133 635 c 128,-1,26
 206 733 206 733 342 733 c 0,27,0
 413 733 413 733 469.5 706 c 128,-1,1
EndSplineSet
EndChar

StartChar: D
Encoding: 68 68 39
Width: 664
GlyphClass: 2
Flags: W
AnchorPoint: "Anchor-5" 0 0 basechar 0
AnchorPoint: "Anchor-4" 0 0 basechar 0
AnchorPoint: "Anchor-3" 323 723 basechar 0
AnchorPoint: "Anchor-2" 0 0 basechar 0
LayerCount: 2
Fore
SplineSet
228 722 m 2,0,1
 427 721 427 721 516 635.5 c 128,-1,2
 605 550 605 550 605 367 c 0,3,4
 605 177 605 177 510 88.5 c 128,-1,5
 415 0 415 0 214 0 c 2,6,-1
 108 0 l 1,7,-1
 108 723 l 1,8,-1
 228 722 l 2,0,1
151 41 m 1,9,-1
 211 41 l 2,10,11
 391 41 391 41 477 115.5 c 128,-1,12
 563 190 563 190 563 363 c 0,13,14
 563 485 563 485 523.5 554.5 c 128,-1,15
 484 624 484 624 408.5 653 c 128,-1,16
 333 682 333 682 217 682 c 2,17,-1
 151 682 l 1,18,-1
 151 41 l 1,9,-1
EndSplineSet
EndChar

StartChar: E
Encoding: 69 69 40
Width: 608
GlyphClass: 2
Flags: W
AnchorPoint: "Anchor-5" 0 0 basechar 0
AnchorPoint: "Anchor-4" 348 0 basechar 0
AnchorPoint: "Anchor-3" 330 723 basechar 0
AnchorPoint: "Anchor-2" 528 10 basechar 0
LayerCount: 2
Fore
SplineSet
108 723 m 1,0,-1
 523 723 l 1,1,-1
 523 683 l 1,2,-1
 147 683 l 1,3,-1
 147 386 l 1,4,-1
 497 386 l 1,5,-1
 497 345 l 1,6,-1
 147 345 l 1,7,-1
 147 42 l 1,8,-1
 537 41 l 1,9,-1
 537 0 l 1,10,-1
 108 0 l 1,11,-1
 108 723 l 1,0,-1
EndSplineSet
EndChar

StartChar: F
Encoding: 70 70 41
Width: 563
GlyphClass: 2
Flags: W
LayerCount: 2
Fore
SplineSet
517 723 m 1,0,-1
 517 683 l 1,1,-1
 151 683 l 1,2,-1
 151 387 l 1,3,-1
 491 387 l 1,4,-1
 491 346 l 1,5,-1
 151 346 l 1,6,-1
 151 0 l 1,7,-1
 108 0 l 1,8,-1
 108 723 l 1,9,-1
 517 723 l 1,0,-1
EndSplineSet
EndChar

StartChar: G
Encoding: 71 71 42
Width: 705
GlyphClass: 2
Flags: W
AnchorPoint: "Anchor-5" 0 0 basechar 0
AnchorPoint: "Anchor-4" 354 0 basechar 0
AnchorPoint: "Anchor-3" 349 723 basechar 0
AnchorPoint: "Anchor-2" 0 0 basechar 0
LayerCount: 2
Fore
SplineSet
193 33.5 m 128,-1,1
 128 77 128 77 94 160 c 128,-1,2
 60 243 60 243 60 359 c 0,3,4
 60 477 60 477 95 561.5 c 128,-1,5
 130 646 130 646 195 689.5 c 128,-1,6
 260 733 260 733 349 733 c 0,7,8
 408 733 408 733 463.5 706.5 c 128,-1,9
 519 680 519 680 555.5 635 c 128,-1,10
 592 590 592 590 597 538 c 1,11,-1
 551 530 l 1,12,13
 544 575 544 575 515.5 612 c 128,-1,14
 487 649 487 649 443.5 670.5 c 128,-1,15
 400 692 400 692 349 692 c 0,16,17
 232 692 232 692 166.5 605.5 c 128,-1,18
 101 519 101 519 101 365 c 0,19,20
 101 203 101 203 165.5 116 c 128,-1,21
 230 29 230 29 349 29 c 0,22,23
 421 29 421 29 472 63 c 128,-1,24
 523 97 523 97 548 148 c 128,-1,25
 573 199 573 199 573 249 c 2,26,-1
 573 333 l 1,27,-1
 371 333 l 1,28,-1
 371 368 l 1,29,-1
 612 368 l 1,30,-1
 612 0 l 1,31,-1
 573 0 l 1,32,-1
 573 126 l 1,33,34
 542 65 542 65 485 27.5 c 128,-1,35
 428 -10 428 -10 348 -10 c 0,36,0
 258 -10 258 -10 193 33.5 c 128,-1,1
EndSplineSet
EndChar

StartChar: H
Encoding: 72 72 43
Width: 693
GlyphClass: 2
Flags: W
AnchorPoint: "Anchor-5" 0 0 basechar 0
AnchorPoint: "Anchor-4" 347 0 basechar 0
AnchorPoint: "Anchor-3" 347 723 basechar 0
AnchorPoint: "Anchor-2" 0 0 basechar 0
LayerCount: 2
Fore
SplineSet
147 356 m 1,0,-1
 147 0 l 1,1,-1
 108 0 l 1,2,-1
 108 723 l 1,3,-1
 147 723 l 1,4,-1
 147 397 l 1,5,-1
 546 397 l 1,6,-1
 546 723 l 1,7,-1
 585 723 l 1,8,-1
 585 0 l 1,9,-1
 546 0 l 1,10,-1
 546 356 l 1,11,-1
 147 356 l 1,0,-1
EndSplineSet
EndChar

StartChar: I
Encoding: 73 73 44
Width: 255
GlyphClass: 2
Flags: W
AnchorPoint: "Anchor-5" 0 0 basechar 0
AnchorPoint: "Anchor-4" 129 0 basechar 0
AnchorPoint: "Anchor-3" 132 723 basechar 0
AnchorPoint: "Anchor-2" 140 10 basechar 0
LayerCount: 2
Fore
SplineSet
147 723 m 1,0,-1
 147 0 l 1,1,-1
 108 0 l 1,2,-1
 108 723 l 1,3,-1
 147 723 l 1,0,-1
EndSplineSet
EndChar

StartChar: J
Encoding: 74 74 45
Width: 364
GlyphClass: 2
Flags: W
AnchorPoint: "Anchor-5" 0 0 basechar 0
AnchorPoint: "Anchor-4" 0 0 basechar 0
AnchorPoint: "Anchor-3" 239 723 basechar 0
AnchorPoint: "Anchor-2" 0 0 basechar 0
LayerCount: 2
Fore
SplineSet
228.5 28 m 128,-1,1
 201 -10 201 -10 134 -10 c 0,2,3
 97 -10 97 -10 65 0.5 c 128,-1,4
 33 11 33 11 24 19 c 1,5,-1
 34 62 l 1,6,7
 41 59 41 59 56.5 50.5 c 128,-1,8
 72 42 72 42 90.5 36.5 c 128,-1,9
 109 31 109 31 132 31 c 0,10,11
 179 31 179 31 198 58.5 c 128,-1,12
 217 86 217 86 217 154 c 2,13,-1
 217 723 l 1,14,-1
 256 723 l 1,15,-1
 256 140 l 2,16,0
 256 66 256 66 228.5 28 c 128,-1,1
EndSplineSet
EndChar

StartChar: K
Encoding: 75 75 46
Width: 643
GlyphClass: 2
Flags: W
AnchorPoint: "Anchor-5" 0 0 basechar 0
AnchorPoint: "Anchor-4" 330 0 basechar 0
AnchorPoint: "Anchor-3" 359 723 basechar 0
AnchorPoint: "Anchor-2" 0 0 basechar 0
LayerCount: 2
Fore
SplineSet
552 0 m 1,0,-1
 292 407 l 1,1,-1
 149 248 l 1,2,-1
 149 0 l 1,3,-1
 108 0 l 1,4,-1
 108 723 l 1,5,-1
 149 723 l 1,6,-1
 149 306 l 1,7,-1
 533 723 l 1,8,-1
 587 723 l 1,9,-1
 326 438 l 1,10,-1
 604 0 l 1,11,-1
 552 0 l 1,0,-1
EndSplineSet
EndChar

StartChar: L
Encoding: 76 76 47
Width: 554
GlyphClass: 2
Flags: W
AnchorPoint: "Anchor-5" 408 723 basechar 0
AnchorPoint: "Anchor-4" 308 0 basechar 0
AnchorPoint: "Anchor-3" 133 723 basechar 0
AnchorPoint: "Anchor-2" 0 0 basechar 0
LayerCount: 2
Fore
SplineSet
151 723 m 1,0,-1
 151 43 l 1,1,-1
 520 43 l 1,2,-1
 520 0 l 1,3,-1
 108 0 l 1,4,-1
 108 723 l 1,5,-1
 151 723 l 1,0,-1
EndSplineSet
EndChar

StartChar: M
Encoding: 77 77 48
Width: 849
GlyphClass: 2
Flags: W
LayerCount: 2
Fore
SplineSet
108 723 m 1,0,-1
 152 723 l 1,1,-1
 423 44 l 1,2,-1
 698 723 l 1,3,-1
 741 723 l 1,4,-1
 741 0 l 1,5,-1
 698 0 l 1,6,-1
 698 616 l 1,7,-1
 452 0 l 1,8,-1
 394 0 l 1,9,-1
 151 608 l 1,10,-1
 151 0 l 1,11,-1
 108 0 l 1,12,-1
 108 723 l 1,0,-1
EndSplineSet
EndChar

StartChar: N
Encoding: 78 78 49
Width: 722
GlyphClass: 2
Flags: W
AnchorPoint: "Anchor-5" 0 0 basechar 0
AnchorPoint: "Anchor-4" 337 0 basechar 0
AnchorPoint: "Anchor-3" 375 723 basechar 0
AnchorPoint: "Anchor-2" 0 0 basechar 0
LayerCount: 2
Fore
SplineSet
614 723 m 1,0,-1
 614 0 l 1,1,-1
 580 0 l 1,2,-1
 147 643 l 1,3,-1
 147 0 l 1,4,-1
 108 0 l 1,5,-1
 108 723 l 1,6,-1
 140 723 l 1,7,-1
 575 78 l 1,8,-1
 575 723 l 1,9,-1
 614 723 l 1,0,-1
EndSplineSet
EndChar

StartChar: O
Encoding: 79 79 50
Width: 707
GlyphClass: 2
Flags: W
AnchorPoint: "Anchor-5" 0 0 basechar 0
AnchorPoint: "Anchor-4" 356 0 basechar 0
AnchorPoint: "Anchor-3" 356 723 basechar 0
AnchorPoint: "Anchor-2" 424 9 basechar 0
LayerCount: 2
Fore
SplineSet
137.5 85 m 128,-1,1
 60 180 60 180 60 358 c 0,2,3
 60 539 60 539 138 636 c 128,-1,4
 216 733 216 733 355 733 c 0,5,6
 493 733 493 733 570 636.5 c 128,-1,7
 647 540 647 540 647 360 c 0,8,9
 647 181 647 181 570 85.5 c 128,-1,10
 493 -10 493 -10 354 -10 c 128,-1,0
 215 -10 215 -10 137.5 85 c 128,-1,1
540.5 113 m 128,-1,12
 603 195 603 195 603 360 c 0,13,14
 603 526 603 526 539.5 609 c 128,-1,15
 476 692 476 692 355 692 c 0,16,17
 233 692 233 692 168.5 608.5 c 128,-1,18
 104 525 104 525 104 360 c 0,19,20
 104 196 104 196 168.5 113.5 c 128,-1,21
 233 31 233 31 356 31 c 0,22,11
 478 31 478 31 540.5 113 c 128,-1,12
EndSplineSet
Substitution2: "Single Substitution lookup 30 subtable" ordmasculine
Substitution2: "'aalt' Access All Alternates in Latin lookup 0 subtable" ordmasculine
EndChar

StartChar: P
Encoding: 80 80 51
Width: 625
GlyphClass: 2
Flags: W
LayerCount: 2
Fore
SplineSet
108 723 m 1,0,-1
 331 723 l 2,1,2
 452 723 452 723 521.5 675 c 128,-1,3
 591 627 591 627 591 523 c 128,-1,4
 591 419 591 419 522.5 368 c 128,-1,5
 454 317 454 317 337 317 c 2,6,-1
 151 317 l 1,7,-1
 151 0 l 1,8,-1
 108 0 l 1,9,-1
 108 723 l 1,0,-1
337 360 m 2,10,11
 436 360 436 360 491.5 400 c 128,-1,12
 547 440 547 440 547 526 c 0,13,14
 547 611 547 611 491.5 646 c 128,-1,15
 436 681 436 681 330 681 c 2,16,-1
 151 681 l 1,17,-1
 151 360 l 1,18,-1
 337 360 l 2,10,11
EndSplineSet
EndChar

StartChar: Q
Encoding: 81 81 52
Width: 711
GlyphClass: 2
Flags: W
LayerCount: 2
Fore
SplineSet
135.5 637 m 128,-1,1
 213 733 213 733 352 733 c 128,-1,2
 491 733 491 733 568 637.5 c 128,-1,3
 645 542 645 542 645 360 c 0,4,5
 645 232 645 232 606.5 147.5 c 128,-1,6
 568 63 568 63 483 18 c 1,7,8
 528 -74 528 -74 636 -79 c 1,9,-1
 636 -119 l 1,10,11
 587 -119 587 -119 530.5 -92 c 128,-1,12
 474 -65 474 -65 440 1 c 1,13,14
 390 -10 390 -10 352 -10 c 0,15,16
 215 -10 215 -10 136.5 84.5 c 128,-1,17
 58 179 58 179 58 360 c 128,-1,0
 58 541 58 541 135.5 637 c 128,-1,1
166 112.5 m 128,-1,19
 230 31 230 31 352 31 c 128,-1,20
 474 31 474 31 538 113 c 128,-1,21
 602 195 602 195 602 360 c 0,22,23
 602 523 602 523 538 607.5 c 128,-1,24
 474 692 474 692 352 692 c 128,-1,25
 230 692 230 692 166 607 c 128,-1,26
 102 522 102 522 102 358 c 128,-1,18
 102 194 102 194 166 112.5 c 128,-1,19
EndSplineSet
EndChar

StartChar: R
Encoding: 82 82 53
Width: 660
GlyphClass: 2
Flags: W
AnchorPoint: "Anchor-5" 0 0 basechar 0
AnchorPoint: "Anchor-4" 324 0 basechar 0
AnchorPoint: "Anchor-3" 317 723 basechar 0
AnchorPoint: "Anchor-2" 0 0 basechar 0
LayerCount: 2
Fore
SplineSet
536 0 m 1,0,-1
 390 344 l 1,1,-1
 147 344 l 1,2,-1
 147 0 l 1,3,-1
 108 0 l 1,4,-1
 108 723 l 1,5,-1
 363 723 l 2,6,7
 469 723 469 723 527 677.5 c 128,-1,8
 585 632 585 632 585 544 c 0,9,10
 585 462 585 462 540 415.5 c 128,-1,11
 495 369 495 369 431 353 c 1,12,-1
 581 0 l 1,13,-1
 536 0 l 1,0,-1
489.5 421 m 128,-1,15
 543 457 543 457 543 537 c 0,16,17
 543 613 543 613 497.5 648 c 128,-1,18
 452 683 452 683 362 683 c 2,19,-1
 147 683 l 1,20,-1
 147 385 l 1,21,-1
 329 385 l 2,22,14
 436 385 436 385 489.5 421 c 128,-1,15
EndSplineSet
EndChar

StartChar: S
Encoding: 83 83 54
Width: 646
GlyphClass: 2
Flags: W
AnchorPoint: "Anchor-5" 0 0 basechar 0
AnchorPoint: "Anchor-4" 317 0 basechar 0
AnchorPoint: "Anchor-3" 323 723 basechar 0
AnchorPoint: "Anchor-2" 0 0 basechar 0
LayerCount: 2
Fore
SplineSet
151.5 37.5 m 128,-1,1
 76 85 76 85 60 167 c 1,2,-1
 102 176 l 1,3,4
 118 106 118 106 181.5 67.5 c 128,-1,5
 245 29 245 29 329 29 c 0,6,7
 391 29 391 29 440 47.5 c 128,-1,8
 489 66 489 66 516 99.5 c 128,-1,9
 543 133 543 133 543 175 c 0,10,11
 543 234 543 234 511.5 271 c 128,-1,12
 480 308 480 308 411 325 c 2,13,-1
 250 365 l 2,14,15
 168 385 168 385 125.5 426.5 c 128,-1,16
 83 468 83 468 83 532 c 0,17,18
 83 589 83 589 113 634.5 c 128,-1,19
 143 680 143 680 198 706 c 128,-1,20
 253 732 253 732 325 732 c 0,21,22
 440 732 440 732 502 677 c 128,-1,23
 564 622 564 622 572 540 c 1,24,-1
 532 532 l 1,25,26
 518 615 518 615 461 653 c 128,-1,27
 404 691 404 691 323 691 c 0,28,29
 277 691 277 691 231.5 673.5 c 128,-1,30
 186 656 186 656 156 620.5 c 128,-1,31
 126 585 126 585 126 533 c 0,32,33
 126 484 126 484 160.5 451 c 128,-1,34
 195 418 195 418 277 397 c 2,35,-1
 431 357 l 2,36,37
 586 318 586 318 586 177 c 0,38,39
 586 125 586 125 557 82.5 c 128,-1,40
 528 40 528 40 470 15 c 128,-1,41
 412 -10 412 -10 329 -10 c 0,42,0
 227 -10 227 -10 151.5 37.5 c 128,-1,1
EndSplineSet
EndChar

StartChar: T
Encoding: 84 84 55
Width: 545
GlyphClass: 2
Flags: W
AnchorPoint: "Anchor-5" 0 0 basechar 0
AnchorPoint: "Anchor-4" 284 0 basechar 0
AnchorPoint: "Anchor-3" 284 723 basechar 0
AnchorPoint: "Anchor-2" 0 0 basechar 0
LayerCount: 2
Fore
SplineSet
15 723 m 1,0,-1
 530 723 l 1,1,-1
 530 683 l 1,2,-1
 302 683 l 1,3,-1
 302 0 l 1,4,-1
 263 0 l 1,5,-1
 263 683 l 1,6,-1
 15 683 l 1,7,-1
 15 723 l 1,0,-1
EndSplineSet
EndChar

StartChar: U
Encoding: 85 85 56
Width: 695
GlyphClass: 2
Flags: W
AnchorPoint: "Anchor-5" 0 0 basechar 0
AnchorPoint: "Anchor-4" 0 0 basechar 0
AnchorPoint: "Anchor-3" 350 723 basechar 0
AnchorPoint: "Anchor-2" 417 9 basechar 0
LayerCount: 2
Fore
SplineSet
527.5 48 m 128,-1,1
 468 -10 468 -10 347 -10 c 0,2,3
 224 -10 224 -10 166 50.5 c 128,-1,4
 108 111 108 111 108 239 c 2,5,-1
 108 723 l 1,6,-1
 151 723 l 1,7,-1
 151 222 l 2,8,9
 151 28 151 28 347 28 c 0,10,11
 548 28 548 28 548 222 c 2,12,-1
 548 723 l 1,13,-1
 587 723 l 1,14,-1
 587 224 l 2,15,0
 587 106 587 106 527.5 48 c 128,-1,1
EndSplineSet
EndChar

StartChar: V
Encoding: 86 86 57
Width: 605
GlyphClass: 2
Flags: W
LayerCount: 2
Fore
SplineSet
329 0 m 1,0,-1
 271 0 l 1,1,-1
 15 723 l 1,2,-1
 58 723 l 1,3,-1
 300 41 l 1,4,-1
 549 723 l 1,5,-1
 591 723 l 1,6,-1
 329 0 l 1,0,-1
EndSplineSet
EndChar

StartChar: W
Encoding: 87 87 58
Width: 942
GlyphClass: 2
Flags: W
AnchorPoint: "Anchor-5" 0 0 basechar 0
AnchorPoint: "Anchor-4" 0 0 basechar 0
AnchorPoint: "Anchor-3" 476 723 basechar 0
AnchorPoint: "Anchor-2" 0 0 basechar 0
LayerCount: 2
Fore
SplineSet
705 0 m 1,0,-1
 650 0 l 1,1,-1
 469 648 l 1,2,-1
 284 0 l 1,3,-1
 232 0 l 1,4,-1
 29 723 l 1,5,-1
 73 723 l 1,6,-1
 258 49 l 1,7,-1
 450 723 l 1,8,-1
 489 723 l 1,9,-1
 678 49 l 1,10,-1
 870 723 l 1,11,-1
 913 723 l 1,12,-1
 705 0 l 1,0,-1
EndSplineSet
EndChar

StartChar: X
Encoding: 88 88 59
Width: 610
GlyphClass: 2
Flags: W
LayerCount: 2
Fore
SplineSet
531 0 m 1,0,-1
 305 332 l 1,1,-1
 79 0 l 1,2,-1
 29 0 l 1,3,-1
 279 371 l 1,4,-1
 40 723 l 1,5,-1
 92 723 l 1,6,-1
 304 408 l 1,7,-1
 518 723 l 1,8,-1
 568 723 l 1,9,-1
 330 371 l 1,10,-1
 581 0 l 1,11,-1
 531 0 l 1,0,-1
EndSplineSet
EndChar

StartChar: Y
Encoding: 89 89 60
Width: 539
GlyphClass: 2
Flags: W
AnchorPoint: "Anchor-5" 0 0 basechar 0
AnchorPoint: "Anchor-4" 0 0 basechar 0
AnchorPoint: "Anchor-3" 266 723 basechar 0
AnchorPoint: "Anchor-2" 0 0 basechar 0
LayerCount: 2
Fore
SplineSet
291 311 m 1,0,-1
 291 0 l 1,1,-1
 252 0 l 1,2,-1
 252 312 l 1,3,-1
 10 723 l 1,4,-1
 54 723 l 1,5,-1
 272 351 l 1,6,-1
 486 723 l 1,7,-1
 529 723 l 1,8,-1
 291 311 l 1,0,-1
EndSplineSet
EndChar

StartChar: Z
Encoding: 90 90 61
Width: 588
GlyphClass: 2
Flags: W
AnchorPoint: "Anchor-5" 0 0 basechar 0
AnchorPoint: "Anchor-4" 306 0 basechar 0
AnchorPoint: "Anchor-3" 299 723 basechar 0
AnchorPoint: "Anchor-2" 0 0 basechar 0
LayerCount: 2
Fore
SplineSet
56 31 m 1,0,-1
 481 684 l 1,1,-1
 65 684 l 1,2,-1
 65 723 l 1,3,-1
 532 723 l 1,4,-1
 532 693 l 1,5,-1
 105 39 l 1,6,-1
 532 39 l 1,7,-1
 532 0 l 1,8,-1
 56 0 l 1,9,-1
 56 31 l 1,0,-1
EndSplineSet
EndChar

StartChar: bracketleft
Encoding: 91 91 62
Width: 270
GlyphClass: 2
Flags: W
LayerCount: 2
Fore
SplineSet
251 723 m 1,0,-1
 251 687 l 1,1,-1
 150 687 l 1,2,-1
 149 -125 l 1,3,-1
 250 -125 l 1,4,-1
 250 -161 l 1,5,-1
 108 -161 l 1,6,-1
 107 723 l 1,7,-1
 251 723 l 1,0,-1
EndSplineSet
EndChar

StartChar: backslash
Encoding: 92 92 63
Width: 320
GlyphClass: 2
Flags: W
LayerCount: 2
Fore
SplineSet
14 723 m 1,0,-1
 56 723 l 1,1,-1
 304 -59 l 1,2,-1
 261 -59 l 1,3,-1
 14 723 l 1,0,-1
EndSplineSet
EndChar

StartChar: bracketright
Encoding: 93 93 64
Width: 289
GlyphClass: 2
Flags: W
LayerCount: 2
Fore
SplineSet
24 723 m 1,0,-1
 24 687 l 1,1,-1
 125 687 l 1,2,-1
 126 -125 l 1,3,-1
 25 -125 l 1,4,-1
 25 -161 l 1,5,-1
 167 -161 l 1,6,-1
 168 723 l 1,7,-1
 24 723 l 1,0,-1
EndSplineSet
EndChar

StartChar: asciicircum
Encoding: 94 94 65
Width: 464
GlyphClass: 2
Flags: W
LayerCount: 2
Fore
SplineSet
231 463 m 1,0,-1
 101 136 l 1,1,-1
 56 136 l 1,2,-1
 198 491 l 2,3,4
 212 526 212 526 231 526 c 0,5,6
 251 526 251 526 264 491 c 2,7,-1
 408 134 l 1,8,-1
 360 134 l 1,9,-1
 231 463 l 1,0,-1
EndSplineSet
EndChar

StartChar: underscore
Encoding: 95 95 66
Width: 488
GlyphClass: 2
Flags: W
LayerCount: 2
Fore
SplineSet
420 -98 m 1,0,-1
 68 -99 l 1,1,-1
 68 -60 l 1,2,-1
 420 -59 l 1,3,-1
 420 -98 l 1,0,-1
EndSplineSet
EndChar

StartChar: grave
Encoding: 96 96 67
Width: 265
GlyphClass: 2
Flags: W
LayerCount: 2
Fore
SplineSet
257 639 m 1,0,-1
 247 608 l 1,1,-1
 8 686 l 1,2,-1
 22 731 l 1,3,-1
 257 639 l 1,0,-1
EndSplineSet
EndChar

StartChar: a
Encoding: 97 97 68
Width: 549
GlyphClass: 2
Flags: W
AnchorPoint: "Anchor-5" 0 0 basechar 0
AnchorPoint: "Anchor-4" 0 0 basechar 0
AnchorPoint: "Anchor-3" 273 517 basechar 0
AnchorPoint: "Anchor-2" 453 14 basechar 0
LayerCount: 2
Fore
SplineSet
104.5 28 m 128,-1,1
 60 66 60 66 60 132 c 0,2,3
 60 190 60 190 84 224 c 128,-1,4
 108 258 108 258 160 275.5 c 128,-1,5
 212 293 212 293 301 300 c 2,6,-1
 420 310 l 1,7,-1
 420 354 l 2,8,9
 420 416 420 416 380.5 452.5 c 128,-1,10
 341 489 341 489 275 489 c 0,11,12
 175 489 175 489 106 393 c 1,13,-1
 73 413 l 1,14,15
 107 465 107 465 158 496 c 128,-1,16
 209 527 209 527 277 527 c 0,17,18
 360 527 360 527 409.5 481.5 c 128,-1,19
 459 436 459 436 459 358 c 2,20,-1
 459 0 l 1,21,-1
 423 0 l 1,22,-1
 421 80 l 1,23,24
 337 -10 337 -10 226 -10 c 0,25,0
 149 -10 149 -10 104.5 28 c 128,-1,1
318.5 47.5 m 128,-1,27
 363 68 363 68 391.5 100.5 c 128,-1,28
 420 133 420 133 420 167 c 2,29,-1
 420 274 l 1,30,-1
 320 266 l 2,31,32
 235 260 235 260 188.5 246.5 c 128,-1,33
 142 233 142 233 121.5 207 c 128,-1,34
 101 181 101 181 101 135 c 0,35,36
 101 85 101 85 136.5 56 c 128,-1,37
 172 27 172 27 232 27 c 0,38,26
 274 27 274 27 318.5 47.5 c 128,-1,27
EndSplineSet
Substitution2: "Single Substitution lookup 30 subtable" ordfeminine
Substitution2: "'aalt' Access All Alternates in Latin lookup 0 subtable" ordfeminine
EndChar

StartChar: b
Encoding: 98 98 69
Width: 581
GlyphClass: 2
Flags: W
LayerCount: 2
Fore
SplineSet
187.5 20 m 128,-1,1
 145 50 145 50 129 78 c 1,2,-1
 125 0 l 1,3,-1
 90 0 l 1,4,-1
 90 743 l 1,5,-1
 129 743 l 1,6,-1
 129 449 l 1,7,8
 152 475 152 475 195.5 501 c 128,-1,9
 239 527 239 527 309 527 c 0,10,11
 415 527 415 527 468 452.5 c 128,-1,12
 521 378 521 378 521 260 c 0,13,14
 521 135 521 135 462 62.5 c 128,-1,15
 403 -10 403 -10 298 -10 c 0,16,0
 230 -10 230 -10 187.5 20 c 128,-1,1
427 86 m 128,-1,18
 479 145 479 145 479 260 c 0,19,20
 479 366 479 366 433 427.5 c 128,-1,21
 387 489 387 489 302 489 c 0,22,23
 251 489 251 489 205.5 465.5 c 128,-1,24
 160 442 160 442 129 405 c 1,25,-1
 129 173 l 2,26,27
 129 135 129 135 153 101 c 128,-1,28
 177 67 177 67 215.5 47 c 128,-1,29
 254 27 254 27 294 27 c 0,30,17
 375 27 375 27 427 86 c 128,-1,18
EndSplineSet
EndChar

StartChar: c
Encoding: 99 99 70
Width: 538
GlyphClass: 2
Flags: W
AnchorPoint: "Anchor-5" 0 0 basechar 0
AnchorPoint: "Anchor-4" 285 0 basechar 0
AnchorPoint: "Anchor-3" 283 517 basechar 0
AnchorPoint: "Anchor-2" 0 0 basechar 0
LayerCount: 2
Fore
SplineSet
389.5 499 m 128,-1,1
 433 471 433 471 470 415 c 1,2,-1
 437 394 l 1,3,4
 393 448 393 448 363 468.5 c 128,-1,5
 333 489 333 489 289 489 c 0,6,7
 203 489 203 489 152 425.5 c 128,-1,8
 101 362 101 362 101 258 c 0,9,10
 101 153 101 153 151 90 c 128,-1,11
 201 27 201 27 288 27 c 0,12,13
 339 27 339 27 375 52 c 128,-1,14
 411 77 411 77 445 132 c 1,15,-1
 478 110 l 1,16,17
 442 49 442 49 394.5 19.5 c 128,-1,18
 347 -10 347 -10 284 -10 c 0,19,20
 215 -10 215 -10 164.5 23.5 c 128,-1,21
 114 57 114 57 87 117 c 128,-1,22
 60 177 60 177 60 256 c 0,23,24
 60 336 60 336 87 397 c 128,-1,25
 114 458 114 458 164.5 492.5 c 128,-1,26
 215 527 215 527 284 527 c 0,27,0
 346 527 346 527 389.5 499 c 128,-1,1
EndSplineSet
EndChar

StartChar: d
Encoding: 100 100 71
Width: 568
GlyphClass: 2
Flags: W
AnchorPoint: "Anchor-5" 601 723 basechar 0
AnchorPoint: "Anchor-4" 284 0 basechar 0
AnchorPoint: "Anchor-3" 0 0 basechar 0
AnchorPoint: "Anchor-2" 0 0 basechar 0
LayerCount: 2
Fore
SplineSet
116.5 56.5 m 128,-1,1
 60 123 60 123 60 249 c 128,-1,2
 60 375 60 375 118.5 451 c 128,-1,3
 177 527 177 527 282 527 c 0,4,5
 326 527 326 527 362 511.5 c 128,-1,6
 398 496 398 496 439 463 c 1,7,-1
 439 743 l 1,8,-1
 478 743 l 1,9,-1
 478 0 l 1,10,-1
 441 0 l 1,11,-1
 441 77 l 1,12,13
 421 55 421 55 403 38.5 c 128,-1,14
 385 22 385 22 350.5 6 c 128,-1,15
 316 -10 316 -10 270 -10 c 0,16,0
 173 -10 173 -10 116.5 56.5 c 128,-1,1
357.5 49 m 128,-1,18
 395 71 395 71 417 103.5 c 128,-1,19
 439 136 439 136 439 166 c 2,20,-1
 439 415 l 1,21,22
 402 452 402 452 364 470.5 c 128,-1,23
 326 489 326 489 283 489 c 0,24,25
 197 489 197 489 149 426.5 c 128,-1,26
 101 364 101 364 101 253 c 0,27,28
 101 141 101 141 149 84 c 128,-1,29
 197 27 197 27 275 27 c 0,30,17
 320 27 320 27 357.5 49 c 128,-1,18
EndSplineSet
EndChar

StartChar: e
Encoding: 101 101 72
Width: 552
GlyphClass: 2
Flags: W
AnchorPoint: "Anchor-5" 0 0 basechar 0
AnchorPoint: "Anchor-4" 273 0 basechar 0
AnchorPoint: "Anchor-3" 282 517 basechar 0
AnchorPoint: "Anchor-2" 375 18 basechar 0
LayerCount: 2
Fore
SplineSet
150.5 91.5 m 128,-1,1
 199 29 199 29 292 29 c 0,2,3
 409 29 409 29 444 122 c 1,4,-1
 481 106 l 1,5,6
 461 51 461 51 411 20.5 c 128,-1,7
 361 -10 361 -10 292 -10 c 0,8,9
 224 -10 224 -10 171.5 21 c 128,-1,10
 119 52 119 52 89.5 111.5 c 128,-1,11
 60 171 60 171 60 254 c 0,12,13
 60 383 60 383 118.5 455 c 128,-1,14
 177 527 177 527 282 527 c 0,15,16
 381 527 381 527 436.5 461.5 c 128,-1,17
 492 396 492 396 492 277 c 2,18,-1
 492 248 l 1,19,-1
 102 248 l 1,20,0
 102 154 102 154 150.5 91.5 c 128,-1,1
451 287 m 1,21,22
 451 377 451 377 408 432.5 c 128,-1,23
 365 488 365 488 281 488 c 0,24,25
 221 488 221 488 181 459 c 128,-1,26
 141 430 141 430 121.5 384 c 128,-1,27
 102 338 102 338 103 287 c 1,28,-1
 451 287 l 1,21,22
EndSplineSet
EndChar

StartChar: f
Encoding: 102 102 73
Width: 377
GlyphClass: 2
Flags: W
LayerCount: 2
Fore
SplineSet
338 483 m 1,0,-1
 196 483 l 1,1,-1
 196 0 l 1,2,-1
 157 0 l 1,3,-1
 157 483 l 1,4,-1
 34 483 l 1,5,-1
 34 517 l 1,6,-1
 157 517 l 1,7,-1
 157 603 l 2,8,9
 157 664 157 664 183 693.5 c 128,-1,10
 209 723 209 723 267 723 c 2,11,-1
 343 723 l 1,12,-1
 343 689 l 1,13,-1
 257 689 l 2,14,15
 223 689 223 689 209.5 670 c 128,-1,16
 196 651 196 651 196 611 c 2,17,-1
 196 517 l 1,18,-1
 338 517 l 1,19,-1
 338 483 l 1,0,-1
EndSplineSet
EndChar

StartChar: g
Encoding: 103 103 74
Width: 579
GlyphClass: 2
Flags: W
AnchorPoint: "Anchor-5" 0 0 basechar 0
AnchorPoint: "Anchor-4" 0 0 basechar 0
AnchorPoint: "Anchor-3" 286 517 basechar 0
AnchorPoint: "Anchor-2" 0 0 basechar 0
LayerCount: 2
Fore
SplineSet
105 -133 m 128,-1,1
 44 -95 44 -95 44 -26 c 0,2,3
 44 16 44 16 68 43 c 128,-1,4
 92 70 92 70 113 83.5 c 128,-1,5
 134 97 134 97 139 101 c 1,6,7
 136 103 136 103 123 111 c 128,-1,8
 110 119 110 119 103 130 c 128,-1,9
 96 141 96 141 96 155 c 0,10,11
 96 176 96 176 116 193.5 c 128,-1,12
 136 211 136 211 173 222 c 1,13,14
 124 248 124 248 104 279.5 c 128,-1,15
 84 311 84 311 84 360 c 0,16,17
 84 437 84 437 138 481 c 128,-1,18
 192 525 192 525 289 525 c 0,19,20
 336 525 336 525 370.5 513 c 128,-1,21
 405 501 405 501 436 476 c 1,22,-1
 492 500 l 1,23,-1
 548 524 l 1,24,-1
 548 466 l 1,25,-1
 456 446 l 1,26,27
 465 430 465 430 472 404.5 c 128,-1,28
 479 379 479 379 479 360 c 0,29,30
 479 291 479 291 429.5 247.5 c 128,-1,31
 380 204 380 204 282 204 c 2,32,-1
 271 204 l 2,33,34
 200 203 200 203 168.5 189 c 128,-1,35
 137 175 137 175 137 156 c 0,36,37
 137 140 137 140 159.5 132.5 c 128,-1,38
 182 125 182 125 244 120 c 2,39,-1
 361 113 l 2,40,41
 511 104 511 104 511 -19 c 0,42,43
 511 -92 511 -92 450 -131.5 c 128,-1,44
 389 -171 389 -171 278 -171 c 0,45,0
 166 -171 166 -171 105 -133 c 128,-1,1
440 362 m 0,46,47
 440 423 440 423 400 455.5 c 128,-1,48
 360 488 360 488 283 488 c 0,49,50
 207 488 207 488 165 455 c 128,-1,51
 123 422 123 422 123 362 c 0,52,53
 123 303 123 303 164 272 c 128,-1,54
 205 241 205 241 283 241 c 0,55,56
 440 241 440 241 440 362 c 0,46,47
470 -19 m 0,57,58
 470 23 470 23 444.5 46 c 128,-1,59
 419 69 419 69 360 73 c 2,60,-1
 188 84 l 2,61,62
 171 85 171 85 146.5 71 c 128,-1,63
 122 57 122 57 103.5 32.5 c 128,-1,64
 85 8 85 8 85 -22 c 0,65,66
 85 -76 85 -76 138 -105 c 128,-1,67
 191 -134 191 -134 287 -134 c 0,68,69
 470 -134 470 -134 470 -19 c 0,57,58
EndSplineSet
EndChar

StartChar: h
Encoding: 104 104 75
Width: 571
GlyphClass: 2
Flags: W
AnchorPoint: "Anchor-5" 0 0 basechar 0
AnchorPoint: "Anchor-4" 296 0 basechar 0
AnchorPoint: "Anchor-3" 318 517 basechar 0
AnchorPoint: "Anchor-2" 0 0 basechar 0
LayerCount: 2
Fore
SplineSet
90 743 m 1,0,-1
 126 743 l 1,1,-1
 126 440 l 1,2,3
 193 489 193 489 232.5 508 c 128,-1,4
 272 527 272 527 323 527 c 0,5,6
 399 527 399 527 440 488 c 128,-1,7
 481 449 481 449 481 383 c 2,8,-1
 481 0 l 1,9,-1
 442 0 l 1,10,-1
 442 368 l 2,11,12
 442 489 442 489 322 489 c 0,13,14
 273 489 273 489 234 469.5 c 128,-1,15
 195 450 195 450 129 400 c 1,16,-1
 129 0 l 1,17,-1
 90 0 l 1,18,-1
 90 743 l 1,0,-1
EndSplineSet
EndChar

StartChar: i
Encoding: 105 105 76
Width: 228
GlyphClass: 2
Flags: W
LayerCount: 2
Fore
SplineSet
138 647 m 1,0,-1
 90 647 l 1,1,-1
 90 743 l 1,2,-1
 138 743 l 1,3,-1
 138 647 l 1,0,-1
134 0 m 1,4,-1
 95 0 l 1,5,-1
 95 517 l 1,6,-1
 134 517 l 1,7,-1
 134 0 l 1,4,-1
EndSplineSet
Substitution2: "Single Substitution lookup 28 subtable" dotlessi
Substitution2: "'locl' Localized Forms in Latin lookup 10 subtable" i.loclTRK
Substitution2: "'locl' Localized Forms in Latin lookup 9 subtable" i.loclTRK
Substitution2: "'locl' Localized Forms in Latin lookup 8 subtable" i.loclTRK
Substitution2: "'locl' Localized Forms in Latin lookup 7 subtable" i.loclTRK
Substitution2: "'locl' Localized Forms in Latin lookup 6 subtable" i.loclTRK
AlternateSubs2: "'aalt' Access All Alternates in Latin lookup 1 subtable" dotlessi i.loclTRK
EndChar

StartChar: j
Encoding: 106 106 77
Width: 256
GlyphClass: 2
Flags: W
LayerCount: 2
Fore
SplineSet
154 647 m 1,0,-1
 105 647 l 1,1,-1
 105 743 l 1,2,-1
 154 743 l 1,3,-1
 154 647 l 1,0,-1
126 -139.5 m 128,-1,5
 103 -166 103 -166 39 -166 c 0,6,7
 3 -166 3 -166 -10.5 -162.5 c 128,-1,8
 -24 -159 -24 -159 -24 -157 c 2,9,-1
 -24 -131 l 1,10,-1
 38 -130 l 2,11,12
 77 -129 77 -129 93.5 -110 c 128,-1,13
 110 -91 110 -91 110 -45 c 2,14,-1
 110 517 l 1,15,-1
 149 517 l 1,16,-1
 149 -50 l 2,17,4
 149 -113 149 -113 126 -139.5 c 128,-1,5
EndSplineSet
Substitution2: "Single Substitution lookup 28 subtable" uni0237
Substitution2: "'aalt' Access All Alternates in Latin lookup 0 subtable" uni0237
EndChar

StartChar: k
Encoding: 107 107 78
Width: 538
GlyphClass: 2
Flags: W
AnchorPoint: "Anchor-5" 0 0 basechar 0
AnchorPoint: "Anchor-4" 267 0 basechar 0
AnchorPoint: "Anchor-3" 0 0 basechar 0
AnchorPoint: "Anchor-2" 0 0 basechar 0
LayerCount: 2
Fore
SplineSet
449 0 m 1,0,-1
 265 296 l 1,1,-1
 129 158 l 1,2,-1
 129 0 l 1,3,-1
 90 0 l 1,4,-1
 90 743 l 1,5,-1
 129 743 l 1,6,-1
 129 214 l 1,7,-1
 425 517 l 1,8,-1
 480 517 l 1,9,-1
 295 329 l 1,10,-1
 499 0 l 1,11,-1
 449 0 l 1,0,-1
EndSplineSet
EndChar

StartChar: l
Encoding: 108 108 79
Width: 264
GlyphClass: 2
Flags: W
AnchorPoint: "Anchor-5" 248 723 basechar 0
AnchorPoint: "Anchor-4" 106 0 basechar 0
AnchorPoint: "Anchor-3" 106 762 basechar 0
AnchorPoint: "Anchor-2" 0 0 basechar 0
LayerCount: 2
Fore
SplineSet
113.5 35 m 128,-1,1
 90 69 90 69 90 126 c 2,2,-1
 90 743 l 1,3,-1
 129 743 l 1,4,-1
 129 126 l 2,5,6
 129 79 129 79 146 56.5 c 128,-1,7
 163 34 163 34 187 34 c 2,8,-1
 219 34 l 1,9,-1
 219 5 l 1,10,11
 203 1 203 1 186 1 c 0,12,0
 137 1 137 1 113.5 35 c 128,-1,1
EndSplineSet
Substitution2: "'ss01' Style Set 1 in Latin lookup 27 subtable" l.ss01
Substitution2: "'salt' Stylistic Alternatives in Latin lookup 26 subtable" l.ss01
Substitution2: "'aalt' Access All Alternates in Latin lookup 0 subtable" l.ss01
EndChar

StartChar: m
Encoding: 109 109 80
Width: 884
GlyphClass: 2
Flags: W
LayerCount: 2
Fore
SplineSet
90 517 m 1,0,-1
 126 517 l 1,1,-1
 126 440 l 1,2,3
 147 478 147 478 187 502.5 c 128,-1,4
 227 527 227 527 283 527 c 0,5,6
 344 527 344 527 389 504.5 c 128,-1,7
 434 482 434 482 451 441 c 1,8,9
 500 527 500 527 615 527 c 0,10,11
 691 527 691 527 742.5 487 c 128,-1,12
 794 447 794 447 794 335 c 2,13,-1
 794 0 l 1,14,-1
 755 0 l 1,15,-1
 755 335 l 2,16,17
 755 422 755 422 718 455.5 c 128,-1,18
 681 489 681 489 615 489 c 0,19,20
 552 489 552 489 506.5 459 c 128,-1,21
 461 429 461 429 461 360 c 2,22,-1
 461 0 l 1,23,-1
 422 0 l 1,24,-1
 422 376 l 2,25,26
 422 431 422 431 383 460 c 128,-1,27
 344 489 344 489 282 489 c 0,28,29
 246 489 246 489 211 475.5 c 128,-1,30
 176 462 176 462 152.5 433 c 128,-1,31
 129 404 129 404 129 360 c 2,32,-1
 129 0 l 1,33,-1
 90 0 l 1,34,-1
 90 517 l 1,0,-1
EndSplineSet
EndChar

StartChar: n
Encoding: 110 110 81
Width: 571
GlyphClass: 2
Flags: W
AnchorPoint: "Anchor-5" 0 0 basechar 0
AnchorPoint: "Anchor-4" 287 0 basechar 0
AnchorPoint: "Anchor-3" 296 517 basechar 0
AnchorPoint: "Anchor-2" 0 0 basechar 0
LayerCount: 2
Fore
SplineSet
90 517 m 1,0,-1
 126 517 l 1,1,-1
 126 440 l 1,2,3
 147 478 147 478 193 502.5 c 128,-1,4
 239 527 239 527 300 527 c 0,5,6
 381 527 381 527 431 478.5 c 128,-1,7
 481 430 481 430 481 335 c 2,8,-1
 481 0 l 1,9,-1
 442 0 l 1,10,-1
 442 335 l 2,11,12
 442 409 442 409 404.5 449 c 128,-1,13
 367 489 367 489 300 489 c 0,14,15
 226 489 226 489 177.5 456 c 128,-1,16
 129 423 129 423 129 360 c 2,17,-1
 129 0 l 1,18,-1
 90 0 l 1,19,-1
 90 517 l 1,0,-1
EndSplineSet
EndChar

StartChar: o
Encoding: 111 111 82
Width: 565
GlyphClass: 2
Flags: W
AnchorPoint: "Anchor-5" 0 0 basechar 0
AnchorPoint: "Anchor-4" 282 0 basechar 0
AnchorPoint: "Anchor-3" 285 517 basechar 0
AnchorPoint: "Anchor-2" 345 10 basechar 0
LayerCount: 2
Fore
SplineSet
118.5 62.5 m 128,-1,1
 60 135 60 135 60 255 c 0,2,3
 60 335 60 335 86.5 396.5 c 128,-1,4
 113 458 113 458 163.5 492.5 c 128,-1,5
 214 527 214 527 284 527 c 0,6,7
 353 527 353 527 403 493 c 128,-1,8
 453 459 453 459 479 397.5 c 128,-1,9
 505 336 505 336 505 257 c 0,10,11
 505 136 505 136 446.5 63 c 128,-1,12
 388 -10 388 -10 283 -10 c 0,13,0
 177 -10 177 -10 118.5 62.5 c 128,-1,1
418.5 88.5 m 128,-1,15
 464 150 464 150 464 257 c 128,-1,16
 464 364 464 364 417.5 426.5 c 128,-1,17
 371 489 371 489 284 489 c 0,18,19
 196 489 196 489 148.5 426 c 128,-1,20
 101 363 101 363 101 257 c 0,21,22
 101 152 101 152 148.5 89.5 c 128,-1,23
 196 27 196 27 285 27 c 0,24,14
 373 27 373 27 418.5 88.5 c 128,-1,15
EndSplineSet
Substitution2: "Single Substitution lookup 30 subtable" ordmasculine
Substitution2: "'aalt' Access All Alternates in Latin lookup 0 subtable" ordmasculine
EndChar

StartChar: p
Encoding: 112 112 83
Width: 580
GlyphClass: 2
Flags: W
LayerCount: 2
Fore
SplineSet
90 517 m 1,0,-1
 127 517 l 1,1,-1
 127 440 l 2,2,3
 129 442 129 442 148 466 c 128,-1,4
 167 490 167 490 207.5 508.5 c 128,-1,5
 248 527 248 527 297 527 c 0,6,7
 361 527 361 527 411.5 497.5 c 128,-1,8
 462 468 462 468 491 410 c 128,-1,9
 520 352 520 352 520 268 c 0,10,11
 520 186 520 186 491.5 123 c 128,-1,12
 463 60 463 60 410 25 c 128,-1,13
 357 -10 357 -10 286 -10 c 0,14,15
 241 -10 241 -10 204 4 c 128,-1,16
 167 18 167 18 129 50 c 1,17,-1
 129 -161 l 1,18,-1
 90 -161 l 1,19,-1
 90 517 l 1,0,-1
385 55.5 m 128,-1,21
 429 84 429 84 454 138 c 128,-1,22
 479 192 479 192 479 264 c 0,23,24
 479 338 479 338 453.5 389 c 128,-1,25
 428 440 428 440 385.5 464.5 c 128,-1,26
 343 489 343 489 292 489 c 0,27,28
 246 489 246 489 208.5 468.5 c 128,-1,29
 171 448 171 448 150 416.5 c 128,-1,30
 129 385 129 385 129 355 c 2,31,-1
 129 101 l 1,32,33
 167 65 167 65 204.5 46 c 128,-1,34
 242 27 242 27 285 27 c 0,35,20
 341 27 341 27 385 55.5 c 128,-1,21
EndSplineSet
EndChar

StartChar: q
Encoding: 113 113 84
Width: 580
GlyphClass: 2
Flags: W
LayerCount: 2
Fore
SplineSet
451 -161 m 1,0,-1
 451 50 l 1,1,2
 412 18 412 18 375 4 c 128,-1,3
 338 -10 338 -10 294 -10 c 0,4,5
 223 -10 223 -10 170 24.5 c 128,-1,6
 117 59 117 59 88.5 122 c 128,-1,7
 60 185 60 185 60 268 c 0,8,9
 60 352 60 352 89 410.5 c 128,-1,10
 118 469 118 469 168 498 c 128,-1,11
 218 527 218 527 282 527 c 0,12,13
 331 527 331 527 366 511 c 128,-1,14
 401 495 401 495 413 483.5 c 128,-1,15
 425 472 425 472 453 440 c 1,16,-1
 453 517 l 1,17,-1
 490 517 l 1,18,-1
 490 -161 l 1,19,-1
 451 -161 l 1,0,-1
374.5 46 m 128,-1,21
 412 65 412 65 451 101 c 1,22,-1
 451 355 l 2,23,24
 451 385 451 385 429.5 416 c 128,-1,25
 408 447 408 447 370.5 468 c 128,-1,26
 333 489 333 489 287 489 c 0,27,28
 236 489 236 489 194 464.5 c 128,-1,29
 152 440 152 440 126.5 389 c 128,-1,30
 101 338 101 338 101 264 c 0,31,32
 101 192 101 192 126 138 c 128,-1,33
 151 84 151 84 195 55.5 c 128,-1,34
 239 27 239 27 295 27 c 0,35,20
 337 27 337 27 374.5 46 c 128,-1,21
EndSplineSet
EndChar

StartChar: r
Encoding: 114 114 85
Width: 357
GlyphClass: 2
Flags: W
AnchorPoint: "Anchor-5" 0 0 basechar 0
AnchorPoint: "Anchor-4" 109 0 basechar 0
AnchorPoint: "Anchor-3" 199 517 basechar 0
AnchorPoint: "Anchor-2" 0 0 basechar 0
LayerCount: 2
Fore
SplineSet
90 517 m 1,0,-1
 126 517 l 1,1,-1
 126 424 l 1,2,3
 155 468 155 468 213 497.5 c 128,-1,4
 271 527 271 527 323 527 c 1,5,-1
 323 487 l 1,6,7
 280 487 280 487 234.5 465.5 c 128,-1,8
 189 444 189 444 159 409.5 c 128,-1,9
 129 375 129 375 129 342 c 2,10,-1
 129 0 l 1,11,-1
 90 0 l 1,12,-1
 90 517 l 1,0,-1
EndSplineSet
EndChar

StartChar: s
Encoding: 115 115 86
Width: 497
GlyphClass: 2
Flags: W
AnchorPoint: "Anchor-5" 0 0 basechar 0
AnchorPoint: "Anchor-4" 244 0 basechar 0
AnchorPoint: "Anchor-3" 236 517 basechar 0
AnchorPoint: "Anchor-2" 0 0 basechar 0
LayerCount: 2
Fore
SplineSet
116.5 27 m 128,-1,1
 67 64 67 64 54 123 c 1,2,-1
 91 138 l 1,3,4
 122 27 122 27 245 27 c 0,5,6
 309 27 309 27 355.5 56 c 128,-1,7
 402 85 402 85 402 134 c 0,8,9
 402 211 402 211 316 232 c 2,10,-1
 196 260 l 2,11,12
 131 276 131 276 102.5 306.5 c 128,-1,13
 74 337 74 337 74 382 c 0,14,15
 74 452 74 452 122 489.5 c 128,-1,16
 170 527 170 527 251 527 c 0,17,18
 336 527 336 527 382 487.5 c 128,-1,19
 428 448 428 448 433 388 c 1,20,-1
 395 379 l 1,21,22
 384 436 384 436 346 462.5 c 128,-1,23
 308 489 308 489 250 489 c 0,24,25
 194 489 194 489 154.5 464 c 128,-1,26
 115 439 115 439 115 382 c 0,27,28
 115 353 115 353 134.5 332 c 128,-1,29
 154 311 154 311 207 297 c 2,30,-1
 330 265 l 2,31,32
 389 250 389 250 416 215.5 c 128,-1,33
 443 181 443 181 443 134 c 0,34,35
 443 94 443 94 418.5 61 c 128,-1,36
 394 28 394 28 349 9 c 128,-1,37
 304 -10 304 -10 245 -10 c 0,38,0
 166 -10 166 -10 116.5 27 c 128,-1,1
EndSplineSet
EndChar

StartChar: t
Encoding: 116 116 87
Width: 361
GlyphClass: 2
Flags: W
AnchorPoint: "Anchor-5" 358 736 basechar 0
AnchorPoint: "Anchor-4" 256 0 basechar 0
AnchorPoint: "Anchor-3" 0 0 basechar 0
AnchorPoint: "Anchor-2" 0 0 basechar 0
LayerCount: 2
Fore
SplineSet
179 483 m 1,0,-1
 179 121 l 2,1,2
 179 70 179 70 193 52 c 128,-1,3
 207 34 207 34 239 34 c 2,4,-1
 305 34 l 1,5,-1
 305 5 l 1,6,7
 289 0 289 0 242 0 c 0,8,9
 184 0 184 0 162 26.5 c 128,-1,10
 140 53 140 53 140 116 c 2,11,-1
 140 483 l 1,12,-1
 56 483 l 1,13,-1
 56 517 l 1,14,-1
 140 517 l 1,15,-1
 140 692 l 1,16,-1
 179 692 l 1,17,-1
 179 517 l 1,18,-1
 298 517 l 1,19,-1
 298 483 l 1,20,-1
 179 483 l 1,0,-1
EndSplineSet
EndChar

StartChar: u
Encoding: 117 117 88
Width: 571
GlyphClass: 2
Flags: W
AnchorPoint: "Anchor-5" 0 0 basechar 0
AnchorPoint: "Anchor-4" 284 0 basechar 0
AnchorPoint: "Anchor-3" 273 517 basechar 0
AnchorPoint: "Anchor-2" 472 11 basechar 0
LayerCount: 2
Fore
SplineSet
194 8.5 m 128,-1,1
 149 26 149 26 119.5 67 c 128,-1,2
 90 108 90 108 90 174 c 2,3,-1
 90 519 l 1,4,-1
 129 519 l 1,5,-1
 129 174 l 2,6,7
 129 97 129 97 176 63 c 128,-1,8
 223 29 223 29 282 29 c 0,9,10
 324 29 324 29 360 46 c 128,-1,11
 396 63 396 63 419 97.5 c 128,-1,12
 442 132 442 132 442 182 c 2,13,-1
 442 519 l 1,14,-1
 481 519 l 1,15,-1
 481 1 l 1,16,-1
 445 1 l 1,17,-1
 445 86 l 1,18,19
 437 64 437 64 413 42 c 128,-1,20
 389 20 389 20 356 5.5 c 128,-1,21
 323 -9 323 -9 287 -9 c 0,22,0
 239 -9 239 -9 194 8.5 c 128,-1,1
EndSplineSet
EndChar

StartChar: v
Encoding: 118 118 89
Width: 513
GlyphClass: 2
Flags: W
LayerCount: 2
Fore
SplineSet
278 0 m 1,0,-1
 235 0 l 1,1,-1
 26 517 l 1,2,-1
 68 517 l 1,3,-1
 257 48 l 1,4,-1
 447 517 l 1,5,-1
 486 517 l 1,6,-1
 278 0 l 1,0,-1
EndSplineSet
EndChar

StartChar: w
Encoding: 119 119 90
Width: 758
GlyphClass: 2
Flags: W
AnchorPoint: "Anchor-5" 0 0 basechar 0
AnchorPoint: "Anchor-4" 0 0 basechar 0
AnchorPoint: "Anchor-3" 383 517 basechar 0
AnchorPoint: "Anchor-2" 0 0 basechar 0
LayerCount: 2
Fore
SplineSet
578 0 m 1,0,-1
 524 0 l 1,1,-1
 379 450 l 1,2,-1
 245 0 l 1,3,-1
 189 0 l 1,4,-1
 31 517 l 1,5,-1
 73 517 l 1,6,-1
 217 43 l 1,7,-1
 361 517 l 1,8,-1
 397 517 l 1,9,-1
 549 45 l 1,10,-1
 686 517 l 1,11,-1
 727 517 l 1,12,-1
 578 0 l 1,0,-1
EndSplineSet
EndChar

StartChar: x
Encoding: 120 120 91
Width: 501
GlyphClass: 2
Flags: W
LayerCount: 2
Fore
SplineSet
427 0 m 1,0,-1
 250 237 l 1,1,-1
 74 0 l 1,2,-1
 25 0 l 1,3,-1
 225 268 l 1,4,-1
 40 517 l 1,5,-1
 89 517 l 1,6,-1
 250 299 l 1,7,-1
 412 517 l 1,8,-1
 461 517 l 1,9,-1
 276 268 l 1,10,-1
 476 0 l 1,11,-1
 427 0 l 1,0,-1
EndSplineSet
EndChar

StartChar: y
Encoding: 121 121 92
Width: 491
GlyphClass: 2
Flags: W
AnchorPoint: "Anchor-5" 0 0 basechar 0
AnchorPoint: "Anchor-4" 0 0 basechar 0
AnchorPoint: "Anchor-3" 248 517 basechar 0
AnchorPoint: "Anchor-2" 0 0 basechar 0
LayerCount: 2
Fore
SplineSet
57.5 -161.5 m 128,-1,1
 42 -158 42 -158 42 -157 c 2,2,-1
 42 -130 l 1,3,-1
 97 -130 l 2,4,5
 142 -130 142 -130 165.5 -113 c 128,-1,6
 189 -96 189 -96 202 -66 c 2,7,-1
 228 3 l 1,8,-1
 26 517 l 1,9,-1
 68 517 l 1,10,-1
 249 56 l 1,11,-1
 427 517 l 1,12,-1
 465 517 l 1,13,-1
 239 -75 l 2,14,15
 203 -165 203 -165 104 -165 c 0,16,0
 73 -165 73 -165 57.5 -161.5 c 128,-1,1
EndSplineSet
EndChar

StartChar: z
Encoding: 122 122 93
Width: 467
GlyphClass: 2
Flags: W
AnchorPoint: "Anchor-5" 0 0 basechar 0
AnchorPoint: "Anchor-4" 0 0 basechar 0
AnchorPoint: "Anchor-3" 252 517 basechar 0
AnchorPoint: "Anchor-2" 0 0 basechar 0
LayerCount: 2
Fore
SplineSet
49 38 m 1,0,-1
 375 483 l 1,1,-1
 70 483 l 1,2,-1
 70 517 l 1,3,-1
 416 517 l 1,4,-1
 416 476 l 1,5,-1
 92 34 l 1,6,-1
 423 34 l 1,7,-1
 423 0 l 1,8,-1
 49 0 l 1,9,-1
 49 38 l 1,0,-1
EndSplineSet
EndChar

StartChar: braceleft
Encoding: 123 123 94
Width: 270
GlyphClass: 2
Flags: W
LayerCount: 2
Fore
SplineSet
144.5 699 m 128,-1,1
 171 723 171 723 223 723 c 2,2,-1
 251 723 l 1,3,-1
 251 687 l 1,4,-1
 223 687 l 2,5,6
 189 687 189 687 175 675 c 128,-1,7
 161 663 161 663 161 636 c 2,8,-1
 161 409 l 2,9,10
 161 352 161 352 135.5 320.5 c 128,-1,11
 110 289 110 289 69 285 c 0,12,13
 63 284 63 284 62.5 281.5 c 128,-1,14
 62 279 62 279 69 278 c 0,15,16
 110 275 110 275 135.5 245 c 128,-1,17
 161 215 161 215 161 158 c 2,18,-1
 161 -71 l 2,19,20
 161 -100 161 -100 174.5 -112.5 c 128,-1,21
 188 -125 188 -125 224 -125 c 2,22,-1
 251 -125 l 1,23,-1
 251 -161 l 1,24,-1
 224 -161 l 2,25,26
 169 -161 169 -161 143.5 -136.5 c 128,-1,27
 118 -112 118 -112 118 -71 c 2,28,-1
 118 158 l 2,29,30
 118 183 118 183 105 207 c 128,-1,31
 92 231 92 231 66 246.5 c 128,-1,32
 40 262 40 262 5 262 c 1,33,-1
 5 300 l 1,34,35
 60 301 60 301 89 331.5 c 128,-1,36
 118 362 118 362 118 409 c 2,37,-1
 118 636 l 2,38,0
 118 675 118 675 144.5 699 c 128,-1,1
EndSplineSet
EndChar

StartChar: bar
Encoding: 124 124 95
Width: 254
GlyphClass: 2
Flags: W
LayerCount: 2
Fore
SplineSet
109 -161 m 1,0,-1
 108 826 l 1,1,-1
 146 826 l 1,2,-1
 146 -161 l 1,3,-1
 109 -161 l 1,0,-1
EndSplineSet
EndChar

StartChar: braceright
Encoding: 125 125 96
Width: 285
GlyphClass: 2
Flags: W
LayerCount: 2
Fore
SplineSet
130.5 699 m 128,-1,1
 104 723 104 723 52 723 c 2,2,-1
 24 723 l 1,3,-1
 24 687 l 1,4,-1
 52 687 l 2,5,6
 86 687 86 687 100 675 c 128,-1,7
 114 663 114 663 114 636 c 2,8,-1
 114 409 l 2,9,10
 114 352 114 352 139.5 320.5 c 128,-1,11
 165 289 165 289 206 285 c 0,12,13
 212 284 212 284 212.5 281.5 c 128,-1,14
 213 279 213 279 206 278 c 0,15,16
 165 275 165 275 139.5 245 c 128,-1,17
 114 215 114 215 114 158 c 2,18,-1
 114 -71 l 2,19,20
 114 -100 114 -100 100.5 -112.5 c 128,-1,21
 87 -125 87 -125 51 -125 c 2,22,-1
 24 -125 l 1,23,-1
 24 -161 l 1,24,-1
 51 -161 l 2,25,26
 106 -161 106 -161 131.5 -136.5 c 128,-1,27
 157 -112 157 -112 157 -71 c 2,28,-1
 157 158 l 2,29,30
 157 183 157 183 170 207 c 128,-1,31
 183 231 183 231 209 246.5 c 128,-1,32
 235 262 235 262 270 262 c 1,33,-1
 270 300 l 1,34,35
 215 301 215 301 186 331.5 c 128,-1,36
 157 362 157 362 157 409 c 2,37,-1
 157 636 l 2,38,0
 157 675 157 675 130.5 699 c 128,-1,1
EndSplineSet
EndChar

StartChar: asciitilde
Encoding: 126 126 97
Width: 528
GlyphClass: 2
Flags: W
LayerCount: 2
Fore
SplineSet
426 339.5 m 128,-1,1
 399 327 399 327 358 327 c 0,2,3
 331 327 331 327 309.5 332.5 c 128,-1,4
 288 338 288 338 262 349 c 0,5,6
 238 359 238 359 218.5 364.5 c 128,-1,7
 199 370 199 370 177 370 c 0,8,9
 117 370 117 370 74 327 c 1,10,-1
 62 359 l 1,11,12
 87 381 87 381 112 393.5 c 128,-1,13
 137 406 137 406 174 406 c 0,14,15
 197 406 197 406 217.5 400.5 c 128,-1,16
 238 395 238 395 267 384 c 128,-1,17
 296 373 296 373 316 367.5 c 128,-1,18
 336 362 336 362 359 362 c 0,19,20
 394 362 394 362 414.5 373 c 128,-1,21
 435 384 435 384 453 403 c 1,22,-1
 466 369 l 1,23,0
 453 352 453 352 426 339.5 c 128,-1,1
EndSplineSet
EndChar

StartChar: exclamdown
Encoding: 161 161 99
Width: 226
GlyphClass: 2
Flags: W
LayerCount: 2
Fore
SplineSet
83 440 m 1,0,-1
 83 517 l 1,1,-1
 143 517 l 1,2,-1
 143 440 l 1,3,-1
 83 440 l 1,0,-1
88 -161 m 1,4,-1
 97 372 l 1,5,-1
 129 372 l 1,6,-1
 139 -161 l 1,7,-1
 88 -161 l 1,4,-1
EndSplineSet
EndChar

StartChar: cent
Encoding: 162 162 100
Width: 528
GlyphClass: 2
Flags: W
AnchorPoint: "Anchor-1" 284 628 basechar 0
AnchorPoint: "Anchor-0" 286 111 basechar 0
LayerCount: 2
Fore
SplineSet
400 133.5 m 128,-1,1
 356 104 356 104 297 101 c 1,2,-1
 297 0 l 1,3,-1
 257 0 l 1,4,-1
 257 103 l 1,5,6
 166 113 166 113 113.5 184.5 c 128,-1,7
 61 256 61 256 61 367 c 0,8,9
 61 479 61 479 113.5 552.5 c 128,-1,10
 166 626 166 626 257 636 c 1,11,-1
 257 723 l 1,12,-1
 297 723 l 1,13,-1
 297 638 l 1,14,15
 354 635 354 635 395 607 c 128,-1,16
 436 579 436 579 471 526 c 1,17,-1
 438 505 l 1,18,19
 394 559 394 559 364 579.5 c 128,-1,20
 334 600 334 600 290 600 c 0,21,22
 204 600 204 600 153 536.5 c 128,-1,23
 102 473 102 473 102 369 c 0,24,25
 102 264 102 264 152 201 c 128,-1,26
 202 138 202 138 289 138 c 0,27,28
 340 138 340 138 376 163 c 128,-1,29
 412 188 412 188 446 243 c 1,30,-1
 479 221 l 1,31,0
 444 163 444 163 400 133.5 c 128,-1,1
EndSplineSet
EndChar

StartChar: sterling
Encoding: 163 163 101
Width: 582
GlyphClass: 2
Flags: W
LayerCount: 2
Fore
SplineSet
12 38 m 1,0,-1
 53 38 l 2,1,2
 94 38 94 38 121 81.5 c 128,-1,3
 148 125 148 125 148 209 c 0,4,5
 148 270 148 270 135 349 c 1,6,-1
 35 349 l 1,7,-1
 35 386 l 1,8,-1
 130 386 l 1,9,-1
 110 461 l 2,10,11
 100 498 100 498 100 535 c 0,12,13
 100 595 100 595 126.5 640 c 128,-1,14
 153 685 153 685 197.5 709 c 128,-1,15
 242 733 242 733 294 733 c 0,16,17
 333 733 333 733 370 719.5 c 128,-1,18
 407 706 407 706 433 684 c 128,-1,19
 459 662 459 662 469 639 c 1,20,-1
 432 620 l 1,21,22
 413 655 413 655 380.5 673 c 128,-1,23
 348 691 348 691 296 691 c 0,24,25
 230 691 230 691 185.5 654 c 128,-1,26
 141 617 141 617 141 553 c 0,27,28
 141 517 141 517 149.5 471 c 128,-1,29
 158 425 158 425 171 387 c 1,30,-1
 347 387 l 1,31,-1
 347 350 l 1,32,-1
 176 350 l 1,33,34
 190 281 190 281 190 226 c 0,35,36
 190 152 190 152 171.5 107.5 c 128,-1,37
 153 63 153 63 132 39 c 1,38,-1
 345 39 l 2,39,40
 401 39 401 39 436.5 58 c 128,-1,41
 472 77 472 77 489 122 c 1,42,-1
 525 107 l 1,43,44
 503 54 503 54 457 27 c 128,-1,45
 411 0 411 0 345 0 c 2,46,-1
 12 0 l 1,47,-1
 12 38 l 1,0,-1
EndSplineSet
EndChar

StartChar: currency
Encoding: 164 164 102
Width: 500
GlyphClass: 2
Flags: W
LayerCount: 2
Fore
SplineSet
153 229 m 0,0,1
 146 234 146 234 141 228 c 2,2,-1
 93 178 l 1,3,-1
 65 209 l 1,4,-1
 118 261 l 1,5,6
 85 306 85 306 85 364 c 0,7,8
 85 418 85 418 115 459 c 0,9,10
 119 466 119 466 114 471 c 2,11,-1
 66 520 l 1,12,-1
 95 548 l 1,13,-1
 148 493 l 1,14,15
 168 509 168 509 194.5 518 c 128,-1,16
 221 527 221 527 249 527 c 0,17,18
 303 527 303 527 342 497 c 0,19,20
 350 493 350 493 355 498 c 2,21,-1
 407 550 l 1,22,-1
 435 521 l 1,23,-1
 378 464 l 1,24,25
 412 419 412 419 412 364 c 128,-1,26
 412 309 412 309 383 271 c 0,27,28
 378 263 378 263 384 257 c 2,29,-1
 436 208 l 1,30,-1
 408 179 l 1,31,-1
 351 235 l 1,32,33
 304 199 304 199 249 199 c 0,34,35
 196 199 196 199 153 229 c 0,0,1
312.5 259 m 128,-1,37
 340 276 340 276 356 304 c 128,-1,38
 372 332 372 332 372 364 c 128,-1,39
 372 396 372 396 356 424 c 128,-1,40
 340 452 340 452 312.5 469 c 128,-1,41
 285 486 285 486 251 486 c 128,-1,42
 217 486 217 486 189 469 c 128,-1,43
 161 452 161 452 145 424 c 128,-1,44
 129 396 129 396 129 364 c 128,-1,45
 129 332 129 332 145 304 c 128,-1,46
 161 276 161 276 189 259 c 128,-1,47
 217 242 217 242 251 242 c 128,-1,36
 285 242 285 242 312.5 259 c 128,-1,37
EndSplineSet
EndChar

StartChar: yen
Encoding: 165 165 103
Width: 563
GlyphClass: 2
Flags: W
LayerCount: 2
Fore
SplineSet
313 329 m 1,0,-1
 463 329 l 1,1,-1
 463 292 l 1,2,-1
 307 292 l 1,3,-1
 307 192 l 1,4,-1
 463 192 l 1,5,-1
 463 155 l 1,6,-1
 307 155 l 1,7,-1
 307 0 l 1,8,-1
 262 0 l 1,9,-1
 262 154 l 1,10,-1
 106 154 l 1,11,-1
 106 191 l 1,12,-1
 262 191 l 1,13,-1
 262 291 l 1,14,-1
 106 291 l 1,15,-1
 106 328 l 1,16,-1
 247 328 l 1,17,-1
 15 723 l 1,18,-1
 66 723 l 1,19,-1
 284 351 l 1,20,-1
 504 723 l 1,21,-1
 549 723 l 1,22,-1
 313 329 l 1,0,-1
EndSplineSet
EndChar

StartChar: brokenbar
Encoding: 166 166 104
Width: 254
GlyphClass: 2
Flags: W
LayerCount: 2
Fore
SplineSet
109 432 m 1,0,-1
 108 826 l 1,1,-1
 146 826 l 1,2,-1
 146 432 l 1,3,-1
 109 432 l 1,0,-1
109 -161 m 1,4,-1
 108 233 l 1,5,-1
 146 233 l 1,6,-1
 146 -161 l 1,7,-1
 109 -161 l 1,4,-1
EndSplineSet
EndChar

StartChar: section
Encoding: 167 167 105
Width: 465
GlyphClass: 2
Flags: W
LayerCount: 2
Fore
SplineSet
126 -34.5 m 128,-1,1
 70 -3 70 -3 43 49 c 1,2,-1
 75 69 l 1,3,4
 100 25 100 25 146 -1 c 128,-1,5
 192 -27 192 -27 247 -27 c 0,6,7
 305 -27 305 -27 341.5 -3.5 c 128,-1,8
 378 20 378 20 378 62 c 0,9,10
 378 94 378 94 352.5 121 c 128,-1,11
 327 148 327 148 263 174 c 2,12,-1
 168 211 l 2,13,14
 57 254 57 254 57 344 c 0,15,16
 57 389 57 389 87 422.5 c 128,-1,17
 117 456 117 456 165 473 c 1,18,19
 102 504 102 504 79.5 536 c 128,-1,20
 57 568 57 568 57 607 c 0,21,22
 57 643 57 643 79 671.5 c 128,-1,23
 101 700 101 700 140 716.5 c 128,-1,24
 179 733 179 733 230 733 c 0,25,26
 286 733 286 733 332 706.5 c 128,-1,27
 378 680 378 680 407 639 c 1,28,-1
 374 618 l 1,29,30
 348 653 348 653 312.5 673.5 c 128,-1,31
 277 694 277 694 235 694 c 0,32,33
 171 694 171 694 135 671 c 128,-1,34
 99 648 99 648 99 609 c 0,35,36
 99 580 99 580 120.5 555 c 128,-1,37
 142 530 142 530 198 507 c 2,38,-1
 286 471 l 2,39,40
 357 441 357 441 389 402.5 c 128,-1,41
 421 364 421 364 421 316 c 0,42,43
 421 269 421 269 394.5 240 c 128,-1,44
 368 211 368 211 324 190 c 1,45,46
 372 163 372 163 396.5 132 c 128,-1,47
 421 101 421 101 421 62 c 0,48,49
 421 26 421 26 398.5 -3.5 c 128,-1,50
 376 -33 376 -33 335.5 -49.5 c 128,-1,51
 295 -66 295 -66 244 -66 c 0,52,0
 182 -66 182 -66 126 -34.5 c 128,-1,1
319 226.5 m 128,-1,54
 345 239 345 239 361 261.5 c 128,-1,55
 377 284 377 284 377 310 c 0,56,57
 377 351 377 351 358 377 c 128,-1,58
 339 403 339 403 283 426 c 2,59,-1
 219 451 l 1,60,61
 188 449 188 449 160.5 433.5 c 128,-1,62
 133 418 133 418 116 394.5 c 128,-1,63
 99 371 99 371 99 347 c 0,64,65
 99 314 99 314 119 292 c 128,-1,66
 139 270 139 270 196 246 c 2,67,-1
 265 216 l 1,68,53
 293 214 293 214 319 226.5 c 128,-1,54
EndSplineSet
EndChar

StartChar: dieresis
Encoding: 168 168 106
Width: 176
GlyphClass: 2
Flags: W
LayerCount: 2
Fore
SplineSet
58 628 m 1,0,-1
 10 628 l 1,1,-1
 10 723 l 1,2,-1
 58 723 l 1,3,-1
 58 628 l 1,0,-1
167 628 m 1,4,-1
 118 628 l 1,5,-1
 118 723 l 1,6,-1
 167 723 l 1,7,-1
 167 628 l 1,4,-1
EndSplineSet
EndChar

StartChar: copyright
Encoding: 169 169 107
Width: 809
GlyphClass: 2
Flags: W
LayerCount: 2
Fore
SplineSet
218.5 39.5 m 128,-1,1
 133 89 133 89 83 174.5 c 128,-1,2
 33 260 33 260 33 362 c 0,3,4
 33 462 33 462 83 547.5 c 128,-1,5
 133 633 133 633 218.5 683 c 128,-1,6
 304 733 304 733 405 733 c 0,7,8
 505 733 505 733 590.5 683 c 128,-1,9
 676 633 676 633 726 547.5 c 128,-1,10
 776 462 776 462 776 362 c 0,11,12
 776 260 776 260 726 175 c 128,-1,13
 676 90 676 90 591 40 c 128,-1,14
 506 -10 506 -10 405 -10 c 128,-1,0
 304 -10 304 -10 218.5 39.5 c 128,-1,1
567 74 m 128,-1,16
 642 115 642 115 687 190 c 128,-1,17
 732 265 732 265 732 362 c 0,18,19
 732 457 732 457 687 532.5 c 128,-1,20
 642 608 642 608 566.5 649.5 c 128,-1,21
 491 691 491 691 405 691 c 0,22,23
 316 691 316 691 241 649.5 c 128,-1,24
 166 608 166 608 121.5 533 c 128,-1,25
 77 458 77 458 77 362 c 0,26,27
 77 265 77 265 121.5 190 c 128,-1,28
 166 115 166 115 241 74 c 128,-1,29
 316 33 316 33 405 33 c 0,30,15
 492 33 492 33 567 74 c 128,-1,16
494 550.5 m 128,-1,32
 532 526 532 526 563 482 c 1,33,-1
 527 461 l 1,34,35
 479 537 479 537 410 537 c 0,36,37
 347 537 347 537 306.5 489.5 c 128,-1,38
 266 442 266 442 266 366 c 0,39,40
 266 289 266 289 306 241 c 128,-1,41
 346 193 346 193 409 193 c 0,42,43
 449 193 449 193 482 215 c 128,-1,44
 515 237 515 237 535 275 c 1,45,-1
 566 256 l 1,46,47
 537 208 537 208 496 181.5 c 128,-1,48
 455 155 455 155 407 155 c 0,49,50
 353 155 353 155 311 181 c 128,-1,51
 269 207 269 207 246 254.5 c 128,-1,52
 223 302 223 302 223 364 c 0,53,54
 223 425 223 425 246.5 473 c 128,-1,55
 270 521 270 521 312 548 c 128,-1,56
 354 575 354 575 407 575 c 0,57,31
 456 575 456 575 494 550.5 c 128,-1,32
EndSplineSet
EndChar

StartChar: ordfeminine
Encoding: 170 170 108
Width: 421
GlyphClass: 2
Flags: W
LayerCount: 2
Fore
SplineSet
89 418.5 m 128,-1,1
 60 442 60 442 60 484 c 0,2,3
 60 575 60 575 215 590 c 2,4,-1
 286 597 l 1,5,-1
 286 622 l 2,6,7
 286 697 286 697 196 697 c 0,8,9
 163 697 163 697 141 685.5 c 128,-1,10
 119 674 119 674 99 644 c 1,11,-1
 68 657 l 1,12,13
 85 692 85 692 119.5 711 c 128,-1,14
 154 730 154 730 200 730 c 0,15,16
 257 730 257 730 289 700 c 128,-1,17
 321 670 321 670 321 618 c 2,18,-1
 321 508 l 2,19,20
 321 476 321 476 325 443 c 2,21,-1
 331 401 l 1,22,-1
 293 401 l 1,23,-1
 285 451 l 1,24,25
 258 422 258 422 230.5 408.5 c 128,-1,26
 203 395 203 395 169 395 c 0,27,0
 118 395 118 395 89 418.5 c 128,-1,1
256 457 m 0,28,29
 286 484 286 484 286 508 c 2,30,-1
 286 566 l 1,31,-1
 227 561 l 2,32,33
 98 551 98 551 98 485 c 0,34,35
 98 458 98 458 120 442 c 128,-1,36
 142 426 142 426 177 426 c 0,37,38
 222 426 222 426 256 457 c 0,28,29
EndSplineSet
EndChar

StartChar: guillemotleft
Encoding: 171 171 109
Width: 410
GlyphClass: 2
Flags: W
LayerCount: 2
Fore
SplineSet
201 76 m 1,0,-1
 174 76 l 1,1,-1
 31 251 l 1,2,-1
 175 434 l 1,3,-1
 203 434 l 1,4,-1
 83 251 l 1,5,-1
 201 76 l 1,0,-1
364 76 m 1,6,-1
 337 76 l 1,7,-1
 194 251 l 1,8,-1
 338 434 l 1,9,-1
 366 434 l 1,10,-1
 246 251 l 1,11,-1
 364 76 l 1,6,-1
EndSplineSet
EndChar

StartChar: logicalnot
Encoding: 172 172 110
Width: 527
GlyphClass: 2
Flags: W
LayerCount: 2
Fore
SplineSet
459 382 m 1,0,-1
 459 209 l 1,1,-1
 423 209 l 1,2,-1
 422 345 l 1,3,-1
 68 344 l 1,4,-1
 68 381 l 1,5,-1
 459 382 l 1,0,-1
EndSplineSet
EndChar

StartChar: uni00AD
Encoding: 173 173 111
Width: 356
GlyphClass: 2
Flags: W
LayerCount: 2
Fore
SplineSet
301 240 m 1,0,-1
 66 239 l 1,1,-1
 66 278 l 1,2,-1
 301 279 l 1,3,-1
 301 240 l 1,0,-1
EndSplineSet
EndChar

StartChar: registered
Encoding: 174 174 112
Width: 531
GlyphClass: 2
Flags: W
LayerCount: 2
Fore
SplineSet
148.5 299 m 128,-1,1
 95 330 95 330 64 383 c 128,-1,2
 33 436 33 436 33 500 c 128,-1,3
 33 564 33 564 64 617 c 128,-1,4
 95 670 95 670 148.5 701.5 c 128,-1,5
 202 733 202 733 266 733 c 0,6,7
 329 733 329 733 382.5 701.5 c 128,-1,8
 436 670 436 670 467 616.5 c 128,-1,9
 498 563 498 563 498 500 c 128,-1,10
 498 437 498 437 467 383.5 c 128,-1,11
 436 330 436 330 382.5 299 c 128,-1,12
 329 268 329 268 266 268 c 0,13,0
 202 268 202 268 148.5 299 c 128,-1,1
368 326.5 m 128,-1,15
 413 351 413 351 438 396 c 128,-1,16
 463 441 463 441 463 500 c 128,-1,17
 463 559 463 559 438 604 c 128,-1,18
 413 649 413 649 368 674 c 128,-1,19
 323 699 323 699 266 699 c 0,20,21
 208 699 208 699 163 674.5 c 128,-1,22
 118 650 118 650 93 604.5 c 128,-1,23
 68 559 68 559 68 500 c 0,24,25
 68 410 68 410 123 356 c 128,-1,26
 178 302 178 302 266 302 c 0,27,14
 323 302 323 302 368 326.5 c 128,-1,15
181 614 m 1,28,-1
 281 614 l 2,29,30
 316 614 316 614 334.5 600 c 128,-1,31
 353 586 353 586 353 558 c 0,32,33
 353 513 353 513 303 496 c 1,34,-1
 347 383 l 1,35,-1
 316 383 l 1,36,-1
 274 494 l 1,37,-1
 210 494 l 1,38,-1
 210 383 l 1,39,-1
 181 383 l 1,40,-1
 181 614 l 1,28,-1
274 522 m 2,41,42
 323 522 323 522 323 554 c 0,43,44
 323 587 323 587 271 587 c 2,45,-1
 210 587 l 1,46,-1
 210 522 l 1,47,-1
 274 522 l 2,41,42
EndSplineSet
EndChar

StartChar: macron
Encoding: 175 175 113
Width: 265
GlyphClass: 2
Flags: W
LayerCount: 2
Fore
SplineSet
255 667 m 1,0,-1
 10 667 l 1,1,-1
 10 704 l 1,2,-1
 255 704 l 1,3,-1
 255 667 l 1,0,-1
EndSplineSet
EndChar

StartChar: degree
Encoding: 176 176 114
Width: 452
GlyphClass: 2
Flags: W
LayerCount: 2
Fore
SplineSet
330.5 585 m 128,-1,1
 289 544 289 544 226 544 c 0,2,3
 162 544 162 544 121 585 c 128,-1,4
 80 626 80 626 80 690 c 128,-1,5
 80 754 80 754 121 795.5 c 128,-1,6
 162 837 162 837 226 837 c 0,7,8
 289 837 289 837 330.5 795.5 c 128,-1,9
 372 754 372 754 372 690 c 128,-1,0
 372 626 372 626 330.5 585 c 128,-1,1
301.5 768.5 m 128,-1,11
 273 799 273 799 224 799 c 0,12,13
 177 799 177 799 148 769 c 128,-1,14
 119 739 119 739 119 691 c 0,15,16
 119 641 119 641 147.5 610 c 128,-1,17
 176 579 176 579 225 579 c 0,18,19
 273 579 273 579 301.5 609.5 c 128,-1,20
 330 640 330 640 330 689 c 128,-1,10
 330 738 330 738 301.5 768.5 c 128,-1,11
EndSplineSet
EndChar

StartChar: plusminus
Encoding: 177 177 115
Width: 527
GlyphClass: 2
Flags: W
LayerCount: 2
Fore
SplineSet
459 450 m 1,0,-1
 459 413 l 1,1,-1
 282 413 l 1,2,-1
 282 236 l 1,3,-1
 246 236 l 1,4,-1
 246 412 l 1,5,-1
 68 412 l 1,6,-1
 68 449 l 1,7,-1
 245 449 l 1,8,-1
 245 627 l 1,9,-1
 282 627 l 1,10,-1
 282 450 l 1,11,-1
 459 450 l 1,0,-1
68 118 m 1,12,-1
 459 119 l 1,13,-1
 459 82 l 1,14,-1
 68 81 l 1,15,-1
 68 118 l 1,12,-1
EndSplineSet
EndChar

StartChar: uni00B2
Encoding: 178 178 116
Width: 370
GlyphClass: 2
Flags: W
LayerCount: 2
Fore
SplineSet
17 415 m 1,0,-1
 168 570 l 2,1,2
 219 623 219 623 240 655.5 c 128,-1,3
 261 688 261 688 261 724 c 0,4,5
 261 772 261 772 228.5 795.5 c 128,-1,6
 196 819 196 819 156 819 c 0,7,8
 121 819 121 819 89 803.5 c 128,-1,9
 57 788 57 788 36 756 c 1,10,-1
 17 773 l 1,11,12
 65 845 65 845 158 845 c 0,13,14
 213 845 213 845 250 814 c 128,-1,15
 287 783 287 783 287 726 c 0,16,17
 287 685 287 685 264 648 c 128,-1,18
 241 611 241 611 181 549 c 2,19,-1
 44 410 l 1,20,-1
 292 410 l 1,21,-1
 292 384 l 1,22,-1
 17 384 l 1,23,-1
 17 415 l 1,0,-1
EndSplineSet
EndChar

StartChar: uni00B3
Encoding: 179 179 117
Width: 385
GlyphClass: 2
Flags: W
LayerCount: 2
Fore
SplineSet
107 828.5 m 128,-1,1
 144 845 144 845 183 845 c 0,2,3
 247 845 247 845 286 812.5 c 128,-1,4
 325 780 325 780 325 732 c 0,5,6
 325 657 325 657 235 626 c 1,7,8
 286 612 286 612 312.5 580.5 c 128,-1,9
 339 549 339 549 339 506 c 0,10,11
 339 451 339 451 296 414.5 c 128,-1,12
 253 378 253 378 175 378 c 0,13,14
 131 378 131 378 97 392 c 128,-1,15
 63 406 63 406 30 439 c 1,16,-1
 50 458 l 1,17,18
 77 428 77 428 108 415.5 c 128,-1,19
 139 403 139 403 178 403 c 0,20,21
 240 403 240 403 276 431.5 c 128,-1,22
 312 460 312 460 312 504 c 0,23,24
 312 554 312 554 271 582.5 c 128,-1,25
 230 611 230 611 176 611 c 2,26,-1
 115 611 l 1,27,-1
 115 636 l 1,28,-1
 166 636 l 2,29,30
 221 636 221 636 259.5 663.5 c 128,-1,31
 298 691 298 691 298 732 c 0,32,33
 298 770 298 770 266 794.5 c 128,-1,34
 234 819 234 819 184 819 c 0,35,36
 146 819 146 819 119 805.5 c 128,-1,37
 92 792 92 792 68 766 c 1,38,-1
 49 784 l 1,39,0
 70 812 70 812 107 828.5 c 128,-1,1
EndSplineSet
EndChar

StartChar: acute
Encoding: 180 180 118
Width: 265
GlyphClass: 2
Flags: W
LayerCount: 2
Fore
SplineSet
257 686 m 1,0,-1
 18 608 l 1,1,-1
 8 639 l 1,2,-1
 243 731 l 1,3,-1
 257 686 l 1,0,-1
EndSplineSet
EndChar

StartChar: paragraph
Encoding: 182 182 119
Width: 534
GlyphClass: 2
Flags: W
LayerCount: 2
Fore
SplineSet
385 692 m 1,0,-1
 385 -83 l 1,1,-1
 352 -83 l 1,2,-1
 352 692 l 1,3,-1
 309 692 l 1,4,-1
 309 -83 l 1,5,-1
 275 -83 l 1,6,-1
 275 296 l 1,7,8
 208 296 208 296 159 325 c 128,-1,9
 110 354 110 354 85 401 c 128,-1,10
 60 448 60 448 60 501 c 0,11,12
 60 558 60 558 85.5 609 c 128,-1,13
 111 660 111 660 162 691.5 c 128,-1,14
 213 723 213 723 286 723 c 2,15,-1
 444 723 l 1,16,-1
 444 692 l 1,17,-1
 385 692 l 1,0,-1
EndSplineSet
EndChar

StartChar: periodcentered
Encoding: 183 183 120
Width: 168
GlyphClass: 2
Flags: W
LayerCount: 2
Fore
SplineSet
124 326 m 1,0,-1
 44 326 l 1,1,-1
 44 403 l 1,2,-1
 124 403 l 1,3,-1
 124 326 l 1,0,-1
EndSplineSet
EndChar

StartChar: cedilla
Encoding: 184 184 121
Width: 191
GlyphClass: 2
Flags: W
LayerCount: 2
Fore
SplineSet
153.5 -180 m 128,-1,1
 126 -199 126 -199 84 -199 c 0,2,3
 41 -199 41 -199 9 -176 c 1,4,-1
 20 -148 l 1,5,6
 32 -159 32 -159 45.5 -164.5 c 128,-1,7
 59 -170 59 -170 80 -170 c 0,8,9
 138 -170 138 -170 138 -128 c 0,10,11
 138 -105 138 -105 120 -94 c 128,-1,12
 102 -83 102 -83 63 -81 c 0,13,14
 57 -81 57 -81 59 -77 c 2,15,-1
 95 5 l 1,16,-1
 128 5 l 1,17,-1
 103 -57 l 1,18,19
 145 -60 145 -60 163 -79.5 c 128,-1,20
 181 -99 181 -99 181 -126 c 0,21,0
 181 -161 181 -161 153.5 -180 c 128,-1,1
EndSplineSet
EndChar

StartChar: uni00B9
Encoding: 185 185 122
Width: 288
GlyphClass: 2
Flags: W
LayerCount: 2
Fore
SplineSet
96 801 m 1,0,-1
 1 763 l 1,1,-1
 1 788 l 1,2,-1
 96 835 l 1,3,-1
 123 835 l 1,4,-1
 123 380 l 1,5,-1
 96 380 l 1,6,-1
 96 801 l 1,0,-1
EndSplineSet
EndChar

StartChar: ordmasculine
Encoding: 186 186 123
Width: 419
GlyphClass: 2
Flags: W
LayerCount: 2
Fore
SplineSet
318.5 685.5 m 128,-1,1
 359 639 359 639 359 563 c 0,2,3
 359 488 359 488 319.5 442.5 c 128,-1,4
 280 397 280 397 209 397 c 128,-1,5
 138 397 138 397 99 442.5 c 128,-1,6
 60 488 60 488 60 563 c 0,7,8
 60 639 60 639 100.5 685.5 c 128,-1,9
 141 732 141 732 209 732 c 0,10,0
 278 732 278 732 318.5 685.5 c 128,-1,1
128 662 m 128,-1,12
 100 626 100 626 100 566 c 0,13,14
 100 502 100 502 128 465.5 c 128,-1,15
 156 429 156 429 209 429 c 128,-1,16
 262 429 262 429 290.5 466 c 128,-1,17
 319 503 319 503 319 566 c 0,18,19
 319 626 319 626 290.5 662 c 128,-1,20
 262 698 262 698 209 698 c 128,-1,11
 156 698 156 698 128 662 c 128,-1,12
EndSplineSet
EndChar

StartChar: guillemotright
Encoding: 187 187 124
Width: 409
GlyphClass: 2
Flags: W
LayerCount: 2
Fore
SplineSet
44 434 m 1,0,-1
 71 434 l 1,1,-1
 215 251 l 1,2,-1
 72 76 l 1,3,-1
 46 76 l 1,4,-1
 164 251 l 1,5,-1
 44 434 l 1,0,-1
207 434 m 1,6,-1
 234 434 l 1,7,-1
 378 251 l 1,8,-1
 235 76 l 1,9,-1
 209 76 l 1,10,-1
 327 251 l 1,11,-1
 207 434 l 1,6,-1
EndSplineSet
EndChar

StartChar: onequarter
Encoding: 188 188 125
Width: 935
GlyphClass: 2
Flags: W
LayerCount: 2
Fore
SplineSet
96 697 m 1,0,-1
 1 659 l 1,1,-1
 1 684 l 1,2,-1
 96 731 l 1,3,-1
 123 731 l 1,4,-1
 123 276 l 1,5,-1
 96 276 l 1,6,-1
 96 697 l 1,0,-1
186 -4 m 1,7,-1
 147 -4 l 1,8,-1
 635 731 l 1,9,-1
 672 731 l 1,10,-1
 186 -4 l 1,7,-1
803 455 m 1,11,-1
 803 157 l 1,12,-1
 876 157 l 1,13,-1
 876 131 l 1,14,-1
 803 131 l 1,15,-1
 803 0 l 1,16,-1
 779 0 l 1,17,-1
 779 131 l 1,18,-1
 560 131 l 1,19,-1
 560 162 l 1,20,-1
 776 455 l 1,21,-1
 803 455 l 1,11,-1
776 157 m 1,22,-1
 776 413 l 1,23,-1
 586 157 l 1,24,-1
 776 157 l 1,22,-1
EndSplineSet
EndChar

StartChar: onehalf
Encoding: 189 189 126
Width: 903
GlyphClass: 2
Flags: W
LayerCount: 2
Fore
SplineSet
96 697 m 1,0,-1
 1 659 l 1,1,-1
 1 684 l 1,2,-1
 96 731 l 1,3,-1
 123 731 l 1,4,-1
 123 276 l 1,5,-1
 96 276 l 1,6,-1
 96 697 l 1,0,-1
186 -4 m 1,7,-1
 147 -4 l 1,8,-1
 635 731 l 1,9,-1
 672 731 l 1,10,-1
 186 -4 l 1,7,-1
550 31 m 1,11,-1
 701 186 l 2,12,13
 751 238 751 238 772.5 271 c 128,-1,14
 794 304 794 304 794 340 c 0,15,16
 794 374 794 374 778 395 c 128,-1,17
 762 416 762 416 738 425.5 c 128,-1,18
 714 435 714 435 689 435 c 0,19,20
 653 435 653 435 621.5 419.5 c 128,-1,21
 590 404 590 404 569 372 c 1,22,-1
 550 389 l 1,23,24
 574 426 574 426 610 443.5 c 128,-1,25
 646 461 646 461 691 461 c 0,26,27
 727 461 727 461 756 447 c 128,-1,28
 785 433 785 433 802.5 406 c 128,-1,29
 820 379 820 379 820 341 c 0,30,31
 820 313 820 313 809.5 288 c 128,-1,32
 799 263 799 263 777 235 c 128,-1,33
 755 207 755 207 714 165 c 2,34,-1
 577 26 l 1,35,-1
 825 26 l 1,36,-1
 825 0 l 1,37,-1
 550 0 l 1,38,-1
 550 31 l 1,11,-1
EndSplineSet
EndChar

StartChar: threequarters
Encoding: 190 190 127
Width: 1032
GlyphClass: 2
Flags: W
LayerCount: 2
Fore
SplineSet
107 723.5 m 128,-1,1
 144 740 144 740 183 740 c 0,2,3
 247 740 247 740 286 707.5 c 128,-1,4
 325 675 325 675 325 627 c 0,5,6
 325 552 325 552 235 521 c 1,7,8
 286 507 286 507 312.5 475.5 c 128,-1,9
 339 444 339 444 339 401 c 0,10,11
 339 346 339 346 296 309.5 c 128,-1,12
 253 273 253 273 175 273 c 0,13,14
 131 273 131 273 97 287 c 128,-1,15
 63 301 63 301 30 334 c 1,16,-1
 50 353 l 1,17,18
 77 323 77 323 108 310.5 c 128,-1,19
 139 298 139 298 178 298 c 0,20,21
 240 298 240 298 276 326.5 c 128,-1,22
 312 355 312 355 312 399 c 0,23,24
 312 449 312 449 271 477.5 c 128,-1,25
 230 506 230 506 176 506 c 2,26,-1
 115 506 l 1,27,-1
 115 531 l 1,28,-1
 166 531 l 2,29,30
 221 531 221 531 259.5 558.5 c 128,-1,31
 298 586 298 586 298 627 c 0,32,33
 298 665 298 665 266 689.5 c 128,-1,34
 234 714 234 714 184 714 c 0,35,36
 146 714 146 714 119 700.5 c 128,-1,37
 92 687 92 687 68 661 c 1,38,-1
 49 679 l 1,39,0
 70 707 70 707 107 723.5 c 128,-1,1
283 -4 m 1,40,-1
 244 -4 l 1,41,-1
 732 731 l 1,42,-1
 769 731 l 1,43,-1
 283 -4 l 1,40,-1
900 455 m 1,44,-1
 900 157 l 1,45,-1
 973 157 l 1,46,-1
 973 131 l 1,47,-1
 900 131 l 1,48,-1
 900 0 l 1,49,-1
 876 0 l 1,50,-1
 876 131 l 1,51,-1
 657 131 l 1,52,-1
 657 162 l 1,53,-1
 873 455 l 1,54,-1
 900 455 l 1,44,-1
873 157 m 1,55,-1
 873 413 l 1,56,-1
 683 157 l 1,57,-1
 873 157 l 1,55,-1
EndSplineSet
EndChar

StartChar: questiondown
Encoding: 191 191 128
Width: 493
GlyphClass: 2
Flags: W
LayerCount: 2
Fore
SplineSet
225 517 m 1,0,-1
 286 517 l 1,1,-1
 286 440 l 1,2,-1
 225 440 l 1,3,-1
 225 517 l 1,0,-1
364.5 -137 m 128,-1,5
 305 -171 305 -171 235 -171 c 0,6,7
 141 -171 141 -171 85 -122.5 c 128,-1,8
 29 -74 29 -74 29 7 c 0,9,10
 29 45 29 45 42 74 c 128,-1,11
 55 103 55 103 74 124 c 128,-1,12
 93 145 93 145 127 175 c 0,13,14
 162 206 162 206 183.5 230.5 c 128,-1,15
 205 255 205 255 220 290 c 128,-1,16
 235 325 235 325 235 371 c 1,17,-1
 276 371 l 1,18,19
 276 319 276 319 260.5 281 c 128,-1,20
 245 243 245 243 222.5 217 c 128,-1,21
 200 191 200 191 164 158 c 0,22,23
 118 117 118 117 96 85.5 c 128,-1,24
 74 54 74 54 74 7 c 0,25,26
 74 -56 74 -56 117.5 -93 c 128,-1,27
 161 -130 161 -130 235 -130 c 0,28,29
 292 -130 292 -130 345 -99 c 128,-1,30
 398 -68 398 -68 415 -26 c 1,31,-1
 456 -46 l 1,32,4
 424 -103 424 -103 364.5 -137 c 128,-1,5
EndSplineSet
EndChar

StartChar: Agrave
Encoding: 192 192 129
Width: 684
GlyphClass: 2
Flags: W
AnchorPoint: "Anchor-5" 0 0 basechar 0
AnchorPoint: "Anchor-4" 0 0 basechar 0
AnchorPoint: "Anchor-3" 342 723 basechar 0
AnchorPoint: "Anchor-2" 624 11 basechar 0
LayerCount: 2
Fore
SplineSet
315 723 m 1,0,-1
 370 723 l 1,1,-1
 634 0 l 1,2,-1
 591 0 l 1,3,-1
 508 228 l 1,4,-1
 177 228 l 1,5,-1
 92 0 l 1,6,-1
 50 0 l 1,7,-1
 315 723 l 1,0,-1
493 271 m 1,8,-1
 343 681 l 1,9,-1
 191 271 l 1,10,-1
 493 271 l 1,8,-1
449 845 m 1,11,-1
 439 814 l 1,12,-1
 200 892 l 1,13,-1
 214 937 l 1,14,-1
 449 845 l 1,11,-1
EndSplineSet
EndChar

StartChar: Aacute
Encoding: 193 193 130
Width: 684
GlyphClass: 2
Flags: W
AnchorPoint: "Anchor-5" 0 0 basechar 0
AnchorPoint: "Anchor-4" 0 0 basechar 0
AnchorPoint: "Anchor-3" 342 723 basechar 0
AnchorPoint: "Anchor-2" 624 11 basechar 0
LayerCount: 2
Fore
SplineSet
315 723 m 1,0,-1
 370 723 l 1,1,-1
 634 0 l 1,2,-1
 591 0 l 1,3,-1
 508 228 l 1,4,-1
 177 228 l 1,5,-1
 92 0 l 1,6,-1
 50 0 l 1,7,-1
 315 723 l 1,0,-1
493 271 m 1,8,-1
 343 681 l 1,9,-1
 191 271 l 1,10,-1
 493 271 l 1,8,-1
466 892 m 1,11,-1
 227 814 l 1,12,-1
 217 845 l 1,13,-1
 452 937 l 1,14,-1
 466 892 l 1,11,-1
EndSplineSet
EndChar

StartChar: Acircumflex
Encoding: 194 194 131
Width: 684
GlyphClass: 2
Flags: W
AnchorPoint: "Anchor-5" 0 0 basechar 0
AnchorPoint: "Anchor-4" 0 0 basechar 0
AnchorPoint: "Anchor-3" 342 723 basechar 0
AnchorPoint: "Anchor-2" 624 11 basechar 0
LayerCount: 2
Fore
SplineSet
315 723 m 1,0,-1
 370 723 l 1,1,-1
 634 0 l 1,2,-1
 591 0 l 1,3,-1
 508 228 l 1,4,-1
 177 228 l 1,5,-1
 92 0 l 1,6,-1
 50 0 l 1,7,-1
 315 723 l 1,0,-1
493 271 m 1,8,-1
 343 681 l 1,9,-1
 191 271 l 1,10,-1
 493 271 l 1,8,-1
342 894 m 1,11,-1
 264 834 l 1,12,-1
 208 834 l 1,13,-1
 327 929 l 1,14,-1
 359 929 l 1,15,-1
 476 834 l 1,16,-1
 416 834 l 1,17,-1
 342 894 l 1,11,-1
EndSplineSet
EndChar

StartChar: Atilde
Encoding: 195 195 132
Width: 684
GlyphClass: 2
Flags: W
AnchorPoint: "Anchor-5" 0 0 basechar 0
AnchorPoint: "Anchor-4" 0 0 basechar 0
AnchorPoint: "Anchor-3" 342 723 basechar 0
AnchorPoint: "Anchor-2" 624 11 basechar 0
LayerCount: 2
Fore
SplineSet
315 723 m 1,0,-1
 370 723 l 1,1,-1
 634 0 l 1,2,-1
 591 0 l 1,3,-1
 508 228 l 1,4,-1
 177 228 l 1,5,-1
 92 0 l 1,6,-1
 50 0 l 1,7,-1
 315 723 l 1,0,-1
493 271 m 1,8,-1
 343 681 l 1,9,-1
 191 271 l 1,10,-1
 493 271 l 1,8,-1
436.5 867.5 m 128,-1,12
 422 862 422 862 399 862 c 0,13,14
 381 862 381 862 369 865 c 128,-1,15
 357 868 357 868 336 875 c 0,16,17
 308 886 308 886 288 886 c 0,18,19
 273 886 273 886 263 882 c 128,-1,20
 253 878 253 878 245 873 c 128,-1,21
 237 868 237 868 233 866 c 0,22,23
 228 864 228 864 226 864.5 c 128,-1,24
 224 865 224 865 223 870 c 2,25,-1
 216 886 l 2,26,27
 215 888 215 888 215.5 890 c 128,-1,28
 216 892 216 892 218 893 c 0,29,30
 236 906 236 906 250 912.5 c 128,-1,31
 264 919 264 919 284 919 c 0,32,33
 306 919 306 919 342 907 c 0,34,35
 375 894 375 894 400 894 c 0,36,37
 414 894 414 894 424 897.5 c 128,-1,38
 434 901 434 901 449 910 c 0,39,40
 454 913 454 913 456.5 912.5 c 128,-1,41
 459 912 459 912 461 907 c 2,42,-1
 469 889 l 2,43,44
 470 888 470 888 470 886 c 128,-1,45
 470 884 470 884 464 881 c 0,46,11
 451 873 451 873 436.5 867.5 c 128,-1,12
EndSplineSet
EndChar

StartChar: Adieresis
Encoding: 196 196 133
Width: 684
GlyphClass: 2
Flags: W
AnchorPoint: "Anchor-5" 0 0 basechar 0
AnchorPoint: "Anchor-4" 0 0 basechar 0
AnchorPoint: "Anchor-3" 342 723 basechar 0
AnchorPoint: "Anchor-2" 624 11 basechar 0
LayerCount: 2
Fore
SplineSet
315 723 m 1,0,-1
 370 723 l 1,1,-1
 634 0 l 1,2,-1
 591 0 l 1,3,-1
 508 228 l 1,4,-1
 177 228 l 1,5,-1
 92 0 l 1,6,-1
 50 0 l 1,7,-1
 315 723 l 1,0,-1
493 271 m 1,8,-1
 343 681 l 1,9,-1
 191 271 l 1,10,-1
 493 271 l 1,8,-1
311 834 m 1,11,-1
 263 834 l 1,12,-1
 263 929 l 1,13,-1
 311 929 l 1,14,-1
 311 834 l 1,11,-1
420 834 m 1,15,-1
 371 834 l 1,16,-1
 371 929 l 1,17,-1
 420 929 l 1,18,-1
 420 834 l 1,15,-1
EndSplineSet
EndChar

StartChar: Aring
Encoding: 197 197 134
Width: 684
GlyphClass: 2
Flags: W
AnchorPoint: "Anchor-5" 0 0 basechar 0
AnchorPoint: "Anchor-4" 0 0 basechar 0
AnchorPoint: "Anchor-3" 342 723 basechar 0
AnchorPoint: "Anchor-2" 624 11 basechar 0
LayerCount: 2
Fore
SplineSet
315 723 m 1,0,-1
 370 723 l 1,1,-1
 634 0 l 1,2,-1
 591 0 l 1,3,-1
 508 228 l 1,4,-1
 177 228 l 1,5,-1
 92 0 l 1,6,-1
 50 0 l 1,7,-1
 315 723 l 1,0,-1
493 271 m 1,8,-1
 343 681 l 1,9,-1
 191 271 l 1,10,-1
 493 271 l 1,8,-1
411.5 820 m 128,-1,12
 383 792 383 792 342 792 c 128,-1,13
 301 792 301 792 273 820.5 c 128,-1,14
 245 849 245 849 245 891 c 0,15,16
 245 930 245 930 273.5 957.5 c 128,-1,17
 302 985 302 985 342 985 c 0,18,19
 383 985 383 985 411.5 957 c 128,-1,20
 440 929 440 929 440 889 c 0,21,11
 440 848 440 848 411.5 820 c 128,-1,12
381.5 930 m 128,-1,23
 365 946 365 946 341 946 c 0,24,25
 318 946 318 946 301 930 c 128,-1,26
 284 914 284 914 284 889 c 0,27,28
 284 866 284 866 301 848.5 c 128,-1,29
 318 831 318 831 341 831 c 0,30,31
 365 831 365 831 381.5 848 c 128,-1,32
 398 865 398 865 398 889 c 0,33,22
 398 914 398 914 381.5 930 c 128,-1,23
EndSplineSet
EndChar

StartChar: AE
Encoding: 198 198 135
Width: 962
GlyphClass: 2
Flags: W
AnchorPoint: "Anchor-5" 0 0 basechar 0
AnchorPoint: "Anchor-4" 0 0 basechar 0
AnchorPoint: "Anchor-3" 667 723 basechar 0
AnchorPoint: "Anchor-2" 0 0 basechar 0
LayerCount: 2
Fore
SplineSet
891 0 m 1,0,-1
 486 0 l 1,1,-1
 486 232 l 1,2,-1
 225 232 l 1,3,-1
 92 0 l 1,4,-1
 50 0 l 1,5,-1
 463 723 l 1,6,-1
 877 723 l 1,7,-1
 877 684 l 1,8,-1
 530 684 l 1,9,-1
 530 385 l 1,10,-1
 808 385 l 1,11,-1
 808 346 l 1,12,-1
 530 346 l 1,13,-1
 530 39 l 1,14,-1
 891 39 l 1,15,-1
 891 0 l 1,0,-1
486 685 m 1,16,-1
 244 271 l 1,17,-1
 486 271 l 1,18,-1
 486 685 l 1,16,-1
EndSplineSet
EndChar

StartChar: Ccedilla
Encoding: 199 199 136
Width: 659
GlyphClass: 2
Flags: W
AnchorPoint: "Anchor-5" 0 0 basechar 0
AnchorPoint: "Anchor-4" 350 0 basechar 0
AnchorPoint: "Anchor-3" 350 723 basechar 0
AnchorPoint: "Anchor-2" 0 0 basechar 0
LayerCount: 2
Fore
SplineSet
469.5 706 m 128,-1,1
 526 679 526 679 559.5 634 c 128,-1,2
 593 589 593 589 599 536 c 1,3,-1
 556 529 l 1,4,5
 541 603 541 603 487 647.5 c 128,-1,6
 433 692 433 692 344 692 c 0,7,8
 225 692 225 692 164.5 607 c 128,-1,9
 104 522 104 522 104 359 c 0,10,11
 104 199 104 199 165.5 115 c 128,-1,12
 227 31 227 31 352 31 c 0,13,14
 427 31 427 31 481.5 71.5 c 128,-1,15
 536 112 536 112 553 184 c 1,16,-1
 595 173 l 1,17,18
 590 122 590 122 554 80 c 128,-1,19
 518 38 518 38 463.5 14 c 128,-1,20
 409 -10 409 -10 350 -10 c 0,21,22
 210 -10 210 -10 135 86 c 128,-1,23
 60 182 60 182 60 359 c 0,24,25
 60 537 60 537 133 635 c 128,-1,26
 206 733 206 733 342 733 c 0,27,0
 413 733 413 733 469.5 706 c 128,-1,1
393.5 -180 m 128,-1,29
 366 -199 366 -199 324 -199 c 0,30,31
 281 -199 281 -199 249 -176 c 1,32,-1
 260 -148 l 1,33,34
 272 -159 272 -159 285.5 -164.5 c 128,-1,35
 299 -170 299 -170 320 -170 c 0,36,37
 378 -170 378 -170 378 -128 c 0,38,39
 378 -105 378 -105 360 -94 c 128,-1,40
 342 -83 342 -83 303 -81 c 0,41,42
 297 -81 297 -81 299 -77 c 2,43,-1
 335 5 l 1,44,-1
 368 5 l 1,45,-1
 343 -57 l 1,46,47
 385 -60 385 -60 403 -79.5 c 128,-1,48
 421 -99 421 -99 421 -126 c 0,49,28
 421 -161 421 -161 393.5 -180 c 128,-1,29
EndSplineSet
EndChar

StartChar: Egrave
Encoding: 200 200 137
Width: 608
GlyphClass: 2
Flags: W
AnchorPoint: "Anchor-5" 0 0 basechar 0
AnchorPoint: "Anchor-4" 348 0 basechar 0
AnchorPoint: "Anchor-3" 330 723 basechar 0
AnchorPoint: "Anchor-2" 528 10 basechar 0
LayerCount: 2
Fore
SplineSet
108 723 m 1,0,-1
 523 723 l 1,1,-1
 523 683 l 1,2,-1
 147 683 l 1,3,-1
 147 386 l 1,4,-1
 497 386 l 1,5,-1
 497 345 l 1,6,-1
 147 345 l 1,7,-1
 147 42 l 1,8,-1
 537 41 l 1,9,-1
 537 0 l 1,10,-1
 108 0 l 1,11,-1
 108 723 l 1,0,-1
437 845 m 1,12,-1
 427 814 l 1,13,-1
 188 892 l 1,14,-1
 202 937 l 1,15,-1
 437 845 l 1,12,-1
EndSplineSet
EndChar

StartChar: Eacute
Encoding: 201 201 138
Width: 608
GlyphClass: 2
Flags: W
AnchorPoint: "Anchor-5" 0 0 basechar 0
AnchorPoint: "Anchor-4" 348 0 basechar 0
AnchorPoint: "Anchor-3" 330 723 basechar 0
AnchorPoint: "Anchor-2" 528 10 basechar 0
LayerCount: 2
Fore
SplineSet
108 723 m 1,0,-1
 523 723 l 1,1,-1
 523 683 l 1,2,-1
 147 683 l 1,3,-1
 147 386 l 1,4,-1
 497 386 l 1,5,-1
 497 345 l 1,6,-1
 147 345 l 1,7,-1
 147 42 l 1,8,-1
 537 41 l 1,9,-1
 537 0 l 1,10,-1
 108 0 l 1,11,-1
 108 723 l 1,0,-1
454 892 m 1,12,-1
 215 814 l 1,13,-1
 205 845 l 1,14,-1
 440 937 l 1,15,-1
 454 892 l 1,12,-1
EndSplineSet
EndChar

StartChar: Ecircumflex
Encoding: 202 202 139
Width: 608
GlyphClass: 2
Flags: W
AnchorPoint: "Anchor-5" 0 0 basechar 0
AnchorPoint: "Anchor-4" 348 0 basechar 0
AnchorPoint: "Anchor-3" 330 723 basechar 0
AnchorPoint: "Anchor-2" 528 10 basechar 0
LayerCount: 2
Fore
SplineSet
108 723 m 1,0,-1
 523 723 l 1,1,-1
 523 683 l 1,2,-1
 147 683 l 1,3,-1
 147 386 l 1,4,-1
 497 386 l 1,5,-1
 497 345 l 1,6,-1
 147 345 l 1,7,-1
 147 42 l 1,8,-1
 537 41 l 1,9,-1
 537 0 l 1,10,-1
 108 0 l 1,11,-1
 108 723 l 1,0,-1
330 894 m 1,12,-1
 252 834 l 1,13,-1
 196 834 l 1,14,-1
 315 929 l 1,15,-1
 347 929 l 1,16,-1
 464 834 l 1,17,-1
 404 834 l 1,18,-1
 330 894 l 1,12,-1
EndSplineSet
EndChar

StartChar: Edieresis
Encoding: 203 203 140
Width: 608
GlyphClass: 2
Flags: W
AnchorPoint: "Anchor-5" 0 0 basechar 0
AnchorPoint: "Anchor-4" 348 0 basechar 0
AnchorPoint: "Anchor-3" 330 723 basechar 0
AnchorPoint: "Anchor-2" 528 10 basechar 0
LayerCount: 2
Fore
SplineSet
108 723 m 1,0,-1
 523 723 l 1,1,-1
 523 683 l 1,2,-1
 147 683 l 1,3,-1
 147 386 l 1,4,-1
 497 386 l 1,5,-1
 497 345 l 1,6,-1
 147 345 l 1,7,-1
 147 42 l 1,8,-1
 537 41 l 1,9,-1
 537 0 l 1,10,-1
 108 0 l 1,11,-1
 108 723 l 1,0,-1
299 834 m 1,12,-1
 251 834 l 1,13,-1
 251 929 l 1,14,-1
 299 929 l 1,15,-1
 299 834 l 1,12,-1
408 834 m 1,16,-1
 359 834 l 1,17,-1
 359 929 l 1,18,-1
 408 929 l 1,19,-1
 408 834 l 1,16,-1
EndSplineSet
EndChar

StartChar: Igrave
Encoding: 204 204 141
Width: 255
GlyphClass: 2
Flags: W
AnchorPoint: "Anchor-5" 0 0 basechar 0
AnchorPoint: "Anchor-4" 129 0 basechar 0
AnchorPoint: "Anchor-3" 132 723 basechar 0
AnchorPoint: "Anchor-2" 140 10 basechar 0
LayerCount: 2
Fore
SplineSet
147 723 m 1,0,-1
 147 0 l 1,1,-1
 108 0 l 1,2,-1
 108 723 l 1,3,-1
 147 723 l 1,0,-1
239 845 m 1,4,-1
 229 814 l 1,5,-1
 -10 892 l 1,6,-1
 4 937 l 1,7,-1
 239 845 l 1,4,-1
EndSplineSet
EndChar

StartChar: Iacute
Encoding: 205 205 142
Width: 255
GlyphClass: 2
Flags: W
AnchorPoint: "Anchor-5" 0 0 basechar 0
AnchorPoint: "Anchor-4" 129 0 basechar 0
AnchorPoint: "Anchor-3" 132 723 basechar 0
AnchorPoint: "Anchor-2" 140 10 basechar 0
LayerCount: 2
Fore
SplineSet
147 723 m 1,0,-1
 147 0 l 1,1,-1
 108 0 l 1,2,-1
 108 723 l 1,3,-1
 147 723 l 1,0,-1
256 892 m 1,4,-1
 17 814 l 1,5,-1
 7 845 l 1,6,-1
 242 937 l 1,7,-1
 256 892 l 1,4,-1
EndSplineSet
EndChar

StartChar: Icircumflex
Encoding: 206 206 143
Width: 255
GlyphClass: 2
Flags: W
AnchorPoint: "Anchor-5" 0 0 basechar 0
AnchorPoint: "Anchor-4" 129 0 basechar 0
AnchorPoint: "Anchor-3" 132 723 basechar 0
AnchorPoint: "Anchor-2" 140 10 basechar 0
LayerCount: 2
Fore
SplineSet
147 723 m 1,0,-1
 147 0 l 1,1,-1
 108 0 l 1,2,-1
 108 723 l 1,3,-1
 147 723 l 1,0,-1
132 894 m 1,4,-1
 54 834 l 1,5,-1
 -2 834 l 1,6,-1
 117 929 l 1,7,-1
 149 929 l 1,8,-1
 266 834 l 1,9,-1
 206 834 l 1,10,-1
 132 894 l 1,4,-1
EndSplineSet
EndChar

StartChar: Idieresis
Encoding: 207 207 144
Width: 255
GlyphClass: 2
Flags: W
AnchorPoint: "Anchor-5" 0 0 basechar 0
AnchorPoint: "Anchor-4" 129 0 basechar 0
AnchorPoint: "Anchor-3" 132 723 basechar 0
AnchorPoint: "Anchor-2" 140 10 basechar 0
LayerCount: 2
Fore
SplineSet
147 723 m 1,0,-1
 147 0 l 1,1,-1
 108 0 l 1,2,-1
 108 723 l 1,3,-1
 147 723 l 1,0,-1
101 834 m 1,4,-1
 53 834 l 1,5,-1
 53 929 l 1,6,-1
 101 929 l 1,7,-1
 101 834 l 1,4,-1
210 834 m 1,8,-1
 161 834 l 1,9,-1
 161 929 l 1,10,-1
 210 929 l 1,11,-1
 210 834 l 1,8,-1
EndSplineSet
EndChar

StartChar: Eth
Encoding: 208 208 145
Width: 662
GlyphClass: 2
Flags: W
AnchorPoint: "Anchor-5" 0 0 basechar 0
AnchorPoint: "Anchor-4" 0 0 basechar 0
AnchorPoint: "Anchor-3" 321 723 basechar 0
AnchorPoint: "Anchor-2" 0 0 basechar 0
LayerCount: 2
Fore
SplineSet
514 635.5 m 128,-1,1
 603 550 603 550 603 367 c 0,2,3
 603 177 603 177 508 88.5 c 128,-1,4
 413 0 413 0 212 0 c 2,5,-1
 106 0 l 1,6,-1
 106 344 l 1,7,-1
 44 344 l 2,8,9
 38 344 38 344 36 346.5 c 128,-1,10
 34 349 34 349 34 354 c 2,11,-1
 34 376 l 2,12,13
 34 385 34 385 41 385 c 2,14,-1
 106 385 l 1,15,-1
 106 723 l 1,16,-1
 226 722 l 2,17,0
 425 721 425 721 514 635.5 c 128,-1,1
475 115.5 m 128,-1,19
 561 190 561 190 561 363 c 0,20,21
 561 485 561 485 521.5 554.5 c 128,-1,22
 482 624 482 624 406.5 653 c 128,-1,23
 331 682 331 682 215 682 c 2,24,-1
 149 682 l 1,25,-1
 149 385 l 1,26,-1
 327 385 l 2,27,28
 333 385 333 385 333 377 c 2,29,-1
 333 355 l 2,30,31
 333 349 333 349 330.5 346.5 c 128,-1,32
 328 344 328 344 321 344 c 2,33,-1
 149 344 l 1,34,-1
 149 41 l 1,35,-1
 209 41 l 2,36,18
 389 41 389 41 475 115.5 c 128,-1,19
EndSplineSet
EndChar

StartChar: Ntilde
Encoding: 209 209 146
Width: 722
GlyphClass: 2
Flags: W
AnchorPoint: "Anchor-5" 0 0 basechar 0
AnchorPoint: "Anchor-4" 337 0 basechar 0
AnchorPoint: "Anchor-3" 375 723 basechar 0
AnchorPoint: "Anchor-2" 0 0 basechar 0
LayerCount: 2
Fore
SplineSet
614 723 m 1,0,-1
 614 0 l 1,1,-1
 580 0 l 1,2,-1
 147 643 l 1,3,-1
 147 0 l 1,4,-1
 108 0 l 1,5,-1
 108 723 l 1,6,-1
 140 723 l 1,7,-1
 575 78 l 1,8,-1
 575 723 l 1,9,-1
 614 723 l 1,0,-1
469.5 867.5 m 128,-1,11
 455 862 455 862 432 862 c 0,12,13
 414 862 414 862 402 865 c 128,-1,14
 390 868 390 868 369 875 c 0,15,16
 341 886 341 886 321 886 c 0,17,18
 306 886 306 886 296 882 c 128,-1,19
 286 878 286 878 278 873 c 128,-1,20
 270 868 270 868 266 866 c 0,21,22
 261 864 261 864 259 864.5 c 128,-1,23
 257 865 257 865 256 870 c 2,24,-1
 249 886 l 2,25,26
 248 888 248 888 248.5 890 c 128,-1,27
 249 892 249 892 251 893 c 0,28,29
 269 906 269 906 283 912.5 c 128,-1,30
 297 919 297 919 317 919 c 0,31,32
 339 919 339 919 375 907 c 0,33,34
 408 894 408 894 433 894 c 0,35,36
 447 894 447 894 457 897.5 c 128,-1,37
 467 901 467 901 482 910 c 0,38,39
 487 913 487 913 489.5 912.5 c 128,-1,40
 492 912 492 912 494 907 c 2,41,-1
 502 889 l 2,42,43
 503 888 503 888 503 886 c 128,-1,44
 503 884 503 884 497 881 c 0,45,10
 484 873 484 873 469.5 867.5 c 128,-1,11
EndSplineSet
EndChar

StartChar: Ograve
Encoding: 210 210 147
Width: 707
GlyphClass: 2
Flags: W
AnchorPoint: "Anchor-5" 0 0 basechar 0
AnchorPoint: "Anchor-4" 356 0 basechar 0
AnchorPoint: "Anchor-3" 356 723 basechar 0
AnchorPoint: "Anchor-2" 424 9 basechar 0
LayerCount: 2
Fore
SplineSet
137.5 85 m 128,-1,1
 60 180 60 180 60 358 c 0,2,3
 60 539 60 539 138 636 c 128,-1,4
 216 733 216 733 355 733 c 0,5,6
 493 733 493 733 570 636.5 c 128,-1,7
 647 540 647 540 647 360 c 0,8,9
 647 181 647 181 570 85.5 c 128,-1,10
 493 -10 493 -10 354 -10 c 128,-1,0
 215 -10 215 -10 137.5 85 c 128,-1,1
540.5 113 m 128,-1,12
 603 195 603 195 603 360 c 0,13,14
 603 526 603 526 539.5 609 c 128,-1,15
 476 692 476 692 355 692 c 0,16,17
 233 692 233 692 168.5 608.5 c 128,-1,18
 104 525 104 525 104 360 c 0,19,20
 104 196 104 196 168.5 113.5 c 128,-1,21
 233 31 233 31 356 31 c 0,22,11
 478 31 478 31 540.5 113 c 128,-1,12
463 845 m 1,23,-1
 453 814 l 1,24,-1
 214 892 l 1,25,-1
 228 937 l 1,26,-1
 463 845 l 1,23,-1
EndSplineSet
EndChar

StartChar: Oacute
Encoding: 211 211 148
Width: 707
GlyphClass: 2
Flags: W
AnchorPoint: "Anchor-5" 0 0 basechar 0
AnchorPoint: "Anchor-4" 356 0 basechar 0
AnchorPoint: "Anchor-3" 356 723 basechar 0
AnchorPoint: "Anchor-2" 424 9 basechar 0
LayerCount: 2
Fore
SplineSet
137.5 85 m 128,-1,1
 60 180 60 180 60 358 c 0,2,3
 60 539 60 539 138 636 c 128,-1,4
 216 733 216 733 355 733 c 0,5,6
 493 733 493 733 570 636.5 c 128,-1,7
 647 540 647 540 647 360 c 0,8,9
 647 181 647 181 570 85.5 c 128,-1,10
 493 -10 493 -10 354 -10 c 128,-1,0
 215 -10 215 -10 137.5 85 c 128,-1,1
540.5 113 m 128,-1,12
 603 195 603 195 603 360 c 0,13,14
 603 526 603 526 539.5 609 c 128,-1,15
 476 692 476 692 355 692 c 0,16,17
 233 692 233 692 168.5 608.5 c 128,-1,18
 104 525 104 525 104 360 c 0,19,20
 104 196 104 196 168.5 113.5 c 128,-1,21
 233 31 233 31 356 31 c 0,22,11
 478 31 478 31 540.5 113 c 128,-1,12
480 892 m 1,23,-1
 241 814 l 1,24,-1
 231 845 l 1,25,-1
 466 937 l 1,26,-1
 480 892 l 1,23,-1
EndSplineSet
EndChar

StartChar: Ocircumflex
Encoding: 212 212 149
Width: 707
GlyphClass: 2
Flags: W
AnchorPoint: "Anchor-5" 0 0 basechar 0
AnchorPoint: "Anchor-4" 356 0 basechar 0
AnchorPoint: "Anchor-3" 356 723 basechar 0
AnchorPoint: "Anchor-2" 424 9 basechar 0
LayerCount: 2
Fore
SplineSet
137.5 85 m 128,-1,1
 60 180 60 180 60 358 c 0,2,3
 60 539 60 539 138 636 c 128,-1,4
 216 733 216 733 355 733 c 0,5,6
 493 733 493 733 570 636.5 c 128,-1,7
 647 540 647 540 647 360 c 0,8,9
 647 181 647 181 570 85.5 c 128,-1,10
 493 -10 493 -10 354 -10 c 128,-1,0
 215 -10 215 -10 137.5 85 c 128,-1,1
540.5 113 m 128,-1,12
 603 195 603 195 603 360 c 0,13,14
 603 526 603 526 539.5 609 c 128,-1,15
 476 692 476 692 355 692 c 0,16,17
 233 692 233 692 168.5 608.5 c 128,-1,18
 104 525 104 525 104 360 c 0,19,20
 104 196 104 196 168.5 113.5 c 128,-1,21
 233 31 233 31 356 31 c 0,22,11
 478 31 478 31 540.5 113 c 128,-1,12
356 894 m 1,23,-1
 278 834 l 1,24,-1
 222 834 l 1,25,-1
 341 929 l 1,26,-1
 373 929 l 1,27,-1
 490 834 l 1,28,-1
 430 834 l 1,29,-1
 356 894 l 1,23,-1
EndSplineSet
EndChar

StartChar: Otilde
Encoding: 213 213 150
Width: 707
GlyphClass: 2
Flags: W
AnchorPoint: "Anchor-5" 0 0 basechar 0
AnchorPoint: "Anchor-4" 356 0 basechar 0
AnchorPoint: "Anchor-3" 356 723 basechar 0
AnchorPoint: "Anchor-2" 424 9 basechar 0
LayerCount: 2
Fore
SplineSet
137.5 85 m 128,-1,1
 60 180 60 180 60 358 c 0,2,3
 60 539 60 539 138 636 c 128,-1,4
 216 733 216 733 355 733 c 0,5,6
 493 733 493 733 570 636.5 c 128,-1,7
 647 540 647 540 647 360 c 0,8,9
 647 181 647 181 570 85.5 c 128,-1,10
 493 -10 493 -10 354 -10 c 128,-1,0
 215 -10 215 -10 137.5 85 c 128,-1,1
540.5 113 m 128,-1,12
 603 195 603 195 603 360 c 0,13,14
 603 526 603 526 539.5 609 c 128,-1,15
 476 692 476 692 355 692 c 0,16,17
 233 692 233 692 168.5 608.5 c 128,-1,18
 104 525 104 525 104 360 c 0,19,20
 104 196 104 196 168.5 113.5 c 128,-1,21
 233 31 233 31 356 31 c 0,22,11
 478 31 478 31 540.5 113 c 128,-1,12
450.5 867.5 m 128,-1,24
 436 862 436 862 413 862 c 0,25,26
 395 862 395 862 383 865 c 128,-1,27
 371 868 371 868 350 875 c 0,28,29
 322 886 322 886 302 886 c 0,30,31
 287 886 287 886 277 882 c 128,-1,32
 267 878 267 878 259 873 c 128,-1,33
 251 868 251 868 247 866 c 0,34,35
 242 864 242 864 240 864.5 c 128,-1,36
 238 865 238 865 237 870 c 2,37,-1
 230 886 l 2,38,39
 229 888 229 888 229.5 890 c 128,-1,40
 230 892 230 892 232 893 c 0,41,42
 250 906 250 906 264 912.5 c 128,-1,43
 278 919 278 919 298 919 c 0,44,45
 320 919 320 919 356 907 c 0,46,47
 389 894 389 894 414 894 c 0,48,49
 428 894 428 894 438 897.5 c 128,-1,50
 448 901 448 901 463 910 c 0,51,52
 468 913 468 913 470.5 912.5 c 128,-1,53
 473 912 473 912 475 907 c 2,54,-1
 483 889 l 2,55,56
 484 888 484 888 484 886 c 128,-1,57
 484 884 484 884 478 881 c 0,58,23
 465 873 465 873 450.5 867.5 c 128,-1,24
EndSplineSet
EndChar

StartChar: Odieresis
Encoding: 214 214 151
Width: 707
GlyphClass: 2
Flags: W
AnchorPoint: "Anchor-5" 0 0 basechar 0
AnchorPoint: "Anchor-4" 356 0 basechar 0
AnchorPoint: "Anchor-3" 356 723 basechar 0
AnchorPoint: "Anchor-2" 424 9 basechar 0
LayerCount: 2
Fore
SplineSet
137.5 85 m 128,-1,1
 60 180 60 180 60 358 c 0,2,3
 60 539 60 539 138 636 c 128,-1,4
 216 733 216 733 355 733 c 0,5,6
 493 733 493 733 570 636.5 c 128,-1,7
 647 540 647 540 647 360 c 0,8,9
 647 181 647 181 570 85.5 c 128,-1,10
 493 -10 493 -10 354 -10 c 128,-1,0
 215 -10 215 -10 137.5 85 c 128,-1,1
540.5 113 m 128,-1,12
 603 195 603 195 603 360 c 0,13,14
 603 526 603 526 539.5 609 c 128,-1,15
 476 692 476 692 355 692 c 0,16,17
 233 692 233 692 168.5 608.5 c 128,-1,18
 104 525 104 525 104 360 c 0,19,20
 104 196 104 196 168.5 113.5 c 128,-1,21
 233 31 233 31 356 31 c 0,22,11
 478 31 478 31 540.5 113 c 128,-1,12
325 834 m 1,23,-1
 277 834 l 1,24,-1
 277 929 l 1,25,-1
 325 929 l 1,26,-1
 325 834 l 1,23,-1
434 834 m 1,27,-1
 385 834 l 1,28,-1
 385 929 l 1,29,-1
 434 929 l 1,30,-1
 434 834 l 1,27,-1
EndSplineSet
EndChar

StartChar: multiply
Encoding: 215 215 152
Width: 504
GlyphClass: 2
Flags: W
LayerCount: 2
Fore
SplineSet
411 177 m 1,0,-1
 251 336 l 1,1,-1
 93 177 l 1,2,-1
 66 204 l 1,3,-1
 224 363 l 1,4,-1
 65 522 l 1,5,-1
 92 548 l 1,6,-1
 251 390 l 1,7,-1
 410 550 l 1,8,-1
 437 524 l 1,9,-1
 278 363 l 1,10,-1
 438 204 l 1,11,-1
 411 177 l 1,0,-1
EndSplineSet
EndChar

StartChar: Oslash
Encoding: 216 216 153
Width: 690
GlyphClass: 2
Flags: W
AnchorPoint: "Anchor-5" 0 0 basechar 0
AnchorPoint: "Anchor-4" 0 0 basechar 0
AnchorPoint: "Anchor-3" 346 723 basechar 0
AnchorPoint: "Anchor-2" 0 0 basechar 0
LayerCount: 2
Fore
SplineSet
668 698 m 2,0,-1
 585 602 l 1,1,2
 639 508 639 508 639 360 c 0,3,4
 639 181 639 181 561.5 85.5 c 128,-1,5
 484 -10 484 -10 345 -10 c 0,6,7
 208 -10 208 -10 134 79 c 1,8,-1
 62 -3 l 2,9,10
 57 -9 57 -9 53 -9 c 128,-1,11
 49 -9 49 -9 44 -5 c 2,12,-1
 27 11 l 2,13,14
 22 16 22 16 21 18.5 c 128,-1,15
 20 21 20 21 23 25 c 2,16,-1
 105 120 l 1,17,18
 52 209 52 209 52 358 c 0,19,20
 52 539 52 539 129.5 636 c 128,-1,21
 207 733 207 733 346 733 c 0,22,23
 479 733 479 733 557 643 c 1,24,-1
 630 727 l 2,25,26
 637 735 637 735 642 730 c 2,27,-1
 667 709 l 2,28,29
 672 704 672 704 668 698 c 2,0,-1
137 157 m 1,30,-1
 527 609 l 1,31,32
 466 691 466 691 346 691 c 0,33,34
 225 691 225 691 163 608.5 c 128,-1,35
 101 526 101 526 101 360 c 0,36,37
 101 235 101 235 137 157 c 1,30,-1
553 566 m 1,38,-1
 163 114 l 1,39,40
 226 32 226 32 347 32 c 128,-1,41
 468 32 468 32 528.5 113 c 128,-1,42
 589 194 589 194 589 360 c 0,43,44
 589 487 589 487 553 566 c 1,38,-1
EndSplineSet
EndChar

StartChar: Ugrave
Encoding: 217 217 154
Width: 695
GlyphClass: 2
Flags: W
AnchorPoint: "Anchor-5" 0 0 basechar 0
AnchorPoint: "Anchor-4" 0 0 basechar 0
AnchorPoint: "Anchor-3" 350 723 basechar 0
AnchorPoint: "Anchor-2" 417 9 basechar 0
LayerCount: 2
Fore
SplineSet
527.5 48 m 128,-1,1
 468 -10 468 -10 347 -10 c 0,2,3
 224 -10 224 -10 166 50.5 c 128,-1,4
 108 111 108 111 108 239 c 2,5,-1
 108 723 l 1,6,-1
 151 723 l 1,7,-1
 151 222 l 2,8,9
 151 28 151 28 347 28 c 0,10,11
 548 28 548 28 548 222 c 2,12,-1
 548 723 l 1,13,-1
 587 723 l 1,14,-1
 587 224 l 2,15,0
 587 106 587 106 527.5 48 c 128,-1,1
457 845 m 1,16,-1
 447 814 l 1,17,-1
 208 892 l 1,18,-1
 222 937 l 1,19,-1
 457 845 l 1,16,-1
EndSplineSet
EndChar

StartChar: Uacute
Encoding: 218 218 155
Width: 695
GlyphClass: 2
Flags: W
AnchorPoint: "Anchor-5" 0 0 basechar 0
AnchorPoint: "Anchor-4" 0 0 basechar 0
AnchorPoint: "Anchor-3" 350 723 basechar 0
AnchorPoint: "Anchor-2" 417 9 basechar 0
LayerCount: 2
Fore
SplineSet
527.5 48 m 128,-1,1
 468 -10 468 -10 347 -10 c 0,2,3
 224 -10 224 -10 166 50.5 c 128,-1,4
 108 111 108 111 108 239 c 2,5,-1
 108 723 l 1,6,-1
 151 723 l 1,7,-1
 151 222 l 2,8,9
 151 28 151 28 347 28 c 0,10,11
 548 28 548 28 548 222 c 2,12,-1
 548 723 l 1,13,-1
 587 723 l 1,14,-1
 587 224 l 2,15,0
 587 106 587 106 527.5 48 c 128,-1,1
474 892 m 1,16,-1
 235 814 l 1,17,-1
 225 845 l 1,18,-1
 460 937 l 1,19,-1
 474 892 l 1,16,-1
EndSplineSet
EndChar

StartChar: Ucircumflex
Encoding: 219 219 156
Width: 695
GlyphClass: 2
Flags: W
AnchorPoint: "Anchor-5" 0 0 basechar 0
AnchorPoint: "Anchor-4" 0 0 basechar 0
AnchorPoint: "Anchor-3" 350 723 basechar 0
AnchorPoint: "Anchor-2" 417 9 basechar 0
LayerCount: 2
Fore
SplineSet
527.5 48 m 128,-1,1
 468 -10 468 -10 347 -10 c 0,2,3
 224 -10 224 -10 166 50.5 c 128,-1,4
 108 111 108 111 108 239 c 2,5,-1
 108 723 l 1,6,-1
 151 723 l 1,7,-1
 151 222 l 2,8,9
 151 28 151 28 347 28 c 0,10,11
 548 28 548 28 548 222 c 2,12,-1
 548 723 l 1,13,-1
 587 723 l 1,14,-1
 587 224 l 2,15,0
 587 106 587 106 527.5 48 c 128,-1,1
350 894 m 1,16,-1
 272 834 l 1,17,-1
 216 834 l 1,18,-1
 335 929 l 1,19,-1
 367 929 l 1,20,-1
 484 834 l 1,21,-1
 424 834 l 1,22,-1
 350 894 l 1,16,-1
EndSplineSet
EndChar

StartChar: Udieresis
Encoding: 220 220 157
Width: 695
GlyphClass: 2
Flags: W
AnchorPoint: "Anchor-5" 0 0 basechar 0
AnchorPoint: "Anchor-4" 0 0 basechar 0
AnchorPoint: "Anchor-3" 350 723 basechar 0
AnchorPoint: "Anchor-2" 417 9 basechar 0
LayerCount: 2
Fore
SplineSet
527.5 48 m 128,-1,1
 468 -10 468 -10 347 -10 c 0,2,3
 224 -10 224 -10 166 50.5 c 128,-1,4
 108 111 108 111 108 239 c 2,5,-1
 108 723 l 1,6,-1
 151 723 l 1,7,-1
 151 222 l 2,8,9
 151 28 151 28 347 28 c 0,10,11
 548 28 548 28 548 222 c 2,12,-1
 548 723 l 1,13,-1
 587 723 l 1,14,-1
 587 224 l 2,15,0
 587 106 587 106 527.5 48 c 128,-1,1
319 834 m 1,16,-1
 271 834 l 1,17,-1
 271 929 l 1,18,-1
 319 929 l 1,19,-1
 319 834 l 1,16,-1
428 834 m 1,20,-1
 379 834 l 1,21,-1
 379 929 l 1,22,-1
 428 929 l 1,23,-1
 428 834 l 1,20,-1
EndSplineSet
EndChar

StartChar: Yacute
Encoding: 221 221 158
Width: 539
GlyphClass: 2
Flags: W
AnchorPoint: "Anchor-5" 0 0 basechar 0
AnchorPoint: "Anchor-4" 0 0 basechar 0
AnchorPoint: "Anchor-3" 266 723 basechar 0
AnchorPoint: "Anchor-2" 0 0 basechar 0
LayerCount: 2
Fore
SplineSet
291 311 m 1,0,-1
 291 0 l 1,1,-1
 252 0 l 1,2,-1
 252 312 l 1,3,-1
 10 723 l 1,4,-1
 54 723 l 1,5,-1
 272 351 l 1,6,-1
 486 723 l 1,7,-1
 529 723 l 1,8,-1
 291 311 l 1,0,-1
390 892 m 1,9,-1
 151 814 l 1,10,-1
 141 845 l 1,11,-1
 376 937 l 1,12,-1
 390 892 l 1,9,-1
EndSplineSet
EndChar

StartChar: Thorn
Encoding: 222 222 159
Width: 627
GlyphClass: 2
Flags: W
LayerCount: 2
Fore
SplineSet
524.5 226 m 128,-1,1
 456 177 456 177 339 177 c 2,2,-1
 153 177 l 1,3,-1
 153 0 l 1,4,-1
 108 0 l 1,5,-1
 108 723 l 1,6,-1
 153 723 l 1,7,-1
 153 565 l 1,8,-1
 333 565 l 2,9,10
 453 565 453 565 523 519 c 128,-1,11
 593 473 593 473 593 380 c 0,12,0
 593 275 593 275 524.5 226 c 128,-1,1
491 492 m 128,-1,14
 436 526 436 526 332 526 c 2,15,-1
 153 526 l 1,16,-1
 153 216 l 1,17,-1
 339 216 l 2,18,19
 546 216 546 216 546 380 c 0,20,13
 546 458 546 458 491 492 c 128,-1,14
EndSplineSet
EndChar

StartChar: germandbls
Encoding: 223 223 160
Width: 569
GlyphClass: 2
Flags: W
LayerCount: 2
Fore
SplineSet
415.5 685 m 128,-1,1
 450 647 450 647 450 594 c 0,2,3
 450 557 450 557 435 534 c 128,-1,4
 420 511 420 511 402 499.5 c 128,-1,5
 384 488 384 488 340 465 c 0,6,7
 290 438 290 438 275 425 c 128,-1,8
 260 412 260 412 260 388 c 0,9,10
 260 365 260 365 275 354.5 c 128,-1,11
 290 344 290 344 337 329 c 0,12,13
 390 312 390 312 423 296.5 c 128,-1,14
 456 281 456 281 484.5 246 c 128,-1,15
 513 211 513 211 513 154 c 0,16,17
 513 102 513 102 488 65 c 128,-1,18
 463 28 463 28 421.5 9 c 128,-1,19
 380 -10 380 -10 330 -10 c 0,20,21
 295 -10 295 -10 255.5 -0.5 c 128,-1,22
 216 9 216 9 191 26 c 1,23,-1
 213 59 l 1,24,25
 241 43 241 43 265.5 35 c 128,-1,26
 290 27 290 27 323 27 c 0,27,28
 392 27 392 27 432 60 c 128,-1,29
 472 93 472 93 472 151 c 0,30,31
 472 193 472 193 452 219.5 c 128,-1,32
 432 246 432 246 402 260.5 c 128,-1,33
 372 275 372 275 325 290 c 0,34,35
 289 301 289 301 269.5 309.5 c 128,-1,36
 250 318 250 318 234.5 336.5 c 128,-1,37
 219 355 219 355 219 387 c 0,38,39
 219 422 219 422 241.5 446 c 128,-1,40
 264 470 264 470 319 497 c 0,41,42
 325 500 325 500 352.5 514 c 128,-1,43
 380 528 380 528 394.5 548.5 c 128,-1,44
 409 569 409 569 409 597 c 0,45,46
 409 639 409 639 378.5 662.5 c 128,-1,47
 348 686 348 686 294 686 c 0,48,49
 225 686 225 686 183.5 644.5 c 128,-1,50
 142 603 142 603 142 522 c 2,51,-1
 142 0 l 1,52,-1
 103 0 l 1,53,-1
 103 483 l 1,54,-1
 29 483 l 1,55,-1
 29 517 l 1,56,-1
 102 517 l 1,57,58
 102 612 102 612 157 667.5 c 128,-1,59
 212 723 212 723 302 723 c 0,60,0
 381 723 381 723 415.5 685 c 128,-1,1
EndSplineSet
EndChar

StartChar: agrave
Encoding: 224 224 161
Width: 549
GlyphClass: 2
Flags: W
AnchorPoint: "Anchor-5" 0 0 basechar 0
AnchorPoint: "Anchor-4" 0 0 basechar 0
AnchorPoint: "Anchor-3" 273 517 basechar 0
AnchorPoint: "Anchor-2" 453 14 basechar 0
LayerCount: 2
Fore
SplineSet
104.5 28 m 128,-1,1
 60 66 60 66 60 132 c 0,2,3
 60 190 60 190 84 224 c 128,-1,4
 108 258 108 258 160 275.5 c 128,-1,5
 212 293 212 293 301 300 c 2,6,-1
 420 310 l 1,7,-1
 420 354 l 2,8,9
 420 416 420 416 380.5 452.5 c 128,-1,10
 341 489 341 489 275 489 c 0,11,12
 175 489 175 489 106 393 c 1,13,-1
 73 413 l 1,14,15
 107 465 107 465 158 496 c 128,-1,16
 209 527 209 527 277 527 c 0,17,18
 360 527 360 527 409.5 481.5 c 128,-1,19
 459 436 459 436 459 358 c 2,20,-1
 459 0 l 1,21,-1
 423 0 l 1,22,-1
 421 80 l 1,23,24
 337 -10 337 -10 226 -10 c 0,25,0
 149 -10 149 -10 104.5 28 c 128,-1,1
318.5 47.5 m 128,-1,27
 363 68 363 68 391.5 100.5 c 128,-1,28
 420 133 420 133 420 167 c 2,29,-1
 420 274 l 1,30,-1
 320 266 l 2,31,32
 235 260 235 260 188.5 246.5 c 128,-1,33
 142 233 142 233 121.5 207 c 128,-1,34
 101 181 101 181 101 135 c 0,35,36
 101 85 101 85 136.5 56 c 128,-1,37
 172 27 172 27 232 27 c 0,38,26
 274 27 274 27 318.5 47.5 c 128,-1,27
380 639 m 1,39,-1
 370 608 l 1,40,-1
 131 686 l 1,41,-1
 145 731 l 1,42,-1
 380 639 l 1,39,-1
EndSplineSet
EndChar

StartChar: aacute
Encoding: 225 225 162
Width: 549
GlyphClass: 2
Flags: W
AnchorPoint: "Anchor-5" 0 0 basechar 0
AnchorPoint: "Anchor-4" 0 0 basechar 0
AnchorPoint: "Anchor-3" 273 517 basechar 0
AnchorPoint: "Anchor-2" 453 14 basechar 0
LayerCount: 2
Fore
SplineSet
104.5 28 m 128,-1,1
 60 66 60 66 60 132 c 0,2,3
 60 190 60 190 84 224 c 128,-1,4
 108 258 108 258 160 275.5 c 128,-1,5
 212 293 212 293 301 300 c 2,6,-1
 420 310 l 1,7,-1
 420 354 l 2,8,9
 420 416 420 416 380.5 452.5 c 128,-1,10
 341 489 341 489 275 489 c 0,11,12
 175 489 175 489 106 393 c 1,13,-1
 73 413 l 1,14,15
 107 465 107 465 158 496 c 128,-1,16
 209 527 209 527 277 527 c 0,17,18
 360 527 360 527 409.5 481.5 c 128,-1,19
 459 436 459 436 459 358 c 2,20,-1
 459 0 l 1,21,-1
 423 0 l 1,22,-1
 421 80 l 1,23,24
 337 -10 337 -10 226 -10 c 0,25,0
 149 -10 149 -10 104.5 28 c 128,-1,1
318.5 47.5 m 128,-1,27
 363 68 363 68 391.5 100.5 c 128,-1,28
 420 133 420 133 420 167 c 2,29,-1
 420 274 l 1,30,-1
 320 266 l 2,31,32
 235 260 235 260 188.5 246.5 c 128,-1,33
 142 233 142 233 121.5 207 c 128,-1,34
 101 181 101 181 101 135 c 0,35,36
 101 85 101 85 136.5 56 c 128,-1,37
 172 27 172 27 232 27 c 0,38,26
 274 27 274 27 318.5 47.5 c 128,-1,27
397 686 m 1,39,-1
 158 608 l 1,40,-1
 148 639 l 1,41,-1
 383 731 l 1,42,-1
 397 686 l 1,39,-1
EndSplineSet
EndChar

StartChar: acircumflex
Encoding: 226 226 163
Width: 549
GlyphClass: 2
Flags: W
AnchorPoint: "Anchor-5" 0 0 basechar 0
AnchorPoint: "Anchor-4" 0 0 basechar 0
AnchorPoint: "Anchor-3" 273 517 basechar 0
AnchorPoint: "Anchor-2" 453 14 basechar 0
LayerCount: 2
Fore
SplineSet
104.5 28 m 128,-1,1
 60 66 60 66 60 132 c 0,2,3
 60 190 60 190 84 224 c 128,-1,4
 108 258 108 258 160 275.5 c 128,-1,5
 212 293 212 293 301 300 c 2,6,-1
 420 310 l 1,7,-1
 420 354 l 2,8,9
 420 416 420 416 380.5 452.5 c 128,-1,10
 341 489 341 489 275 489 c 0,11,12
 175 489 175 489 106 393 c 1,13,-1
 73 413 l 1,14,15
 107 465 107 465 158 496 c 128,-1,16
 209 527 209 527 277 527 c 0,17,18
 360 527 360 527 409.5 481.5 c 128,-1,19
 459 436 459 436 459 358 c 2,20,-1
 459 0 l 1,21,-1
 423 0 l 1,22,-1
 421 80 l 1,23,24
 337 -10 337 -10 226 -10 c 0,25,0
 149 -10 149 -10 104.5 28 c 128,-1,1
318.5 47.5 m 128,-1,27
 363 68 363 68 391.5 100.5 c 128,-1,28
 420 133 420 133 420 167 c 2,29,-1
 420 274 l 1,30,-1
 320 266 l 2,31,32
 235 260 235 260 188.5 246.5 c 128,-1,33
 142 233 142 233 121.5 207 c 128,-1,34
 101 181 101 181 101 135 c 0,35,36
 101 85 101 85 136.5 56 c 128,-1,37
 172 27 172 27 232 27 c 0,38,26
 274 27 274 27 318.5 47.5 c 128,-1,27
273 688 m 1,39,-1
 195 628 l 1,40,-1
 139 628 l 1,41,-1
 258 723 l 1,42,-1
 290 723 l 1,43,-1
 407 628 l 1,44,-1
 347 628 l 1,45,-1
 273 688 l 1,39,-1
EndSplineSet
EndChar

StartChar: atilde
Encoding: 227 227 164
Width: 549
GlyphClass: 2
Flags: W
AnchorPoint: "Anchor-5" 0 0 basechar 0
AnchorPoint: "Anchor-4" 0 0 basechar 0
AnchorPoint: "Anchor-3" 273 517 basechar 0
AnchorPoint: "Anchor-2" 453 14 basechar 0
LayerCount: 2
Fore
SplineSet
104.5 28 m 128,-1,1
 60 66 60 66 60 132 c 0,2,3
 60 190 60 190 84 224 c 128,-1,4
 108 258 108 258 160 275.5 c 128,-1,5
 212 293 212 293 301 300 c 2,6,-1
 420 310 l 1,7,-1
 420 354 l 2,8,9
 420 416 420 416 380.5 452.5 c 128,-1,10
 341 489 341 489 275 489 c 0,11,12
 175 489 175 489 106 393 c 1,13,-1
 73 413 l 1,14,15
 107 465 107 465 158 496 c 128,-1,16
 209 527 209 527 277 527 c 0,17,18
 360 527 360 527 409.5 481.5 c 128,-1,19
 459 436 459 436 459 358 c 2,20,-1
 459 0 l 1,21,-1
 423 0 l 1,22,-1
 421 80 l 1,23,24
 337 -10 337 -10 226 -10 c 0,25,0
 149 -10 149 -10 104.5 28 c 128,-1,1
318.5 47.5 m 128,-1,27
 363 68 363 68 391.5 100.5 c 128,-1,28
 420 133 420 133 420 167 c 2,29,-1
 420 274 l 1,30,-1
 320 266 l 2,31,32
 235 260 235 260 188.5 246.5 c 128,-1,33
 142 233 142 233 121.5 207 c 128,-1,34
 101 181 101 181 101 135 c 0,35,36
 101 85 101 85 136.5 56 c 128,-1,37
 172 27 172 27 232 27 c 0,38,26
 274 27 274 27 318.5 47.5 c 128,-1,27
367.5 661.5 m 128,-1,40
 353 656 353 656 330 656 c 0,41,42
 312 656 312 656 300 659 c 128,-1,43
 288 662 288 662 267 669 c 0,44,45
 239 680 239 680 219 680 c 0,46,47
 204 680 204 680 194 676 c 128,-1,48
 184 672 184 672 176 667 c 128,-1,49
 168 662 168 662 164 660 c 0,50,51
 159 658 159 658 157 658.5 c 128,-1,52
 155 659 155 659 154 664 c 2,53,-1
 147 680 l 2,54,55
 146 682 146 682 146.5 684 c 128,-1,56
 147 686 147 686 149 687 c 0,57,58
 167 700 167 700 181 706.5 c 128,-1,59
 195 713 195 713 215 713 c 0,60,61
 237 713 237 713 273 701 c 0,62,63
 306 688 306 688 331 688 c 0,64,65
 345 688 345 688 355 691.5 c 128,-1,66
 365 695 365 695 380 704 c 0,67,68
 385 707 385 707 387.5 706.5 c 128,-1,69
 390 706 390 706 392 701 c 2,70,-1
 400 683 l 2,71,72
 401 682 401 682 401 680 c 128,-1,73
 401 678 401 678 395 675 c 0,74,39
 382 667 382 667 367.5 661.5 c 128,-1,40
EndSplineSet
EndChar

StartChar: adieresis
Encoding: 228 228 165
Width: 549
GlyphClass: 2
Flags: W
AnchorPoint: "Anchor-5" 0 0 basechar 0
AnchorPoint: "Anchor-4" 0 0 basechar 0
AnchorPoint: "Anchor-3" 273 517 basechar 0
AnchorPoint: "Anchor-2" 453 14 basechar 0
LayerCount: 2
Fore
SplineSet
104.5 28 m 128,-1,1
 60 66 60 66 60 132 c 0,2,3
 60 190 60 190 84 224 c 128,-1,4
 108 258 108 258 160 275.5 c 128,-1,5
 212 293 212 293 301 300 c 2,6,-1
 420 310 l 1,7,-1
 420 354 l 2,8,9
 420 416 420 416 380.5 452.5 c 128,-1,10
 341 489 341 489 275 489 c 0,11,12
 175 489 175 489 106 393 c 1,13,-1
 73 413 l 1,14,15
 107 465 107 465 158 496 c 128,-1,16
 209 527 209 527 277 527 c 0,17,18
 360 527 360 527 409.5 481.5 c 128,-1,19
 459 436 459 436 459 358 c 2,20,-1
 459 0 l 1,21,-1
 423 0 l 1,22,-1
 421 80 l 1,23,24
 337 -10 337 -10 226 -10 c 0,25,0
 149 -10 149 -10 104.5 28 c 128,-1,1
318.5 47.5 m 128,-1,27
 363 68 363 68 391.5 100.5 c 128,-1,28
 420 133 420 133 420 167 c 2,29,-1
 420 274 l 1,30,-1
 320 266 l 2,31,32
 235 260 235 260 188.5 246.5 c 128,-1,33
 142 233 142 233 121.5 207 c 128,-1,34
 101 181 101 181 101 135 c 0,35,36
 101 85 101 85 136.5 56 c 128,-1,37
 172 27 172 27 232 27 c 0,38,26
 274 27 274 27 318.5 47.5 c 128,-1,27
242 628 m 1,39,-1
 194 628 l 1,40,-1
 194 723 l 1,41,-1
 242 723 l 1,42,-1
 242 628 l 1,39,-1
351 628 m 1,43,-1
 302 628 l 1,44,-1
 302 723 l 1,45,-1
 351 723 l 1,46,-1
 351 628 l 1,43,-1
EndSplineSet
EndChar

StartChar: aring
Encoding: 229 229 166
Width: 549
GlyphClass: 2
Flags: W
AnchorPoint: "Anchor-5" 0 0 basechar 0
AnchorPoint: "Anchor-4" 0 0 basechar 0
AnchorPoint: "Anchor-3" 273 517 basechar 0
AnchorPoint: "Anchor-2" 453 14 basechar 0
LayerCount: 2
Fore
SplineSet
104.5 28 m 128,-1,1
 60 66 60 66 60 132 c 0,2,3
 60 190 60 190 84 224 c 128,-1,4
 108 258 108 258 160 275.5 c 128,-1,5
 212 293 212 293 301 300 c 2,6,-1
 420 310 l 1,7,-1
 420 354 l 2,8,9
 420 416 420 416 380.5 452.5 c 128,-1,10
 341 489 341 489 275 489 c 0,11,12
 175 489 175 489 106 393 c 1,13,-1
 73 413 l 1,14,15
 107 465 107 465 158 496 c 128,-1,16
 209 527 209 527 277 527 c 0,17,18
 360 527 360 527 409.5 481.5 c 128,-1,19
 459 436 459 436 459 358 c 2,20,-1
 459 0 l 1,21,-1
 423 0 l 1,22,-1
 421 80 l 1,23,24
 337 -10 337 -10 226 -10 c 0,25,0
 149 -10 149 -10 104.5 28 c 128,-1,1
318.5 47.5 m 128,-1,27
 363 68 363 68 391.5 100.5 c 128,-1,28
 420 133 420 133 420 167 c 2,29,-1
 420 274 l 1,30,-1
 320 266 l 2,31,32
 235 260 235 260 188.5 246.5 c 128,-1,33
 142 233 142 233 121.5 207 c 128,-1,34
 101 181 101 181 101 135 c 0,35,36
 101 85 101 85 136.5 56 c 128,-1,37
 172 27 172 27 232 27 c 0,38,26
 274 27 274 27 318.5 47.5 c 128,-1,27
342.5 614 m 128,-1,40
 314 586 314 586 273 586 c 128,-1,41
 232 586 232 586 204 614.5 c 128,-1,42
 176 643 176 643 176 685 c 0,43,44
 176 724 176 724 204.5 751.5 c 128,-1,45
 233 779 233 779 273 779 c 0,46,47
 314 779 314 779 342.5 751 c 128,-1,48
 371 723 371 723 371 683 c 0,49,39
 371 642 371 642 342.5 614 c 128,-1,40
312.5 724 m 128,-1,51
 296 740 296 740 272 740 c 0,52,53
 249 740 249 740 232 724 c 128,-1,54
 215 708 215 708 215 683 c 0,55,56
 215 660 215 660 232 642.5 c 128,-1,57
 249 625 249 625 272 625 c 0,58,59
 296 625 296 625 312.5 642 c 128,-1,60
 329 659 329 659 329 683 c 0,61,50
 329 708 329 708 312.5 724 c 128,-1,51
EndSplineSet
EndChar

StartChar: ae
Encoding: 230 230 167
Width: 933
GlyphClass: 2
Flags: W
AnchorPoint: "Anchor-5" 0 0 basechar 0
AnchorPoint: "Anchor-4" 0 0 basechar 0
AnchorPoint: "Anchor-3" 455 517 basechar 0
AnchorPoint: "Anchor-2" 0 0 basechar 0
LayerCount: 2
Fore
SplineSet
479.5 143.5 m 128,-1,1
 506 92 506 92 551 59.5 c 128,-1,2
 596 27 596 27 648 27 c 0,3,4
 718 27 718 27 757 54.5 c 128,-1,5
 796 82 796 82 826 126 c 1,6,-1
 857 104 l 1,7,8
 831 54 831 54 774 22 c 128,-1,9
 717 -10 717 -10 646 -10 c 0,10,11
 568 -10 568 -10 523.5 23 c 128,-1,12
 479 56 479 56 447 105 c 0,13,14
 445 109 445 109 442 105 c 0,15,16
 417 73 417 73 391.5 49.5 c 128,-1,17
 366 26 366 26 323.5 8 c 128,-1,18
 281 -10 281 -10 222 -10 c 0,19,20
 146 -10 146 -10 103 28 c 128,-1,21
 60 66 60 66 60 133 c 0,22,23
 60 205 60 205 118 247.5 c 128,-1,24
 176 290 176 290 293 300 c 2,25,-1
 420 310 l 1,26,-1
 420 354 l 2,27,28
 420 417 420 417 381 453 c 128,-1,29
 342 489 342 489 270 489 c 0,30,31
 176 489 176 489 104 392 c 1,32,-1
 74 413 l 1,33,34
 106 467 106 467 160 497 c 128,-1,35
 214 527 214 527 278 527 c 0,36,37
 350 527 350 527 392 498 c 128,-1,38
 434 469 434 469 449 410 c 1,39,40
 478 468 478 468 529 497.5 c 128,-1,41
 580 527 580 527 649 527 c 0,42,43
 716 527 716 527 766.5 494 c 128,-1,44
 817 461 817 461 845 398.5 c 128,-1,45
 873 336 873 336 873 248 c 1,46,-1
 453 247 l 1,47,0
 453 195 453 195 479.5 143.5 c 128,-1,1
549.5 463.5 m 128,-1,49
 506 438 506 438 480.5 391.5 c 128,-1,50
 455 345 455 345 455 284 c 1,51,-1
 831 283 l 1,52,53
 831 340 831 340 807 387 c 128,-1,54
 783 434 783 434 741 461.5 c 128,-1,55
 699 489 699 489 646 489 c 128,-1,48
 593 489 593 489 549.5 463.5 c 128,-1,49
313 265 m 2,56,57
 205 257 205 257 153.5 224.5 c 128,-1,58
 102 192 102 192 102 135 c 0,59,60
 102 87 102 87 134 57.5 c 128,-1,61
 166 28 166 28 222 28 c 0,62,63
 275 28 275 28 320.5 48 c 128,-1,64
 366 68 366 68 393 101.5 c 128,-1,65
 420 135 420 135 420 173 c 2,66,-1
 420 273 l 1,67,-1
 313 265 l 2,56,57
EndSplineSet
EndChar

StartChar: ccedilla
Encoding: 231 231 168
Width: 538
GlyphClass: 2
Flags: W
AnchorPoint: "Anchor-5" 0 0 basechar 0
AnchorPoint: "Anchor-4" 285 0 basechar 0
AnchorPoint: "Anchor-3" 283 517 basechar 0
AnchorPoint: "Anchor-2" 0 0 basechar 0
LayerCount: 2
Fore
SplineSet
389.5 499 m 128,-1,1
 433 471 433 471 470 415 c 1,2,-1
 437 394 l 1,3,4
 393 448 393 448 363 468.5 c 128,-1,5
 333 489 333 489 289 489 c 0,6,7
 203 489 203 489 152 425.5 c 128,-1,8
 101 362 101 362 101 258 c 0,9,10
 101 153 101 153 151 90 c 128,-1,11
 201 27 201 27 288 27 c 0,12,13
 339 27 339 27 375 52 c 128,-1,14
 411 77 411 77 445 132 c 1,15,-1
 478 110 l 1,16,17
 442 49 442 49 394.5 19.5 c 128,-1,18
 347 -10 347 -10 284 -10 c 0,19,20
 215 -10 215 -10 164.5 23.5 c 128,-1,21
 114 57 114 57 87 117 c 128,-1,22
 60 177 60 177 60 256 c 0,23,24
 60 336 60 336 87 397 c 128,-1,25
 114 458 114 458 164.5 492.5 c 128,-1,26
 215 527 215 527 284 527 c 0,27,0
 346 527 346 527 389.5 499 c 128,-1,1
328.5 -180 m 128,-1,29
 301 -199 301 -199 259 -199 c 0,30,31
 216 -199 216 -199 184 -176 c 1,32,-1
 195 -148 l 1,33,34
 207 -159 207 -159 220.5 -164.5 c 128,-1,35
 234 -170 234 -170 255 -170 c 0,36,37
 313 -170 313 -170 313 -128 c 0,38,39
 313 -105 313 -105 295 -94 c 128,-1,40
 277 -83 277 -83 238 -81 c 0,41,42
 232 -81 232 -81 234 -77 c 2,43,-1
 270 5 l 1,44,-1
 303 5 l 1,45,-1
 278 -57 l 1,46,47
 320 -60 320 -60 338 -79.5 c 128,-1,48
 356 -99 356 -99 356 -126 c 0,49,28
 356 -161 356 -161 328.5 -180 c 128,-1,29
EndSplineSet
EndChar

StartChar: egrave
Encoding: 232 232 169
Width: 552
GlyphClass: 2
Flags: W
AnchorPoint: "Anchor-5" 0 0 basechar 0
AnchorPoint: "Anchor-4" 273 0 basechar 0
AnchorPoint: "Anchor-3" 282 517 basechar 0
AnchorPoint: "Anchor-2" 375 18 basechar 0
LayerCount: 2
Fore
SplineSet
150.5 91.5 m 128,-1,1
 199 29 199 29 292 29 c 0,2,3
 409 29 409 29 444 122 c 1,4,-1
 481 106 l 1,5,6
 461 51 461 51 411 20.5 c 128,-1,7
 361 -10 361 -10 292 -10 c 0,8,9
 224 -10 224 -10 171.5 21 c 128,-1,10
 119 52 119 52 89.5 111.5 c 128,-1,11
 60 171 60 171 60 254 c 0,12,13
 60 383 60 383 118.5 455 c 128,-1,14
 177 527 177 527 282 527 c 0,15,16
 381 527 381 527 436.5 461.5 c 128,-1,17
 492 396 492 396 492 277 c 2,18,-1
 492 248 l 1,19,-1
 102 248 l 1,20,0
 102 154 102 154 150.5 91.5 c 128,-1,1
451 287 m 1,21,22
 451 377 451 377 408 432.5 c 128,-1,23
 365 488 365 488 281 488 c 0,24,25
 221 488 221 488 181 459 c 128,-1,26
 141 430 141 430 121.5 384 c 128,-1,27
 102 338 102 338 103 287 c 1,28,-1
 451 287 l 1,21,22
389 639 m 1,29,-1
 379 608 l 1,30,-1
 140 686 l 1,31,-1
 154 731 l 1,32,-1
 389 639 l 1,29,-1
EndSplineSet
EndChar

StartChar: eacute
Encoding: 233 233 170
Width: 552
GlyphClass: 2
Flags: W
AnchorPoint: "Anchor-5" 0 0 basechar 0
AnchorPoint: "Anchor-4" 273 0 basechar 0
AnchorPoint: "Anchor-3" 282 517 basechar 0
AnchorPoint: "Anchor-2" 375 18 basechar 0
LayerCount: 2
Fore
SplineSet
150.5 91.5 m 128,-1,1
 199 29 199 29 292 29 c 0,2,3
 409 29 409 29 444 122 c 1,4,-1
 481 106 l 1,5,6
 461 51 461 51 411 20.5 c 128,-1,7
 361 -10 361 -10 292 -10 c 0,8,9
 224 -10 224 -10 171.5 21 c 128,-1,10
 119 52 119 52 89.5 111.5 c 128,-1,11
 60 171 60 171 60 254 c 0,12,13
 60 383 60 383 118.5 455 c 128,-1,14
 177 527 177 527 282 527 c 0,15,16
 381 527 381 527 436.5 461.5 c 128,-1,17
 492 396 492 396 492 277 c 2,18,-1
 492 248 l 1,19,-1
 102 248 l 1,20,0
 102 154 102 154 150.5 91.5 c 128,-1,1
451 287 m 1,21,22
 451 377 451 377 408 432.5 c 128,-1,23
 365 488 365 488 281 488 c 0,24,25
 221 488 221 488 181 459 c 128,-1,26
 141 430 141 430 121.5 384 c 128,-1,27
 102 338 102 338 103 287 c 1,28,-1
 451 287 l 1,21,22
406 686 m 1,29,-1
 167 608 l 1,30,-1
 157 639 l 1,31,-1
 392 731 l 1,32,-1
 406 686 l 1,29,-1
EndSplineSet
EndChar

StartChar: ecircumflex
Encoding: 234 234 171
Width: 552
GlyphClass: 2
Flags: W
AnchorPoint: "Anchor-5" 0 0 basechar 0
AnchorPoint: "Anchor-4" 273 0 basechar 0
AnchorPoint: "Anchor-3" 282 517 basechar 0
AnchorPoint: "Anchor-2" 375 18 basechar 0
LayerCount: 2
Fore
SplineSet
150.5 91.5 m 128,-1,1
 199 29 199 29 292 29 c 0,2,3
 409 29 409 29 444 122 c 1,4,-1
 481 106 l 1,5,6
 461 51 461 51 411 20.5 c 128,-1,7
 361 -10 361 -10 292 -10 c 0,8,9
 224 -10 224 -10 171.5 21 c 128,-1,10
 119 52 119 52 89.5 111.5 c 128,-1,11
 60 171 60 171 60 254 c 0,12,13
 60 383 60 383 118.5 455 c 128,-1,14
 177 527 177 527 282 527 c 0,15,16
 381 527 381 527 436.5 461.5 c 128,-1,17
 492 396 492 396 492 277 c 2,18,-1
 492 248 l 1,19,-1
 102 248 l 1,20,0
 102 154 102 154 150.5 91.5 c 128,-1,1
451 287 m 1,21,22
 451 377 451 377 408 432.5 c 128,-1,23
 365 488 365 488 281 488 c 0,24,25
 221 488 221 488 181 459 c 128,-1,26
 141 430 141 430 121.5 384 c 128,-1,27
 102 338 102 338 103 287 c 1,28,-1
 451 287 l 1,21,22
282 688 m 1,29,-1
 204 628 l 1,30,-1
 148 628 l 1,31,-1
 267 723 l 1,32,-1
 299 723 l 1,33,-1
 416 628 l 1,34,-1
 356 628 l 1,35,-1
 282 688 l 1,29,-1
EndSplineSet
EndChar

StartChar: edieresis
Encoding: 235 235 172
Width: 552
GlyphClass: 2
Flags: W
AnchorPoint: "Anchor-5" 0 0 basechar 0
AnchorPoint: "Anchor-4" 273 0 basechar 0
AnchorPoint: "Anchor-3" 282 517 basechar 0
AnchorPoint: "Anchor-2" 375 18 basechar 0
LayerCount: 2
Fore
SplineSet
150.5 91.5 m 128,-1,1
 199 29 199 29 292 29 c 0,2,3
 409 29 409 29 444 122 c 1,4,-1
 481 106 l 1,5,6
 461 51 461 51 411 20.5 c 128,-1,7
 361 -10 361 -10 292 -10 c 0,8,9
 224 -10 224 -10 171.5 21 c 128,-1,10
 119 52 119 52 89.5 111.5 c 128,-1,11
 60 171 60 171 60 254 c 0,12,13
 60 383 60 383 118.5 455 c 128,-1,14
 177 527 177 527 282 527 c 0,15,16
 381 527 381 527 436.5 461.5 c 128,-1,17
 492 396 492 396 492 277 c 2,18,-1
 492 248 l 1,19,-1
 102 248 l 1,20,0
 102 154 102 154 150.5 91.5 c 128,-1,1
451 287 m 1,21,22
 451 377 451 377 408 432.5 c 128,-1,23
 365 488 365 488 281 488 c 0,24,25
 221 488 221 488 181 459 c 128,-1,26
 141 430 141 430 121.5 384 c 128,-1,27
 102 338 102 338 103 287 c 1,28,-1
 451 287 l 1,21,22
251 628 m 1,29,-1
 203 628 l 1,30,-1
 203 723 l 1,31,-1
 251 723 l 1,32,-1
 251 628 l 1,29,-1
360 628 m 1,33,-1
 311 628 l 1,34,-1
 311 723 l 1,35,-1
 360 723 l 1,36,-1
 360 628 l 1,33,-1
EndSplineSet
EndChar

StartChar: igrave
Encoding: 236 236 173
Width: 219
GlyphClass: 2
Flags: W
AnchorPoint: "Anchor-5" 0 0 basechar 0
AnchorPoint: "Anchor-4" 0 0 basechar 0
AnchorPoint: "Anchor-3" 109 517 basechar 0
AnchorPoint: "Anchor-2" 121 13 basechar 0
LayerCount: 2
Fore
SplineSet
129 0 m 1,0,-1
 90 0 l 1,1,-1
 90 517 l 1,2,-1
 129 517 l 1,3,-1
 129 0 l 1,0,-1
216 639 m 1,4,-1
 206 608 l 1,5,-1
 -33 686 l 1,6,-1
 -19 731 l 1,7,-1
 216 639 l 1,4,-1
EndSplineSet
EndChar

StartChar: iacute
Encoding: 237 237 174
Width: 219
GlyphClass: 2
Flags: W
AnchorPoint: "Anchor-5" 0 0 basechar 0
AnchorPoint: "Anchor-4" 0 0 basechar 0
AnchorPoint: "Anchor-3" 109 517 basechar 0
AnchorPoint: "Anchor-2" 121 13 basechar 0
LayerCount: 2
Fore
SplineSet
129 0 m 1,0,-1
 90 0 l 1,1,-1
 90 517 l 1,2,-1
 129 517 l 1,3,-1
 129 0 l 1,0,-1
233 686 m 1,4,-1
 -6 608 l 1,5,-1
 -16 639 l 1,6,-1
 219 731 l 1,7,-1
 233 686 l 1,4,-1
EndSplineSet
EndChar

StartChar: icircumflex
Encoding: 238 238 175
Width: 219
GlyphClass: 2
Flags: W
AnchorPoint: "Anchor-5" 0 0 basechar 0
AnchorPoint: "Anchor-4" 0 0 basechar 0
AnchorPoint: "Anchor-3" 109 517 basechar 0
AnchorPoint: "Anchor-2" 121 13 basechar 0
LayerCount: 2
Fore
SplineSet
129 0 m 1,0,-1
 90 0 l 1,1,-1
 90 517 l 1,2,-1
 129 517 l 1,3,-1
 129 0 l 1,0,-1
109 688 m 1,4,-1
 31 628 l 1,5,-1
 -25 628 l 1,6,-1
 94 723 l 1,7,-1
 126 723 l 1,8,-1
 243 628 l 1,9,-1
 183 628 l 1,10,-1
 109 688 l 1,4,-1
EndSplineSet
EndChar

StartChar: idieresis
Encoding: 239 239 176
Width: 219
GlyphClass: 2
Flags: W
AnchorPoint: "Anchor-5" 0 0 basechar 0
AnchorPoint: "Anchor-4" 0 0 basechar 0
AnchorPoint: "Anchor-3" 109 517 basechar 0
AnchorPoint: "Anchor-2" 121 13 basechar 0
LayerCount: 2
Fore
SplineSet
129 0 m 1,0,-1
 90 0 l 1,1,-1
 90 517 l 1,2,-1
 129 517 l 1,3,-1
 129 0 l 1,0,-1
78 628 m 1,4,-1
 30 628 l 1,5,-1
 30 723 l 1,6,-1
 78 723 l 1,7,-1
 78 628 l 1,4,-1
187 628 m 1,8,-1
 138 628 l 1,9,-1
 138 723 l 1,10,-1
 187 723 l 1,11,-1
 187 628 l 1,8,-1
EndSplineSet
EndChar

StartChar: eth
Encoding: 240 240 177
Width: 594
GlyphClass: 2
Flags: W
LayerCount: 2
Fore
SplineSet
505.5 114.5 m 128,-1,1
 477 56 477 56 423 23 c 128,-1,2
 369 -10 369 -10 295 -10 c 0,3,4
 226 -10 226 -10 172.5 22.5 c 128,-1,5
 119 55 119 55 89.5 113.5 c 128,-1,6
 60 172 60 172 60 246 c 0,7,8
 60 321 60 321 89 380.5 c 128,-1,9
 118 440 118 440 170 473.5 c 128,-1,10
 222 507 222 507 288 507 c 0,11,12
 339 507 339 507 382 489.5 c 128,-1,13
 425 472 425 472 456 440 c 1,14,15
 408 553 408 553 291 632 c 1,16,-1
 120 535 l 1,17,-1
 101 566 l 1,18,-1
 258 653 l 1,19,20
 211 680 211 680 137 710 c 1,21,-1
 173 734 l 1,22,23
 231 711 231 711 295 675 c 1,24,-1
 403 735 l 1,25,-1
 419 703 l 1,26,-1
 328 652 l 1,27,28
 437 578 437 578 485.5 477.5 c 128,-1,29
 534 377 534 377 534 249 c 0,30,0
 534 173 534 173 505.5 114.5 c 128,-1,1
398.5 56 m 128,-1,32
 443 85 443 85 468 136 c 128,-1,33
 493 187 493 187 493 248 c 128,-1,34
 493 309 493 309 467.5 360 c 128,-1,35
 442 411 442 411 397 440.5 c 128,-1,36
 352 470 352 470 298 470 c 0,37,38
 243 470 243 470 197.5 440.5 c 128,-1,39
 152 411 152 411 126.5 360 c 128,-1,40
 101 309 101 309 101 248 c 128,-1,41
 101 187 101 187 127 136.5 c 128,-1,42
 153 86 153 86 198 56.5 c 128,-1,43
 243 27 243 27 299 27 c 0,44,31
 354 27 354 27 398.5 56 c 128,-1,32
EndSplineSet
EndChar

StartChar: ntilde
Encoding: 241 241 178
Width: 571
GlyphClass: 2
Flags: W
AnchorPoint: "Anchor-5" 0 0 basechar 0
AnchorPoint: "Anchor-4" 287 0 basechar 0
AnchorPoint: "Anchor-3" 296 517 basechar 0
AnchorPoint: "Anchor-2" 0 0 basechar 0
LayerCount: 2
Fore
SplineSet
90 517 m 1,0,-1
 126 517 l 1,1,-1
 126 440 l 1,2,3
 147 478 147 478 193 502.5 c 128,-1,4
 239 527 239 527 300 527 c 0,5,6
 381 527 381 527 431 478.5 c 128,-1,7
 481 430 481 430 481 335 c 2,8,-1
 481 0 l 1,9,-1
 442 0 l 1,10,-1
 442 335 l 2,11,12
 442 409 442 409 404.5 449 c 128,-1,13
 367 489 367 489 300 489 c 0,14,15
 226 489 226 489 177.5 456 c 128,-1,16
 129 423 129 423 129 360 c 2,17,-1
 129 0 l 1,18,-1
 90 0 l 1,19,-1
 90 517 l 1,0,-1
390.5 661.5 m 128,-1,21
 376 656 376 656 353 656 c 0,22,23
 335 656 335 656 323 659 c 128,-1,24
 311 662 311 662 290 669 c 0,25,26
 262 680 262 680 242 680 c 0,27,28
 227 680 227 680 217 676 c 128,-1,29
 207 672 207 672 199 667 c 128,-1,30
 191 662 191 662 187 660 c 0,31,32
 182 658 182 658 180 658.5 c 128,-1,33
 178 659 178 659 177 664 c 2,34,-1
 170 680 l 2,35,36
 169 682 169 682 169.5 684 c 128,-1,37
 170 686 170 686 172 687 c 0,38,39
 190 700 190 700 204 706.5 c 128,-1,40
 218 713 218 713 238 713 c 0,41,42
 260 713 260 713 296 701 c 0,43,44
 329 688 329 688 354 688 c 0,45,46
 368 688 368 688 378 691.5 c 128,-1,47
 388 695 388 695 403 704 c 0,48,49
 408 707 408 707 410.5 706.5 c 128,-1,50
 413 706 413 706 415 701 c 2,51,-1
 423 683 l 2,52,53
 424 682 424 682 424 680 c 128,-1,54
 424 678 424 678 418 675 c 0,55,20
 405 667 405 667 390.5 661.5 c 128,-1,21
EndSplineSet
EndChar

StartChar: ograve
Encoding: 242 242 179
Width: 565
GlyphClass: 2
Flags: W
AnchorPoint: "Anchor-5" 0 0 basechar 0
AnchorPoint: "Anchor-4" 282 0 basechar 0
AnchorPoint: "Anchor-3" 285 517 basechar 0
AnchorPoint: "Anchor-2" 345 10 basechar 0
LayerCount: 2
Fore
SplineSet
118.5 62.5 m 128,-1,1
 60 135 60 135 60 255 c 0,2,3
 60 335 60 335 86.5 396.5 c 128,-1,4
 113 458 113 458 163.5 492.5 c 128,-1,5
 214 527 214 527 284 527 c 0,6,7
 353 527 353 527 403 493 c 128,-1,8
 453 459 453 459 479 397.5 c 128,-1,9
 505 336 505 336 505 257 c 0,10,11
 505 136 505 136 446.5 63 c 128,-1,12
 388 -10 388 -10 283 -10 c 0,13,0
 177 -10 177 -10 118.5 62.5 c 128,-1,1
418.5 88.5 m 128,-1,15
 464 150 464 150 464 257 c 128,-1,16
 464 364 464 364 417.5 426.5 c 128,-1,17
 371 489 371 489 284 489 c 0,18,19
 196 489 196 489 148.5 426 c 128,-1,20
 101 363 101 363 101 257 c 0,21,22
 101 152 101 152 148.5 89.5 c 128,-1,23
 196 27 196 27 285 27 c 0,24,14
 373 27 373 27 418.5 88.5 c 128,-1,15
392 639 m 1,25,-1
 382 608 l 1,26,-1
 143 686 l 1,27,-1
 157 731 l 1,28,-1
 392 639 l 1,25,-1
EndSplineSet
EndChar

StartChar: oacute
Encoding: 243 243 180
Width: 565
GlyphClass: 2
Flags: W
AnchorPoint: "Anchor-5" 0 0 basechar 0
AnchorPoint: "Anchor-4" 282 0 basechar 0
AnchorPoint: "Anchor-3" 285 517 basechar 0
AnchorPoint: "Anchor-2" 345 10 basechar 0
LayerCount: 2
Fore
SplineSet
118.5 62.5 m 128,-1,1
 60 135 60 135 60 255 c 0,2,3
 60 335 60 335 86.5 396.5 c 128,-1,4
 113 458 113 458 163.5 492.5 c 128,-1,5
 214 527 214 527 284 527 c 0,6,7
 353 527 353 527 403 493 c 128,-1,8
 453 459 453 459 479 397.5 c 128,-1,9
 505 336 505 336 505 257 c 0,10,11
 505 136 505 136 446.5 63 c 128,-1,12
 388 -10 388 -10 283 -10 c 0,13,0
 177 -10 177 -10 118.5 62.5 c 128,-1,1
418.5 88.5 m 128,-1,15
 464 150 464 150 464 257 c 128,-1,16
 464 364 464 364 417.5 426.5 c 128,-1,17
 371 489 371 489 284 489 c 0,18,19
 196 489 196 489 148.5 426 c 128,-1,20
 101 363 101 363 101 257 c 0,21,22
 101 152 101 152 148.5 89.5 c 128,-1,23
 196 27 196 27 285 27 c 0,24,14
 373 27 373 27 418.5 88.5 c 128,-1,15
409 686 m 1,25,-1
 170 608 l 1,26,-1
 160 639 l 1,27,-1
 395 731 l 1,28,-1
 409 686 l 1,25,-1
EndSplineSet
EndChar

StartChar: ocircumflex
Encoding: 244 244 181
Width: 565
GlyphClass: 2
Flags: W
AnchorPoint: "Anchor-5" 0 0 basechar 0
AnchorPoint: "Anchor-4" 282 0 basechar 0
AnchorPoint: "Anchor-3" 285 517 basechar 0
AnchorPoint: "Anchor-2" 345 10 basechar 0
LayerCount: 2
Fore
SplineSet
118.5 62.5 m 128,-1,1
 60 135 60 135 60 255 c 0,2,3
 60 335 60 335 86.5 396.5 c 128,-1,4
 113 458 113 458 163.5 492.5 c 128,-1,5
 214 527 214 527 284 527 c 0,6,7
 353 527 353 527 403 493 c 128,-1,8
 453 459 453 459 479 397.5 c 128,-1,9
 505 336 505 336 505 257 c 0,10,11
 505 136 505 136 446.5 63 c 128,-1,12
 388 -10 388 -10 283 -10 c 0,13,0
 177 -10 177 -10 118.5 62.5 c 128,-1,1
418.5 88.5 m 128,-1,15
 464 150 464 150 464 257 c 128,-1,16
 464 364 464 364 417.5 426.5 c 128,-1,17
 371 489 371 489 284 489 c 0,18,19
 196 489 196 489 148.5 426 c 128,-1,20
 101 363 101 363 101 257 c 0,21,22
 101 152 101 152 148.5 89.5 c 128,-1,23
 196 27 196 27 285 27 c 0,24,14
 373 27 373 27 418.5 88.5 c 128,-1,15
285 688 m 1,25,-1
 207 628 l 1,26,-1
 151 628 l 1,27,-1
 270 723 l 1,28,-1
 302 723 l 1,29,-1
 419 628 l 1,30,-1
 359 628 l 1,31,-1
 285 688 l 1,25,-1
EndSplineSet
EndChar

StartChar: otilde
Encoding: 245 245 182
Width: 565
GlyphClass: 2
Flags: W
AnchorPoint: "Anchor-5" 0 0 basechar 0
AnchorPoint: "Anchor-4" 282 0 basechar 0
AnchorPoint: "Anchor-3" 285 517 basechar 0
AnchorPoint: "Anchor-2" 345 10 basechar 0
LayerCount: 2
Fore
SplineSet
118.5 62.5 m 128,-1,1
 60 135 60 135 60 255 c 0,2,3
 60 335 60 335 86.5 396.5 c 128,-1,4
 113 458 113 458 163.5 492.5 c 128,-1,5
 214 527 214 527 284 527 c 0,6,7
 353 527 353 527 403 493 c 128,-1,8
 453 459 453 459 479 397.5 c 128,-1,9
 505 336 505 336 505 257 c 0,10,11
 505 136 505 136 446.5 63 c 128,-1,12
 388 -10 388 -10 283 -10 c 0,13,0
 177 -10 177 -10 118.5 62.5 c 128,-1,1
418.5 88.5 m 128,-1,15
 464 150 464 150 464 257 c 128,-1,16
 464 364 464 364 417.5 426.5 c 128,-1,17
 371 489 371 489 284 489 c 0,18,19
 196 489 196 489 148.5 426 c 128,-1,20
 101 363 101 363 101 257 c 0,21,22
 101 152 101 152 148.5 89.5 c 128,-1,23
 196 27 196 27 285 27 c 0,24,14
 373 27 373 27 418.5 88.5 c 128,-1,15
379.5 661.5 m 128,-1,26
 365 656 365 656 342 656 c 0,27,28
 324 656 324 656 312 659 c 128,-1,29
 300 662 300 662 279 669 c 0,30,31
 251 680 251 680 231 680 c 0,32,33
 216 680 216 680 206 676 c 128,-1,34
 196 672 196 672 188 667 c 128,-1,35
 180 662 180 662 176 660 c 0,36,37
 171 658 171 658 169 658.5 c 128,-1,38
 167 659 167 659 166 664 c 2,39,-1
 159 680 l 2,40,41
 158 682 158 682 158.5 684 c 128,-1,42
 159 686 159 686 161 687 c 0,43,44
 179 700 179 700 193 706.5 c 128,-1,45
 207 713 207 713 227 713 c 0,46,47
 249 713 249 713 285 701 c 0,48,49
 318 688 318 688 343 688 c 0,50,51
 357 688 357 688 367 691.5 c 128,-1,52
 377 695 377 695 392 704 c 0,53,54
 397 707 397 707 399.5 706.5 c 128,-1,55
 402 706 402 706 404 701 c 2,56,-1
 412 683 l 2,57,58
 413 682 413 682 413 680 c 128,-1,59
 413 678 413 678 407 675 c 0,60,25
 394 667 394 667 379.5 661.5 c 128,-1,26
EndSplineSet
EndChar

StartChar: odieresis
Encoding: 246 246 183
Width: 565
GlyphClass: 2
Flags: W
AnchorPoint: "Anchor-5" 0 0 basechar 0
AnchorPoint: "Anchor-4" 282 0 basechar 0
AnchorPoint: "Anchor-3" 285 517 basechar 0
AnchorPoint: "Anchor-2" 345 10 basechar 0
LayerCount: 2
Fore
SplineSet
118.5 62.5 m 128,-1,1
 60 135 60 135 60 255 c 0,2,3
 60 335 60 335 86.5 396.5 c 128,-1,4
 113 458 113 458 163.5 492.5 c 128,-1,5
 214 527 214 527 284 527 c 0,6,7
 353 527 353 527 403 493 c 128,-1,8
 453 459 453 459 479 397.5 c 128,-1,9
 505 336 505 336 505 257 c 0,10,11
 505 136 505 136 446.5 63 c 128,-1,12
 388 -10 388 -10 283 -10 c 0,13,0
 177 -10 177 -10 118.5 62.5 c 128,-1,1
418.5 88.5 m 128,-1,15
 464 150 464 150 464 257 c 128,-1,16
 464 364 464 364 417.5 426.5 c 128,-1,17
 371 489 371 489 284 489 c 0,18,19
 196 489 196 489 148.5 426 c 128,-1,20
 101 363 101 363 101 257 c 0,21,22
 101 152 101 152 148.5 89.5 c 128,-1,23
 196 27 196 27 285 27 c 0,24,14
 373 27 373 27 418.5 88.5 c 128,-1,15
254 628 m 1,25,-1
 206 628 l 1,26,-1
 206 723 l 1,27,-1
 254 723 l 1,28,-1
 254 628 l 1,25,-1
363 628 m 1,29,-1
 314 628 l 1,30,-1
 314 723 l 1,31,-1
 363 723 l 1,32,-1
 363 628 l 1,29,-1
EndSplineSet
EndChar

StartChar: divide
Encoding: 247 247 184
Width: 527
GlyphClass: 2
Flags: W
LayerCount: 2
Fore
SplineSet
304 480 m 1,0,-1
 224 480 l 1,1,-1
 224 557 l 1,2,-1
 304 557 l 1,3,-1
 304 480 l 1,0,-1
459 345 m 1,4,-1
 68 344 l 1,5,-1
 68 381 l 1,6,-1
 459 382 l 1,7,-1
 459 345 l 1,4,-1
304 170 m 1,8,-1
 224 170 l 1,9,-1
 224 247 l 1,10,-1
 304 247 l 1,11,-1
 304 170 l 1,8,-1
EndSplineSet
EndChar

StartChar: oslash
Encoding: 248 248 185
Width: 561
GlyphClass: 2
Flags: W
AnchorPoint: "Anchor-5" 0 0 basechar 0
AnchorPoint: "Anchor-4" 278 0 basechar 0
AnchorPoint: "Anchor-3" 281 517 basechar 0
AnchorPoint: "Anchor-2" 341 10 basechar 0
LayerCount: 2
Fore
SplineSet
467 414 m 1,0,1
 501 348 501 348 501 257 c 0,2,3
 501 136 501 136 442.5 63 c 128,-1,4
 384 -10 384 -10 279 -10 c 0,5,6
 173 -10 173 -10 112 65 c 1,7,-1
 42 -4 l 1,8,-1
 15 24 l 1,9,-1
 91 98 l 1,10,11
 56 163 56 163 56 255 c 0,12,13
 56 335 56 335 82.5 396.5 c 128,-1,14
 109 458 109 458 159.5 492.5 c 128,-1,15
 210 527 210 527 280 527 c 0,16,17
 386 527 386 527 446 448 c 1,18,-1
 518 519 l 1,19,-1
 545 491 l 1,20,-1
 467 414 l 1,0,1
121 129 m 1,21,-1
 418 421 l 1,22,23
 371 489 371 489 280 489 c 0,24,25
 192 489 192 489 144.5 426 c 128,-1,26
 97 363 97 363 97 257 c 0,27,28
 97 182 97 182 121 129 c 1,21,-1
437 385 m 1,29,-1
 141 94 l 1,30,31
 189 27 189 27 281 27 c 0,32,33
 369 27 369 27 414.5 88.5 c 128,-1,34
 460 150 460 150 460 257 c 0,35,36
 460 330 460 330 437 385 c 1,29,-1
EndSplineSet
EndChar

StartChar: ugrave
Encoding: 249 249 186
Width: 571
GlyphClass: 2
Flags: W
AnchorPoint: "Anchor-5" 0 0 basechar 0
AnchorPoint: "Anchor-4" 284 0 basechar 0
AnchorPoint: "Anchor-3" 273 517 basechar 0
AnchorPoint: "Anchor-2" 472 11 basechar 0
LayerCount: 2
Fore
SplineSet
194 8.5 m 128,-1,1
 149 26 149 26 119.5 67 c 128,-1,2
 90 108 90 108 90 174 c 2,3,-1
 90 519 l 1,4,-1
 129 519 l 1,5,-1
 129 174 l 2,6,7
 129 97 129 97 176 63 c 128,-1,8
 223 29 223 29 282 29 c 0,9,10
 324 29 324 29 360 46 c 128,-1,11
 396 63 396 63 419 97.5 c 128,-1,12
 442 132 442 132 442 182 c 2,13,-1
 442 519 l 1,14,-1
 481 519 l 1,15,-1
 481 1 l 1,16,-1
 445 1 l 1,17,-1
 445 86 l 1,18,19
 437 64 437 64 413 42 c 128,-1,20
 389 20 389 20 356 5.5 c 128,-1,21
 323 -9 323 -9 287 -9 c 0,22,0
 239 -9 239 -9 194 8.5 c 128,-1,1
380 639 m 1,23,-1
 370 608 l 1,24,-1
 131 686 l 1,25,-1
 145 731 l 1,26,-1
 380 639 l 1,23,-1
EndSplineSet
EndChar

StartChar: uacute
Encoding: 250 250 187
Width: 571
GlyphClass: 2
Flags: W
AnchorPoint: "Anchor-5" 0 0 basechar 0
AnchorPoint: "Anchor-4" 284 0 basechar 0
AnchorPoint: "Anchor-3" 273 517 basechar 0
AnchorPoint: "Anchor-2" 472 11 basechar 0
LayerCount: 2
Fore
SplineSet
194 8.5 m 128,-1,1
 149 26 149 26 119.5 67 c 128,-1,2
 90 108 90 108 90 174 c 2,3,-1
 90 519 l 1,4,-1
 129 519 l 1,5,-1
 129 174 l 2,6,7
 129 97 129 97 176 63 c 128,-1,8
 223 29 223 29 282 29 c 0,9,10
 324 29 324 29 360 46 c 128,-1,11
 396 63 396 63 419 97.5 c 128,-1,12
 442 132 442 132 442 182 c 2,13,-1
 442 519 l 1,14,-1
 481 519 l 1,15,-1
 481 1 l 1,16,-1
 445 1 l 1,17,-1
 445 86 l 1,18,19
 437 64 437 64 413 42 c 128,-1,20
 389 20 389 20 356 5.5 c 128,-1,21
 323 -9 323 -9 287 -9 c 0,22,0
 239 -9 239 -9 194 8.5 c 128,-1,1
397 686 m 1,23,-1
 158 608 l 1,24,-1
 148 639 l 1,25,-1
 383 731 l 1,26,-1
 397 686 l 1,23,-1
EndSplineSet
EndChar

StartChar: ucircumflex
Encoding: 251 251 188
Width: 571
GlyphClass: 2
Flags: W
AnchorPoint: "Anchor-5" 0 0 basechar 0
AnchorPoint: "Anchor-4" 284 0 basechar 0
AnchorPoint: "Anchor-3" 273 517 basechar 0
AnchorPoint: "Anchor-2" 472 11 basechar 0
LayerCount: 2
Fore
SplineSet
194 8.5 m 128,-1,1
 149 26 149 26 119.5 67 c 128,-1,2
 90 108 90 108 90 174 c 2,3,-1
 90 519 l 1,4,-1
 129 519 l 1,5,-1
 129 174 l 2,6,7
 129 97 129 97 176 63 c 128,-1,8
 223 29 223 29 282 29 c 0,9,10
 324 29 324 29 360 46 c 128,-1,11
 396 63 396 63 419 97.5 c 128,-1,12
 442 132 442 132 442 182 c 2,13,-1
 442 519 l 1,14,-1
 481 519 l 1,15,-1
 481 1 l 1,16,-1
 445 1 l 1,17,-1
 445 86 l 1,18,19
 437 64 437 64 413 42 c 128,-1,20
 389 20 389 20 356 5.5 c 128,-1,21
 323 -9 323 -9 287 -9 c 0,22,0
 239 -9 239 -9 194 8.5 c 128,-1,1
273 688 m 1,23,-1
 195 628 l 1,24,-1
 139 628 l 1,25,-1
 258 723 l 1,26,-1
 290 723 l 1,27,-1
 407 628 l 1,28,-1
 347 628 l 1,29,-1
 273 688 l 1,23,-1
EndSplineSet
EndChar

StartChar: udieresis
Encoding: 252 252 189
Width: 571
GlyphClass: 2
Flags: W
AnchorPoint: "Anchor-5" 0 0 basechar 0
AnchorPoint: "Anchor-4" 284 0 basechar 0
AnchorPoint: "Anchor-3" 273 517 basechar 0
AnchorPoint: "Anchor-2" 472 11 basechar 0
LayerCount: 2
Fore
SplineSet
194 8.5 m 128,-1,1
 149 26 149 26 119.5 67 c 128,-1,2
 90 108 90 108 90 174 c 2,3,-1
 90 519 l 1,4,-1
 129 519 l 1,5,-1
 129 174 l 2,6,7
 129 97 129 97 176 63 c 128,-1,8
 223 29 223 29 282 29 c 0,9,10
 324 29 324 29 360 46 c 128,-1,11
 396 63 396 63 419 97.5 c 128,-1,12
 442 132 442 132 442 182 c 2,13,-1
 442 519 l 1,14,-1
 481 519 l 1,15,-1
 481 1 l 1,16,-1
 445 1 l 1,17,-1
 445 86 l 1,18,19
 437 64 437 64 413 42 c 128,-1,20
 389 20 389 20 356 5.5 c 128,-1,21
 323 -9 323 -9 287 -9 c 0,22,0
 239 -9 239 -9 194 8.5 c 128,-1,1
242 628 m 1,23,-1
 194 628 l 1,24,-1
 194 723 l 1,25,-1
 242 723 l 1,26,-1
 242 628 l 1,23,-1
351 628 m 1,27,-1
 302 628 l 1,28,-1
 302 723 l 1,29,-1
 351 723 l 1,30,-1
 351 628 l 1,27,-1
EndSplineSet
EndChar

StartChar: yacute
Encoding: 253 253 190
Width: 491
GlyphClass: 2
Flags: W
AnchorPoint: "Anchor-5" 0 0 basechar 0
AnchorPoint: "Anchor-4" 0 0 basechar 0
AnchorPoint: "Anchor-3" 248 517 basechar 0
AnchorPoint: "Anchor-2" 0 0 basechar 0
LayerCount: 2
Fore
SplineSet
57.5 -161.5 m 128,-1,1
 42 -158 42 -158 42 -157 c 2,2,-1
 42 -130 l 1,3,-1
 97 -130 l 2,4,5
 142 -130 142 -130 165.5 -113 c 128,-1,6
 189 -96 189 -96 202 -66 c 2,7,-1
 228 3 l 1,8,-1
 26 517 l 1,9,-1
 68 517 l 1,10,-1
 249 56 l 1,11,-1
 427 517 l 1,12,-1
 465 517 l 1,13,-1
 239 -75 l 2,14,15
 203 -165 203 -165 104 -165 c 0,16,0
 73 -165 73 -165 57.5 -161.5 c 128,-1,1
372 686 m 1,17,-1
 133 608 l 1,18,-1
 123 639 l 1,19,-1
 358 731 l 1,20,-1
 372 686 l 1,17,-1
EndSplineSet
EndChar

StartChar: thorn
Encoding: 254 254 191
Width: 580
GlyphClass: 2
Flags: W
LayerCount: 2
Fore
SplineSet
127 440 m 2,0,1
 129 442 129 442 148 466 c 128,-1,2
 167 490 167 490 207.5 508.5 c 128,-1,3
 248 527 248 527 297 527 c 0,4,5
 361 527 361 527 411.5 497.5 c 128,-1,6
 462 468 462 468 491 410 c 128,-1,7
 520 352 520 352 520 268 c 0,8,9
 520 186 520 186 491.5 123 c 128,-1,10
 463 60 463 60 410 25 c 128,-1,11
 357 -10 357 -10 286 -10 c 0,12,13
 204 -10 204 -10 142 39 c 0,14,15
 135 44 135 44 133 44 c 0,16,17
 129 44 129 44 129 32 c 2,18,-1
 129 -161 l 1,19,-1
 90 -161 l 1,20,-1
 90 723 l 1,21,-1
 127 723 l 1,22,-1
 127 440 l 2,0,1
204.5 46 m 128,-1,24
 242 27 242 27 285 27 c 0,25,26
 341 27 341 27 385 55.5 c 128,-1,27
 429 84 429 84 454 138 c 128,-1,28
 479 192 479 192 479 264 c 0,29,30
 479 338 479 338 453.5 389 c 128,-1,31
 428 440 428 440 385.5 464.5 c 128,-1,32
 343 489 343 489 292 489 c 0,33,34
 246 489 246 489 208.5 468.5 c 128,-1,35
 171 448 171 448 150 416.5 c 128,-1,36
 129 385 129 385 129 355 c 2,37,-1
 129 101 l 1,38,23
 167 65 167 65 204.5 46 c 128,-1,24
EndSplineSet
EndChar

StartChar: ydieresis
Encoding: 255 255 192
Width: 491
GlyphClass: 2
Flags: W
AnchorPoint: "Anchor-5" 0 0 basechar 0
AnchorPoint: "Anchor-4" 0 0 basechar 0
AnchorPoint: "Anchor-3" 248 517 basechar 0
AnchorPoint: "Anchor-2" 0 0 basechar 0
LayerCount: 2
Fore
SplineSet
57.5 -161.5 m 128,-1,1
 42 -158 42 -158 42 -157 c 2,2,-1
 42 -130 l 1,3,-1
 97 -130 l 2,4,5
 142 -130 142 -130 165.5 -113 c 128,-1,6
 189 -96 189 -96 202 -66 c 2,7,-1
 228 3 l 1,8,-1
 26 517 l 1,9,-1
 68 517 l 1,10,-1
 249 56 l 1,11,-1
 427 517 l 1,12,-1
 465 517 l 1,13,-1
 239 -75 l 2,14,15
 203 -165 203 -165 104 -165 c 0,16,0
 73 -165 73 -165 57.5 -161.5 c 128,-1,1
217 628 m 1,17,-1
 169 628 l 1,18,-1
 169 723 l 1,19,-1
 217 723 l 1,20,-1
 217 628 l 1,17,-1
326 628 m 1,21,-1
 277 628 l 1,22,-1
 277 723 l 1,23,-1
 326 723 l 1,24,-1
 326 628 l 1,21,-1
EndSplineSet
EndChar

StartChar: Amacron
Encoding: 256 256 193
Width: 684
GlyphClass: 2
Flags: W
AnchorPoint: "Anchor-5" 0 0 basechar 0
AnchorPoint: "Anchor-4" 0 0 basechar 0
AnchorPoint: "Anchor-3" 342 723 basechar 0
AnchorPoint: "Anchor-2" 624 11 basechar 0
LayerCount: 2
Fore
SplineSet
315 723 m 1,0,-1
 370 723 l 1,1,-1
 634 0 l 1,2,-1
 591 0 l 1,3,-1
 508 228 l 1,4,-1
 177 228 l 1,5,-1
 92 0 l 1,6,-1
 50 0 l 1,7,-1
 315 723 l 1,0,-1
493 271 m 1,8,-1
 343 681 l 1,9,-1
 191 271 l 1,10,-1
 493 271 l 1,8,-1
464 873 m 1,11,-1
 219 873 l 1,12,-1
 219 910 l 1,13,-1
 464 910 l 1,14,-1
 464 873 l 1,11,-1
EndSplineSet
EndChar

StartChar: amacron
Encoding: 257 257 194
Width: 549
GlyphClass: 2
Flags: W
AnchorPoint: "Anchor-5" 0 0 basechar 0
AnchorPoint: "Anchor-4" 0 0 basechar 0
AnchorPoint: "Anchor-3" 273 517 basechar 0
AnchorPoint: "Anchor-2" 453 14 basechar 0
LayerCount: 2
Fore
SplineSet
104.5 28 m 128,-1,1
 60 66 60 66 60 132 c 0,2,3
 60 190 60 190 84 224 c 128,-1,4
 108 258 108 258 160 275.5 c 128,-1,5
 212 293 212 293 301 300 c 2,6,-1
 420 310 l 1,7,-1
 420 354 l 2,8,9
 420 416 420 416 380.5 452.5 c 128,-1,10
 341 489 341 489 275 489 c 0,11,12
 175 489 175 489 106 393 c 1,13,-1
 73 413 l 1,14,15
 107 465 107 465 158 496 c 128,-1,16
 209 527 209 527 277 527 c 0,17,18
 360 527 360 527 409.5 481.5 c 128,-1,19
 459 436 459 436 459 358 c 2,20,-1
 459 0 l 1,21,-1
 423 0 l 1,22,-1
 421 80 l 1,23,24
 337 -10 337 -10 226 -10 c 0,25,0
 149 -10 149 -10 104.5 28 c 128,-1,1
318.5 47.5 m 128,-1,27
 363 68 363 68 391.5 100.5 c 128,-1,28
 420 133 420 133 420 167 c 2,29,-1
 420 274 l 1,30,-1
 320 266 l 2,31,32
 235 260 235 260 188.5 246.5 c 128,-1,33
 142 233 142 233 121.5 207 c 128,-1,34
 101 181 101 181 101 135 c 0,35,36
 101 85 101 85 136.5 56 c 128,-1,37
 172 27 172 27 232 27 c 0,38,26
 274 27 274 27 318.5 47.5 c 128,-1,27
395 667 m 1,39,-1
 150 667 l 1,40,-1
 150 704 l 1,41,-1
 395 704 l 1,42,-1
 395 667 l 1,39,-1
EndSplineSet
EndChar

StartChar: Abreve
Encoding: 258 258 195
Width: 684
GlyphClass: 2
Flags: W
AnchorPoint: "Anchor-5" 0 0 basechar 0
AnchorPoint: "Anchor-4" 0 0 basechar 0
AnchorPoint: "Anchor-3" 342 723 basechar 0
AnchorPoint: "Anchor-2" 624 11 basechar 0
LayerCount: 2
Fore
SplineSet
315 723 m 1,0,-1
 370 723 l 1,1,-1
 634 0 l 1,2,-1
 591 0 l 1,3,-1
 508 228 l 1,4,-1
 177 228 l 1,5,-1
 92 0 l 1,6,-1
 50 0 l 1,7,-1
 315 723 l 1,0,-1
493 271 m 1,8,-1
 343 681 l 1,9,-1
 191 271 l 1,10,-1
 493 271 l 1,8,-1
427.5 868.5 m 128,-1,12
 394 840 394 840 341 840 c 128,-1,13
 288 840 288 840 256 867 c 128,-1,14
 224 894 224 894 216 929 c 1,15,-1
 263 929 l 2,16,17
 264 927 264 927 272.5 913.5 c 128,-1,18
 281 900 281 900 299 890 c 128,-1,19
 317 880 317 880 341 880 c 0,20,21
 391 880 391 880 422 929 c 1,22,-1
 471 929 l 1,23,11
 461 897 461 897 427.5 868.5 c 128,-1,12
EndSplineSet
EndChar

StartChar: abreve
Encoding: 259 259 196
Width: 549
GlyphClass: 2
Flags: W
AnchorPoint: "Anchor-5" 0 0 basechar 0
AnchorPoint: "Anchor-4" 0 0 basechar 0
AnchorPoint: "Anchor-3" 273 517 basechar 0
AnchorPoint: "Anchor-2" 453 14 basechar 0
LayerCount: 2
Fore
SplineSet
104.5 28 m 128,-1,1
 60 66 60 66 60 132 c 0,2,3
 60 190 60 190 84 224 c 128,-1,4
 108 258 108 258 160 275.5 c 128,-1,5
 212 293 212 293 301 300 c 2,6,-1
 420 310 l 1,7,-1
 420 354 l 2,8,9
 420 416 420 416 380.5 452.5 c 128,-1,10
 341 489 341 489 275 489 c 0,11,12
 175 489 175 489 106 393 c 1,13,-1
 73 413 l 1,14,15
 107 465 107 465 158 496 c 128,-1,16
 209 527 209 527 277 527 c 0,17,18
 360 527 360 527 409.5 481.5 c 128,-1,19
 459 436 459 436 459 358 c 2,20,-1
 459 0 l 1,21,-1
 423 0 l 1,22,-1
 421 80 l 1,23,24
 337 -10 337 -10 226 -10 c 0,25,0
 149 -10 149 -10 104.5 28 c 128,-1,1
318.5 47.5 m 128,-1,27
 363 68 363 68 391.5 100.5 c 128,-1,28
 420 133 420 133 420 167 c 2,29,-1
 420 274 l 1,30,-1
 320 266 l 2,31,32
 235 260 235 260 188.5 246.5 c 128,-1,33
 142 233 142 233 121.5 207 c 128,-1,34
 101 181 101 181 101 135 c 0,35,36
 101 85 101 85 136.5 56 c 128,-1,37
 172 27 172 27 232 27 c 0,38,26
 274 27 274 27 318.5 47.5 c 128,-1,27
358.5 662.5 m 128,-1,40
 325 634 325 634 272 634 c 128,-1,41
 219 634 219 634 187 661 c 128,-1,42
 155 688 155 688 147 723 c 1,43,-1
 194 723 l 2,44,45
 195 721 195 721 203.5 707.5 c 128,-1,46
 212 694 212 694 230 684 c 128,-1,47
 248 674 248 674 272 674 c 0,48,49
 322 674 322 674 353 723 c 1,50,-1
 402 723 l 1,51,39
 392 691 392 691 358.5 662.5 c 128,-1,40
EndSplineSet
EndChar

StartChar: Aogonek
Encoding: 260 260 197
Width: 684
GlyphClass: 2
Flags: W
AnchorPoint: "Anchor-5" 0 0 basechar 0
AnchorPoint: "Anchor-4" 0 0 basechar 0
AnchorPoint: "Anchor-3" 342 723 basechar 0
AnchorPoint: "Anchor-2" 624 11 basechar 0
LayerCount: 2
Fore
SplineSet
315 723 m 1,0,-1
 370 723 l 1,1,-1
 634 0 l 1,2,-1
 591 0 l 1,3,-1
 508 228 l 1,4,-1
 177 228 l 1,5,-1
 92 0 l 1,6,-1
 50 0 l 1,7,-1
 315 723 l 1,0,-1
493 271 m 1,8,-1
 343 681 l 1,9,-1
 191 271 l 1,10,-1
 493 271 l 1,8,-1
512.5 -31 m 128,-1,12
 537 -7 537 -7 596 10 c 1,13,-1
 629 1 l 1,14,15
 577 -23 577 -23 554 -43.5 c 128,-1,16
 531 -64 531 -64 531 -91 c 0,17,18
 531 -112 531 -112 544.5 -122 c 128,-1,19
 558 -132 558 -132 587 -132 c 0,20,21
 607 -132 607 -132 625 -128 c 128,-1,22
 643 -124 643 -124 651 -120 c 0,23,24
 658 -116 658 -116 658 -123 c 2,25,-1
 658 -142 l 2,26,27
 658 -145 658 -145 657 -147 c 128,-1,28
 656 -149 656 -149 653 -150 c 0,29,30
 641 -156 641 -156 620 -160.5 c 128,-1,31
 599 -165 599 -165 577 -165 c 0,32,33
 532 -165 532 -165 510 -144.5 c 128,-1,34
 488 -124 488 -124 488 -89 c 0,35,11
 488 -55 488 -55 512.5 -31 c 128,-1,12
EndSplineSet
EndChar

StartChar: aogonek
Encoding: 261 261 198
Width: 549
GlyphClass: 2
Flags: W
AnchorPoint: "Anchor-5" 0 0 basechar 0
AnchorPoint: "Anchor-4" 0 0 basechar 0
AnchorPoint: "Anchor-3" 273 517 basechar 0
AnchorPoint: "Anchor-2" 453 14 basechar 0
LayerCount: 2
Fore
SplineSet
104.5 28 m 128,-1,1
 60 66 60 66 60 132 c 0,2,3
 60 190 60 190 84 224 c 128,-1,4
 108 258 108 258 160 275.5 c 128,-1,5
 212 293 212 293 301 300 c 2,6,-1
 420 310 l 1,7,-1
 420 354 l 2,8,9
 420 416 420 416 380.5 452.5 c 128,-1,10
 341 489 341 489 275 489 c 0,11,12
 175 489 175 489 106 393 c 1,13,-1
 73 413 l 1,14,15
 107 465 107 465 158 496 c 128,-1,16
 209 527 209 527 277 527 c 0,17,18
 360 527 360 527 409.5 481.5 c 128,-1,19
 459 436 459 436 459 358 c 2,20,-1
 459 0 l 1,21,-1
 423 0 l 1,22,-1
 421 80 l 1,23,24
 337 -10 337 -10 226 -10 c 0,25,0
 149 -10 149 -10 104.5 28 c 128,-1,1
318.5 47.5 m 128,-1,27
 363 68 363 68 391.5 100.5 c 128,-1,28
 420 133 420 133 420 167 c 2,29,-1
 420 274 l 1,30,-1
 320 266 l 2,31,32
 235 260 235 260 188.5 246.5 c 128,-1,33
 142 233 142 233 121.5 207 c 128,-1,34
 101 181 101 181 101 135 c 0,35,36
 101 85 101 85 136.5 56 c 128,-1,37
 172 27 172 27 232 27 c 0,38,26
 274 27 274 27 318.5 47.5 c 128,-1,27
341.5 -28 m 128,-1,40
 366 -4 366 -4 425 13 c 1,41,-1
 458 4 l 1,42,43
 406 -20 406 -20 383 -40.5 c 128,-1,44
 360 -61 360 -61 360 -88 c 0,45,46
 360 -109 360 -109 373.5 -119 c 128,-1,47
 387 -129 387 -129 416 -129 c 0,48,49
 436 -129 436 -129 454 -125 c 128,-1,50
 472 -121 472 -121 480 -117 c 0,51,52
 487 -113 487 -113 487 -120 c 2,53,-1
 487 -139 l 2,54,55
 487 -142 487 -142 486 -144 c 128,-1,56
 485 -146 485 -146 482 -147 c 0,57,58
 470 -153 470 -153 449 -157.5 c 128,-1,59
 428 -162 428 -162 406 -162 c 0,60,61
 361 -162 361 -162 339 -141.5 c 128,-1,62
 317 -121 317 -121 317 -86 c 0,63,39
 317 -52 317 -52 341.5 -28 c 128,-1,40
EndSplineSet
EndChar

StartChar: Cacute
Encoding: 262 262 199
Width: 659
GlyphClass: 2
Flags: W
AnchorPoint: "Anchor-5" 0 0 basechar 0
AnchorPoint: "Anchor-4" 350 0 basechar 0
AnchorPoint: "Anchor-3" 350 723 basechar 0
AnchorPoint: "Anchor-2" 0 0 basechar 0
LayerCount: 2
Fore
SplineSet
469.5 706 m 128,-1,1
 526 679 526 679 559.5 634 c 128,-1,2
 593 589 593 589 599 536 c 1,3,-1
 556 529 l 1,4,5
 541 603 541 603 487 647.5 c 128,-1,6
 433 692 433 692 344 692 c 0,7,8
 225 692 225 692 164.5 607 c 128,-1,9
 104 522 104 522 104 359 c 0,10,11
 104 199 104 199 165.5 115 c 128,-1,12
 227 31 227 31 352 31 c 0,13,14
 427 31 427 31 481.5 71.5 c 128,-1,15
 536 112 536 112 553 184 c 1,16,-1
 595 173 l 1,17,18
 590 122 590 122 554 80 c 128,-1,19
 518 38 518 38 463.5 14 c 128,-1,20
 409 -10 409 -10 350 -10 c 0,21,22
 210 -10 210 -10 135 86 c 128,-1,23
 60 182 60 182 60 359 c 0,24,25
 60 537 60 537 133 635 c 128,-1,26
 206 733 206 733 342 733 c 0,27,0
 413 733 413 733 469.5 706 c 128,-1,1
474 892 m 1,28,-1
 235 814 l 1,29,-1
 225 845 l 1,30,-1
 460 937 l 1,31,-1
 474 892 l 1,28,-1
EndSplineSet
EndChar

StartChar: cacute
Encoding: 263 263 200
Width: 538
GlyphClass: 2
Flags: W
AnchorPoint: "Anchor-5" 0 0 basechar 0
AnchorPoint: "Anchor-4" 285 0 basechar 0
AnchorPoint: "Anchor-3" 283 517 basechar 0
AnchorPoint: "Anchor-2" 0 0 basechar 0
LayerCount: 2
Fore
SplineSet
389.5 499 m 128,-1,1
 433 471 433 471 470 415 c 1,2,-1
 437 394 l 1,3,4
 393 448 393 448 363 468.5 c 128,-1,5
 333 489 333 489 289 489 c 0,6,7
 203 489 203 489 152 425.5 c 128,-1,8
 101 362 101 362 101 258 c 0,9,10
 101 153 101 153 151 90 c 128,-1,11
 201 27 201 27 288 27 c 0,12,13
 339 27 339 27 375 52 c 128,-1,14
 411 77 411 77 445 132 c 1,15,-1
 478 110 l 1,16,17
 442 49 442 49 394.5 19.5 c 128,-1,18
 347 -10 347 -10 284 -10 c 0,19,20
 215 -10 215 -10 164.5 23.5 c 128,-1,21
 114 57 114 57 87 117 c 128,-1,22
 60 177 60 177 60 256 c 0,23,24
 60 336 60 336 87 397 c 128,-1,25
 114 458 114 458 164.5 492.5 c 128,-1,26
 215 527 215 527 284 527 c 0,27,0
 346 527 346 527 389.5 499 c 128,-1,1
407 686 m 1,28,-1
 168 608 l 1,29,-1
 158 639 l 1,30,-1
 393 731 l 1,31,-1
 407 686 l 1,28,-1
EndSplineSet
EndChar

StartChar: Ccircumflex
Encoding: 264 264 201
Width: 659
GlyphClass: 2
Flags: W
AnchorPoint: "Anchor-5" 0 0 basechar 0
AnchorPoint: "Anchor-4" 350 0 basechar 0
AnchorPoint: "Anchor-3" 350 723 basechar 0
AnchorPoint: "Anchor-2" 0 0 basechar 0
LayerCount: 2
Fore
SplineSet
469.5 706 m 128,-1,1
 526 679 526 679 559.5 634 c 128,-1,2
 593 589 593 589 599 536 c 1,3,-1
 556 529 l 1,4,5
 541 603 541 603 487 647.5 c 128,-1,6
 433 692 433 692 344 692 c 0,7,8
 225 692 225 692 164.5 607 c 128,-1,9
 104 522 104 522 104 359 c 0,10,11
 104 199 104 199 165.5 115 c 128,-1,12
 227 31 227 31 352 31 c 0,13,14
 427 31 427 31 481.5 71.5 c 128,-1,15
 536 112 536 112 553 184 c 1,16,-1
 595 173 l 1,17,18
 590 122 590 122 554 80 c 128,-1,19
 518 38 518 38 463.5 14 c 128,-1,20
 409 -10 409 -10 350 -10 c 0,21,22
 210 -10 210 -10 135 86 c 128,-1,23
 60 182 60 182 60 359 c 0,24,25
 60 537 60 537 133 635 c 128,-1,26
 206 733 206 733 342 733 c 0,27,0
 413 733 413 733 469.5 706 c 128,-1,1
350 894 m 1,28,-1
 272 834 l 1,29,-1
 216 834 l 1,30,-1
 335 929 l 1,31,-1
 367 929 l 1,32,-1
 484 834 l 1,33,-1
 424 834 l 1,34,-1
 350 894 l 1,28,-1
EndSplineSet
EndChar

StartChar: ccircumflex
Encoding: 265 265 202
Width: 538
GlyphClass: 2
Flags: W
AnchorPoint: "Anchor-5" 0 0 basechar 0
AnchorPoint: "Anchor-4" 285 0 basechar 0
AnchorPoint: "Anchor-3" 283 517 basechar 0
AnchorPoint: "Anchor-2" 0 0 basechar 0
LayerCount: 2
Fore
SplineSet
389.5 499 m 128,-1,1
 433 471 433 471 470 415 c 1,2,-1
 437 394 l 1,3,4
 393 448 393 448 363 468.5 c 128,-1,5
 333 489 333 489 289 489 c 0,6,7
 203 489 203 489 152 425.5 c 128,-1,8
 101 362 101 362 101 258 c 0,9,10
 101 153 101 153 151 90 c 128,-1,11
 201 27 201 27 288 27 c 0,12,13
 339 27 339 27 375 52 c 128,-1,14
 411 77 411 77 445 132 c 1,15,-1
 478 110 l 1,16,17
 442 49 442 49 394.5 19.5 c 128,-1,18
 347 -10 347 -10 284 -10 c 0,19,20
 215 -10 215 -10 164.5 23.5 c 128,-1,21
 114 57 114 57 87 117 c 128,-1,22
 60 177 60 177 60 256 c 0,23,24
 60 336 60 336 87 397 c 128,-1,25
 114 458 114 458 164.5 492.5 c 128,-1,26
 215 527 215 527 284 527 c 0,27,0
 346 527 346 527 389.5 499 c 128,-1,1
283 688 m 1,28,-1
 205 628 l 1,29,-1
 149 628 l 1,30,-1
 268 723 l 1,31,-1
 300 723 l 1,32,-1
 417 628 l 1,33,-1
 357 628 l 1,34,-1
 283 688 l 1,28,-1
EndSplineSet
EndChar

StartChar: Cdotaccent
Encoding: 266 266 203
Width: 659
GlyphClass: 2
Flags: W
AnchorPoint: "Anchor-5" 0 0 basechar 0
AnchorPoint: "Anchor-4" 350 0 basechar 0
AnchorPoint: "Anchor-3" 350 723 basechar 0
AnchorPoint: "Anchor-2" 0 0 basechar 0
LayerCount: 2
Fore
SplineSet
469.5 706 m 128,-1,1
 526 679 526 679 559.5 634 c 128,-1,2
 593 589 593 589 599 536 c 1,3,-1
 556 529 l 1,4,5
 541 603 541 603 487 647.5 c 128,-1,6
 433 692 433 692 344 692 c 0,7,8
 225 692 225 692 164.5 607 c 128,-1,9
 104 522 104 522 104 359 c 0,10,11
 104 199 104 199 165.5 115 c 128,-1,12
 227 31 227 31 352 31 c 0,13,14
 427 31 427 31 481.5 71.5 c 128,-1,15
 536 112 536 112 553 184 c 1,16,-1
 595 173 l 1,17,18
 590 122 590 122 554 80 c 128,-1,19
 518 38 518 38 463.5 14 c 128,-1,20
 409 -10 409 -10 350 -10 c 0,21,22
 210 -10 210 -10 135 86 c 128,-1,23
 60 182 60 182 60 359 c 0,24,25
 60 537 60 537 133 635 c 128,-1,26
 206 733 206 733 342 733 c 0,27,0
 413 733 413 733 469.5 706 c 128,-1,1
374 834 m 1,28,-1
 326 834 l 1,29,-1
 326 929 l 1,30,-1
 374 929 l 1,31,-1
 374 834 l 1,28,-1
EndSplineSet
EndChar

StartChar: cdotaccent
Encoding: 267 267 204
Width: 538
GlyphClass: 2
Flags: W
AnchorPoint: "Anchor-5" 0 0 basechar 0
AnchorPoint: "Anchor-4" 285 0 basechar 0
AnchorPoint: "Anchor-3" 283 517 basechar 0
AnchorPoint: "Anchor-2" 0 0 basechar 0
LayerCount: 2
Fore
SplineSet
389.5 499 m 128,-1,1
 433 471 433 471 470 415 c 1,2,-1
 437 394 l 1,3,4
 393 448 393 448 363 468.5 c 128,-1,5
 333 489 333 489 289 489 c 0,6,7
 203 489 203 489 152 425.5 c 128,-1,8
 101 362 101 362 101 258 c 0,9,10
 101 153 101 153 151 90 c 128,-1,11
 201 27 201 27 288 27 c 0,12,13
 339 27 339 27 375 52 c 128,-1,14
 411 77 411 77 445 132 c 1,15,-1
 478 110 l 1,16,17
 442 49 442 49 394.5 19.5 c 128,-1,18
 347 -10 347 -10 284 -10 c 0,19,20
 215 -10 215 -10 164.5 23.5 c 128,-1,21
 114 57 114 57 87 117 c 128,-1,22
 60 177 60 177 60 256 c 0,23,24
 60 336 60 336 87 397 c 128,-1,25
 114 458 114 458 164.5 492.5 c 128,-1,26
 215 527 215 527 284 527 c 0,27,0
 346 527 346 527 389.5 499 c 128,-1,1
307 628 m 1,28,-1
 259 628 l 1,29,-1
 259 723 l 1,30,-1
 307 723 l 1,31,-1
 307 628 l 1,28,-1
EndSplineSet
EndChar

StartChar: Ccaron
Encoding: 268 268 205
Width: 659
GlyphClass: 2
Flags: W
AnchorPoint: "Anchor-5" 0 0 basechar 0
AnchorPoint: "Anchor-4" 350 0 basechar 0
AnchorPoint: "Anchor-3" 350 723 basechar 0
AnchorPoint: "Anchor-2" 0 0 basechar 0
LayerCount: 2
Fore
SplineSet
469.5 706 m 128,-1,1
 526 679 526 679 559.5 634 c 128,-1,2
 593 589 593 589 599 536 c 1,3,-1
 556 529 l 1,4,5
 541 603 541 603 487 647.5 c 128,-1,6
 433 692 433 692 344 692 c 0,7,8
 225 692 225 692 164.5 607 c 128,-1,9
 104 522 104 522 104 359 c 0,10,11
 104 199 104 199 165.5 115 c 128,-1,12
 227 31 227 31 352 31 c 0,13,14
 427 31 427 31 481.5 71.5 c 128,-1,15
 536 112 536 112 553 184 c 1,16,-1
 595 173 l 1,17,18
 590 122 590 122 554 80 c 128,-1,19
 518 38 518 38 463.5 14 c 128,-1,20
 409 -10 409 -10 350 -10 c 0,21,22
 210 -10 210 -10 135 86 c 128,-1,23
 60 182 60 182 60 359 c 0,24,25
 60 537 60 537 133 635 c 128,-1,26
 206 733 206 733 342 733 c 0,27,0
 413 733 413 733 469.5 706 c 128,-1,1
484 929 m 1,28,-1
 367 834 l 1,29,-1
 335 834 l 1,30,-1
 215 929 l 1,31,-1
 272 929 l 1,32,-1
 350 869 l 1,33,-1
 424 929 l 1,34,-1
 484 929 l 1,28,-1
EndSplineSet
EndChar

StartChar: ccaron
Encoding: 269 269 206
Width: 538
GlyphClass: 2
Flags: W
AnchorPoint: "Anchor-5" 0 0 basechar 0
AnchorPoint: "Anchor-4" 285 0 basechar 0
AnchorPoint: "Anchor-3" 283 517 basechar 0
AnchorPoint: "Anchor-2" 0 0 basechar 0
LayerCount: 2
Fore
SplineSet
389.5 499 m 128,-1,1
 433 471 433 471 470 415 c 1,2,-1
 437 394 l 1,3,4
 393 448 393 448 363 468.5 c 128,-1,5
 333 489 333 489 289 489 c 0,6,7
 203 489 203 489 152 425.5 c 128,-1,8
 101 362 101 362 101 258 c 0,9,10
 101 153 101 153 151 90 c 128,-1,11
 201 27 201 27 288 27 c 0,12,13
 339 27 339 27 375 52 c 128,-1,14
 411 77 411 77 445 132 c 1,15,-1
 478 110 l 1,16,17
 442 49 442 49 394.5 19.5 c 128,-1,18
 347 -10 347 -10 284 -10 c 0,19,20
 215 -10 215 -10 164.5 23.5 c 128,-1,21
 114 57 114 57 87 117 c 128,-1,22
 60 177 60 177 60 256 c 0,23,24
 60 336 60 336 87 397 c 128,-1,25
 114 458 114 458 164.5 492.5 c 128,-1,26
 215 527 215 527 284 527 c 0,27,0
 346 527 346 527 389.5 499 c 128,-1,1
417 723 m 1,28,-1
 300 628 l 1,29,-1
 268 628 l 1,30,-1
 148 723 l 1,31,-1
 205 723 l 1,32,-1
 283 663 l 1,33,-1
 357 723 l 1,34,-1
 417 723 l 1,28,-1
EndSplineSet
EndChar

StartChar: Dcaron
Encoding: 270 270 207
Width: 664
GlyphClass: 2
Flags: W
AnchorPoint: "Anchor-5" 0 0 basechar 0
AnchorPoint: "Anchor-4" 0 0 basechar 0
AnchorPoint: "Anchor-3" 323 723 basechar 0
AnchorPoint: "Anchor-2" 0 0 basechar 0
LayerCount: 2
Fore
SplineSet
228 722 m 2,0,1
 427 721 427 721 516 635.5 c 128,-1,2
 605 550 605 550 605 367 c 0,3,4
 605 177 605 177 510 88.5 c 128,-1,5
 415 0 415 0 214 0 c 2,6,-1
 108 0 l 1,7,-1
 108 723 l 1,8,-1
 228 722 l 2,0,1
151 41 m 1,9,-1
 211 41 l 2,10,11
 391 41 391 41 477 115.5 c 128,-1,12
 563 190 563 190 563 363 c 0,13,14
 563 485 563 485 523.5 554.5 c 128,-1,15
 484 624 484 624 408.5 653 c 128,-1,16
 333 682 333 682 217 682 c 2,17,-1
 151 682 l 1,18,-1
 151 41 l 1,9,-1
457 929 m 1,19,-1
 340 834 l 1,20,-1
 308 834 l 1,21,-1
 188 929 l 1,22,-1
 245 929 l 1,23,-1
 323 869 l 1,24,-1
 397 929 l 1,25,-1
 457 929 l 1,19,-1
EndSplineSet
EndChar

StartChar: dcaron
Encoding: 271 271 208
Width: 568
GlyphClass: 2
Flags: W
AnchorPoint: "Anchor-5" 601 723 basechar 0
AnchorPoint: "Anchor-4" 284 0 basechar 0
AnchorPoint: "Anchor-3" 0 0 basechar 0
AnchorPoint: "Anchor-2" 0 0 basechar 0
LayerCount: 2
Fore
SplineSet
116.5 56.5 m 128,-1,1
 60 123 60 123 60 249 c 128,-1,2
 60 375 60 375 118.5 451 c 128,-1,3
 177 527 177 527 282 527 c 0,4,5
 326 527 326 527 362 511.5 c 128,-1,6
 398 496 398 496 439 463 c 1,7,-1
 439 743 l 1,8,-1
 478 743 l 1,9,-1
 478 0 l 1,10,-1
 441 0 l 1,11,-1
 441 77 l 1,12,13
 421 55 421 55 403 38.5 c 128,-1,14
 385 22 385 22 350.5 6 c 128,-1,15
 316 -10 316 -10 270 -10 c 0,16,0
 173 -10 173 -10 116.5 56.5 c 128,-1,1
357.5 49 m 128,-1,18
 395 71 395 71 417 103.5 c 128,-1,19
 439 136 439 136 439 166 c 2,20,-1
 439 415 l 1,21,22
 402 452 402 452 364 470.5 c 128,-1,23
 326 489 326 489 283 489 c 0,24,25
 197 489 197 489 149 426.5 c 128,-1,26
 101 364 101 364 101 253 c 0,27,28
 101 141 101 141 149 84 c 128,-1,29
 197 27 197 27 275 27 c 0,30,17
 320 27 320 27 357.5 49 c 128,-1,18
540.5 555.5 m 128,-1,32
 539 558 539 558 540 560 c 2,33,-1
 569 628 l 2,34,35
 571 633 571 633 570.5 634.5 c 128,-1,36
 570 636 570 636 566 637 c 2,37,-1
 561 638 l 2,38,39
 557 638 557 638 555 639.5 c 128,-1,40
 553 641 553 641 553 645 c 2,41,-1
 553 717 l 2,42,43
 553 723 553 723 559 723 c 2,44,-1
 601 723 l 2,45,46
 606 723 606 723 606 718 c 2,47,-1
 606 638 l 1,48,-1
 605 634 l 1,49,-1
 573 560 l 2,50,51
 570 553 570 553 560 553 c 2,52,-1
 545 553 l 2,53,31
 542 553 542 553 540.5 555.5 c 128,-1,32
EndSplineSet
EndChar

StartChar: Dcroat
Encoding: 272 272 209
Width: 662
GlyphClass: 2
Flags: W
AnchorPoint: "Anchor-5" 0 0 basechar 0
AnchorPoint: "Anchor-4" 0 0 basechar 0
AnchorPoint: "Anchor-3" 321 723 basechar 0
AnchorPoint: "Anchor-2" 0 0 basechar 0
LayerCount: 2
Fore
SplineSet
514 635.5 m 128,-1,1
 603 550 603 550 603 367 c 0,2,3
 603 177 603 177 508 88.5 c 128,-1,4
 413 0 413 0 212 0 c 2,5,-1
 106 0 l 1,6,-1
 106 344 l 1,7,-1
 44 344 l 2,8,9
 38 344 38 344 36 346.5 c 128,-1,10
 34 349 34 349 34 354 c 2,11,-1
 34 376 l 2,12,13
 34 385 34 385 41 385 c 2,14,-1
 106 385 l 1,15,-1
 106 723 l 1,16,-1
 226 722 l 2,17,0
 425 721 425 721 514 635.5 c 128,-1,1
475 115.5 m 128,-1,19
 561 190 561 190 561 363 c 0,20,21
 561 485 561 485 521.5 554.5 c 128,-1,22
 482 624 482 624 406.5 653 c 128,-1,23
 331 682 331 682 215 682 c 2,24,-1
 149 682 l 1,25,-1
 149 385 l 1,26,-1
 327 385 l 2,27,28
 333 385 333 385 333 377 c 2,29,-1
 333 355 l 2,30,31
 333 349 333 349 330.5 346.5 c 128,-1,32
 328 344 328 344 321 344 c 2,33,-1
 149 344 l 1,34,-1
 149 41 l 1,35,-1
 209 41 l 2,36,18
 389 41 389 41 475 115.5 c 128,-1,19
EndSplineSet
EndChar

StartChar: dcroat
Encoding: 273 273 210
Width: 589
GlyphClass: 2
Flags: W
AnchorPoint: "Anchor-5" 601 723 basechar 0
AnchorPoint: "Anchor-4" 284 0 basechar 0
AnchorPoint: "Anchor-3" 0 0 basechar 0
AnchorPoint: "Anchor-2" 0 0 basechar 0
LayerCount: 2
Fore
SplineSet
564 611 m 1,0,-1
 478 611 l 1,1,-1
 478 0 l 1,2,-1
 441 0 l 1,3,-1
 441 77 l 1,4,5
 421 55 421 55 403 38.5 c 128,-1,6
 385 22 385 22 350.5 6 c 128,-1,7
 316 -10 316 -10 270 -10 c 0,8,9
 173 -10 173 -10 116.5 56.5 c 128,-1,10
 60 123 60 123 60 249 c 128,-1,11
 60 375 60 375 118.5 451 c 128,-1,12
 177 527 177 527 282 527 c 0,13,14
 326 527 326 527 362 511.5 c 128,-1,15
 398 496 398 496 439 463 c 1,16,-1
 439 611 l 1,17,-1
 283 611 l 1,18,-1
 283 645 l 1,19,-1
 439 645 l 1,20,-1
 439 743 l 1,21,-1
 478 743 l 1,22,-1
 478 645 l 1,23,-1
 564 645 l 1,24,-1
 564 611 l 1,0,-1
439 415 m 1,25,26
 402 452 402 452 364 470.5 c 128,-1,27
 326 489 326 489 283 489 c 0,28,29
 197 489 197 489 149 426.5 c 128,-1,30
 101 364 101 364 101 253 c 0,31,32
 101 141 101 141 149 84 c 128,-1,33
 197 27 197 27 275 27 c 0,34,35
 320 27 320 27 357.5 49 c 128,-1,36
 395 71 395 71 417 103.5 c 128,-1,37
 439 136 439 136 439 166 c 2,38,-1
 439 415 l 1,25,26
EndSplineSet
EndChar

StartChar: Emacron
Encoding: 274 274 211
Width: 608
GlyphClass: 2
Flags: W
AnchorPoint: "Anchor-5" 0 0 basechar 0
AnchorPoint: "Anchor-4" 348 0 basechar 0
AnchorPoint: "Anchor-3" 330 723 basechar 0
AnchorPoint: "Anchor-2" 528 10 basechar 0
LayerCount: 2
Fore
SplineSet
108 723 m 1,0,-1
 523 723 l 1,1,-1
 523 683 l 1,2,-1
 147 683 l 1,3,-1
 147 386 l 1,4,-1
 497 386 l 1,5,-1
 497 345 l 1,6,-1
 147 345 l 1,7,-1
 147 42 l 1,8,-1
 537 41 l 1,9,-1
 537 0 l 1,10,-1
 108 0 l 1,11,-1
 108 723 l 1,0,-1
452 873 m 1,12,-1
 207 873 l 1,13,-1
 207 910 l 1,14,-1
 452 910 l 1,15,-1
 452 873 l 1,12,-1
EndSplineSet
EndChar

StartChar: emacron
Encoding: 275 275 212
Width: 552
GlyphClass: 2
Flags: W
AnchorPoint: "Anchor-5" 0 0 basechar 0
AnchorPoint: "Anchor-4" 273 0 basechar 0
AnchorPoint: "Anchor-3" 282 517 basechar 0
AnchorPoint: "Anchor-2" 375 18 basechar 0
LayerCount: 2
Fore
SplineSet
150.5 91.5 m 128,-1,1
 199 29 199 29 292 29 c 0,2,3
 409 29 409 29 444 122 c 1,4,-1
 481 106 l 1,5,6
 461 51 461 51 411 20.5 c 128,-1,7
 361 -10 361 -10 292 -10 c 0,8,9
 224 -10 224 -10 171.5 21 c 128,-1,10
 119 52 119 52 89.5 111.5 c 128,-1,11
 60 171 60 171 60 254 c 0,12,13
 60 383 60 383 118.5 455 c 128,-1,14
 177 527 177 527 282 527 c 0,15,16
 381 527 381 527 436.5 461.5 c 128,-1,17
 492 396 492 396 492 277 c 2,18,-1
 492 248 l 1,19,-1
 102 248 l 1,20,0
 102 154 102 154 150.5 91.5 c 128,-1,1
451 287 m 1,21,22
 451 377 451 377 408 432.5 c 128,-1,23
 365 488 365 488 281 488 c 0,24,25
 221 488 221 488 181 459 c 128,-1,26
 141 430 141 430 121.5 384 c 128,-1,27
 102 338 102 338 103 287 c 1,28,-1
 451 287 l 1,21,22
404 667 m 1,29,-1
 159 667 l 1,30,-1
 159 704 l 1,31,-1
 404 704 l 1,32,-1
 404 667 l 1,29,-1
EndSplineSet
EndChar

StartChar: Ebreve
Encoding: 276 276 213
Width: 608
GlyphClass: 2
Flags: W
AnchorPoint: "Anchor-5" 0 0 basechar 0
AnchorPoint: "Anchor-4" 348 0 basechar 0
AnchorPoint: "Anchor-3" 330 723 basechar 0
AnchorPoint: "Anchor-2" 528 10 basechar 0
LayerCount: 2
Fore
SplineSet
108 723 m 1,0,-1
 523 723 l 1,1,-1
 523 683 l 1,2,-1
 147 683 l 1,3,-1
 147 386 l 1,4,-1
 497 386 l 1,5,-1
 497 345 l 1,6,-1
 147 345 l 1,7,-1
 147 42 l 1,8,-1
 537 41 l 1,9,-1
 537 0 l 1,10,-1
 108 0 l 1,11,-1
 108 723 l 1,0,-1
415.5 868.5 m 128,-1,13
 382 840 382 840 329 840 c 128,-1,14
 276 840 276 840 244 867 c 128,-1,15
 212 894 212 894 204 929 c 1,16,-1
 251 929 l 2,17,18
 252 927 252 927 260.5 913.5 c 128,-1,19
 269 900 269 900 287 890 c 128,-1,20
 305 880 305 880 329 880 c 0,21,22
 379 880 379 880 410 929 c 1,23,-1
 459 929 l 1,24,12
 449 897 449 897 415.5 868.5 c 128,-1,13
EndSplineSet
EndChar

StartChar: ebreve
Encoding: 277 277 214
Width: 552
GlyphClass: 2
Flags: W
AnchorPoint: "Anchor-5" 0 0 basechar 0
AnchorPoint: "Anchor-4" 273 0 basechar 0
AnchorPoint: "Anchor-3" 282 517 basechar 0
AnchorPoint: "Anchor-2" 375 18 basechar 0
LayerCount: 2
Fore
SplineSet
150.5 91.5 m 128,-1,1
 199 29 199 29 292 29 c 0,2,3
 409 29 409 29 444 122 c 1,4,-1
 481 106 l 1,5,6
 461 51 461 51 411 20.5 c 128,-1,7
 361 -10 361 -10 292 -10 c 0,8,9
 224 -10 224 -10 171.5 21 c 128,-1,10
 119 52 119 52 89.5 111.5 c 128,-1,11
 60 171 60 171 60 254 c 0,12,13
 60 383 60 383 118.5 455 c 128,-1,14
 177 527 177 527 282 527 c 0,15,16
 381 527 381 527 436.5 461.5 c 128,-1,17
 492 396 492 396 492 277 c 2,18,-1
 492 248 l 1,19,-1
 102 248 l 1,20,0
 102 154 102 154 150.5 91.5 c 128,-1,1
451 287 m 1,21,22
 451 377 451 377 408 432.5 c 128,-1,23
 365 488 365 488 281 488 c 0,24,25
 221 488 221 488 181 459 c 128,-1,26
 141 430 141 430 121.5 384 c 128,-1,27
 102 338 102 338 103 287 c 1,28,-1
 451 287 l 1,21,22
367.5 662.5 m 128,-1,30
 334 634 334 634 281 634 c 128,-1,31
 228 634 228 634 196 661 c 128,-1,32
 164 688 164 688 156 723 c 1,33,-1
 203 723 l 2,34,35
 204 721 204 721 212.5 707.5 c 128,-1,36
 221 694 221 694 239 684 c 128,-1,37
 257 674 257 674 281 674 c 0,38,39
 331 674 331 674 362 723 c 1,40,-1
 411 723 l 1,41,29
 401 691 401 691 367.5 662.5 c 128,-1,30
EndSplineSet
EndChar

StartChar: Edotaccent
Encoding: 278 278 215
Width: 608
GlyphClass: 2
Flags: W
AnchorPoint: "Anchor-5" 0 0 basechar 0
AnchorPoint: "Anchor-4" 348 0 basechar 0
AnchorPoint: "Anchor-3" 330 723 basechar 0
AnchorPoint: "Anchor-2" 528 10 basechar 0
LayerCount: 2
Fore
SplineSet
108 723 m 1,0,-1
 523 723 l 1,1,-1
 523 683 l 1,2,-1
 147 683 l 1,3,-1
 147 386 l 1,4,-1
 497 386 l 1,5,-1
 497 345 l 1,6,-1
 147 345 l 1,7,-1
 147 42 l 1,8,-1
 537 41 l 1,9,-1
 537 0 l 1,10,-1
 108 0 l 1,11,-1
 108 723 l 1,0,-1
354 834 m 1,12,-1
 306 834 l 1,13,-1
 306 929 l 1,14,-1
 354 929 l 1,15,-1
 354 834 l 1,12,-1
EndSplineSet
EndChar

StartChar: edotaccent
Encoding: 279 279 216
Width: 552
GlyphClass: 2
Flags: W
AnchorPoint: "Anchor-5" 0 0 basechar 0
AnchorPoint: "Anchor-4" 273 0 basechar 0
AnchorPoint: "Anchor-3" 282 517 basechar 0
AnchorPoint: "Anchor-2" 375 18 basechar 0
LayerCount: 2
Fore
SplineSet
150.5 91.5 m 128,-1,1
 199 29 199 29 292 29 c 0,2,3
 409 29 409 29 444 122 c 1,4,-1
 481 106 l 1,5,6
 461 51 461 51 411 20.5 c 128,-1,7
 361 -10 361 -10 292 -10 c 0,8,9
 224 -10 224 -10 171.5 21 c 128,-1,10
 119 52 119 52 89.5 111.5 c 128,-1,11
 60 171 60 171 60 254 c 0,12,13
 60 383 60 383 118.5 455 c 128,-1,14
 177 527 177 527 282 527 c 0,15,16
 381 527 381 527 436.5 461.5 c 128,-1,17
 492 396 492 396 492 277 c 2,18,-1
 492 248 l 1,19,-1
 102 248 l 1,20,0
 102 154 102 154 150.5 91.5 c 128,-1,1
451 287 m 1,21,22
 451 377 451 377 408 432.5 c 128,-1,23
 365 488 365 488 281 488 c 0,24,25
 221 488 221 488 181 459 c 128,-1,26
 141 430 141 430 121.5 384 c 128,-1,27
 102 338 102 338 103 287 c 1,28,-1
 451 287 l 1,21,22
306 628 m 1,29,-1
 258 628 l 1,30,-1
 258 723 l 1,31,-1
 306 723 l 1,32,-1
 306 628 l 1,29,-1
EndSplineSet
EndChar

StartChar: Eogonek
Encoding: 280 280 217
Width: 608
GlyphClass: 2
Flags: W
AnchorPoint: "Anchor-5" 0 0 basechar 0
AnchorPoint: "Anchor-4" 348 0 basechar 0
AnchorPoint: "Anchor-3" 330 723 basechar 0
AnchorPoint: "Anchor-2" 528 10 basechar 0
LayerCount: 2
Fore
SplineSet
108 723 m 1,0,-1
 523 723 l 1,1,-1
 523 683 l 1,2,-1
 147 683 l 1,3,-1
 147 386 l 1,4,-1
 497 386 l 1,5,-1
 497 345 l 1,6,-1
 147 345 l 1,7,-1
 147 42 l 1,8,-1
 537 41 l 1,9,-1
 537 0 l 1,10,-1
 108 0 l 1,11,-1
 108 723 l 1,0,-1
416.5 -32 m 128,-1,13
 441 -8 441 -8 500 9 c 1,14,-1
 533 0 l 1,15,16
 481 -24 481 -24 458 -44.5 c 128,-1,17
 435 -65 435 -65 435 -92 c 0,18,19
 435 -113 435 -113 448.5 -123 c 128,-1,20
 462 -133 462 -133 491 -133 c 0,21,22
 511 -133 511 -133 529 -129 c 128,-1,23
 547 -125 547 -125 555 -121 c 0,24,25
 562 -117 562 -117 562 -124 c 2,26,-1
 562 -143 l 2,27,28
 562 -146 562 -146 561 -148 c 128,-1,29
 560 -150 560 -150 557 -151 c 0,30,31
 545 -157 545 -157 524 -161.5 c 128,-1,32
 503 -166 503 -166 481 -166 c 0,33,34
 436 -166 436 -166 414 -145.5 c 128,-1,35
 392 -125 392 -125 392 -90 c 0,36,12
 392 -56 392 -56 416.5 -32 c 128,-1,13
EndSplineSet
EndChar

StartChar: eogonek
Encoding: 281 281 218
Width: 552
GlyphClass: 2
Flags: W
AnchorPoint: "Anchor-5" 0 0 basechar 0
AnchorPoint: "Anchor-4" 273 0 basechar 0
AnchorPoint: "Anchor-3" 282 517 basechar 0
AnchorPoint: "Anchor-2" 375 18 basechar 0
LayerCount: 2
Fore
SplineSet
150.5 91.5 m 128,-1,1
 199 29 199 29 292 29 c 0,2,3
 409 29 409 29 444 122 c 1,4,-1
 481 106 l 1,5,6
 461 51 461 51 411 20.5 c 128,-1,7
 361 -10 361 -10 292 -10 c 0,8,9
 224 -10 224 -10 171.5 21 c 128,-1,10
 119 52 119 52 89.5 111.5 c 128,-1,11
 60 171 60 171 60 254 c 0,12,13
 60 383 60 383 118.5 455 c 128,-1,14
 177 527 177 527 282 527 c 0,15,16
 381 527 381 527 436.5 461.5 c 128,-1,17
 492 396 492 396 492 277 c 2,18,-1
 492 248 l 1,19,-1
 102 248 l 1,20,0
 102 154 102 154 150.5 91.5 c 128,-1,1
451 287 m 1,21,22
 451 377 451 377 408 432.5 c 128,-1,23
 365 488 365 488 281 488 c 0,24,25
 221 488 221 488 181 459 c 128,-1,26
 141 430 141 430 121.5 384 c 128,-1,27
 102 338 102 338 103 287 c 1,28,-1
 451 287 l 1,21,22
263.5 -24 m 128,-1,30
 288 0 288 0 347 17 c 1,31,-1
 380 8 l 1,32,33
 328 -16 328 -16 305 -36.5 c 128,-1,34
 282 -57 282 -57 282 -84 c 0,35,36
 282 -105 282 -105 295.5 -115 c 128,-1,37
 309 -125 309 -125 338 -125 c 0,38,39
 358 -125 358 -125 376 -121 c 128,-1,40
 394 -117 394 -117 402 -113 c 0,41,42
 409 -109 409 -109 409 -116 c 2,43,-1
 409 -135 l 2,44,45
 409 -138 409 -138 408 -140 c 128,-1,46
 407 -142 407 -142 404 -143 c 0,47,48
 392 -149 392 -149 371 -153.5 c 128,-1,49
 350 -158 350 -158 328 -158 c 0,50,51
 283 -158 283 -158 261 -137.5 c 128,-1,52
 239 -117 239 -117 239 -82 c 0,53,29
 239 -48 239 -48 263.5 -24 c 128,-1,30
EndSplineSet
EndChar

StartChar: Ecaron
Encoding: 282 282 219
Width: 608
GlyphClass: 2
Flags: W
AnchorPoint: "Anchor-5" 0 0 basechar 0
AnchorPoint: "Anchor-4" 348 0 basechar 0
AnchorPoint: "Anchor-3" 330 723 basechar 0
AnchorPoint: "Anchor-2" 528 10 basechar 0
LayerCount: 2
Fore
SplineSet
108 723 m 1,0,-1
 523 723 l 1,1,-1
 523 683 l 1,2,-1
 147 683 l 1,3,-1
 147 386 l 1,4,-1
 497 386 l 1,5,-1
 497 345 l 1,6,-1
 147 345 l 1,7,-1
 147 42 l 1,8,-1
 537 41 l 1,9,-1
 537 0 l 1,10,-1
 108 0 l 1,11,-1
 108 723 l 1,0,-1
464 929 m 1,12,-1
 347 834 l 1,13,-1
 315 834 l 1,14,-1
 195 929 l 1,15,-1
 252 929 l 1,16,-1
 330 869 l 1,17,-1
 404 929 l 1,18,-1
 464 929 l 1,12,-1
EndSplineSet
EndChar

StartChar: ecaron
Encoding: 283 283 220
Width: 552
GlyphClass: 2
Flags: W
AnchorPoint: "Anchor-5" 0 0 basechar 0
AnchorPoint: "Anchor-4" 273 0 basechar 0
AnchorPoint: "Anchor-3" 282 517 basechar 0
AnchorPoint: "Anchor-2" 375 18 basechar 0
LayerCount: 2
Fore
SplineSet
150.5 91.5 m 128,-1,1
 199 29 199 29 292 29 c 0,2,3
 409 29 409 29 444 122 c 1,4,-1
 481 106 l 1,5,6
 461 51 461 51 411 20.5 c 128,-1,7
 361 -10 361 -10 292 -10 c 0,8,9
 224 -10 224 -10 171.5 21 c 128,-1,10
 119 52 119 52 89.5 111.5 c 128,-1,11
 60 171 60 171 60 254 c 0,12,13
 60 383 60 383 118.5 455 c 128,-1,14
 177 527 177 527 282 527 c 0,15,16
 381 527 381 527 436.5 461.5 c 128,-1,17
 492 396 492 396 492 277 c 2,18,-1
 492 248 l 1,19,-1
 102 248 l 1,20,0
 102 154 102 154 150.5 91.5 c 128,-1,1
451 287 m 1,21,22
 451 377 451 377 408 432.5 c 128,-1,23
 365 488 365 488 281 488 c 0,24,25
 221 488 221 488 181 459 c 128,-1,26
 141 430 141 430 121.5 384 c 128,-1,27
 102 338 102 338 103 287 c 1,28,-1
 451 287 l 1,21,22
416 723 m 1,29,-1
 299 628 l 1,30,-1
 267 628 l 1,31,-1
 147 723 l 1,32,-1
 204 723 l 1,33,-1
 282 663 l 1,34,-1
 356 723 l 1,35,-1
 416 723 l 1,29,-1
EndSplineSet
EndChar

StartChar: Gcircumflex
Encoding: 284 284 221
Width: 705
GlyphClass: 2
Flags: W
AnchorPoint: "Anchor-5" 0 0 basechar 0
AnchorPoint: "Anchor-4" 354 0 basechar 0
AnchorPoint: "Anchor-3" 349 723 basechar 0
AnchorPoint: "Anchor-2" 0 0 basechar 0
LayerCount: 2
Fore
SplineSet
193 33.5 m 128,-1,1
 128 77 128 77 94 160 c 128,-1,2
 60 243 60 243 60 359 c 0,3,4
 60 477 60 477 95 561.5 c 128,-1,5
 130 646 130 646 195 689.5 c 128,-1,6
 260 733 260 733 349 733 c 0,7,8
 408 733 408 733 463.5 706.5 c 128,-1,9
 519 680 519 680 555.5 635 c 128,-1,10
 592 590 592 590 597 538 c 1,11,-1
 551 530 l 1,12,13
 544 575 544 575 515.5 612 c 128,-1,14
 487 649 487 649 443.5 670.5 c 128,-1,15
 400 692 400 692 349 692 c 0,16,17
 232 692 232 692 166.5 605.5 c 128,-1,18
 101 519 101 519 101 365 c 0,19,20
 101 203 101 203 165.5 116 c 128,-1,21
 230 29 230 29 349 29 c 0,22,23
 421 29 421 29 472 63 c 128,-1,24
 523 97 523 97 548 148 c 128,-1,25
 573 199 573 199 573 249 c 2,26,-1
 573 333 l 1,27,-1
 371 333 l 1,28,-1
 371 368 l 1,29,-1
 612 368 l 1,30,-1
 612 0 l 1,31,-1
 573 0 l 1,32,-1
 573 126 l 1,33,34
 542 65 542 65 485 27.5 c 128,-1,35
 428 -10 428 -10 348 -10 c 0,36,0
 258 -10 258 -10 193 33.5 c 128,-1,1
349 894 m 1,37,-1
 271 834 l 1,38,-1
 215 834 l 1,39,-1
 334 929 l 1,40,-1
 366 929 l 1,41,-1
 483 834 l 1,42,-1
 423 834 l 1,43,-1
 349 894 l 1,37,-1
EndSplineSet
EndChar

StartChar: gcircumflex
Encoding: 285 285 222
Width: 579
GlyphClass: 2
Flags: W
AnchorPoint: "Anchor-5" 0 0 basechar 0
AnchorPoint: "Anchor-4" 0 0 basechar 0
AnchorPoint: "Anchor-3" 286 517 basechar 0
AnchorPoint: "Anchor-2" 0 0 basechar 0
LayerCount: 2
Fore
SplineSet
105 -133 m 128,-1,1
 44 -95 44 -95 44 -26 c 0,2,3
 44 16 44 16 68 43 c 128,-1,4
 92 70 92 70 113 83.5 c 128,-1,5
 134 97 134 97 139 101 c 1,6,7
 136 103 136 103 123 111 c 128,-1,8
 110 119 110 119 103 130 c 128,-1,9
 96 141 96 141 96 155 c 0,10,11
 96 176 96 176 116 193.5 c 128,-1,12
 136 211 136 211 173 222 c 1,13,14
 124 248 124 248 104 279.5 c 128,-1,15
 84 311 84 311 84 360 c 0,16,17
 84 437 84 437 138 481 c 128,-1,18
 192 525 192 525 289 525 c 0,19,20
 336 525 336 525 370.5 513 c 128,-1,21
 405 501 405 501 436 476 c 1,22,-1
 492 500 l 1,23,-1
 548 524 l 1,24,-1
 548 466 l 1,25,-1
 456 446 l 1,26,27
 465 430 465 430 472 404.5 c 128,-1,28
 479 379 479 379 479 360 c 0,29,30
 479 291 479 291 429.5 247.5 c 128,-1,31
 380 204 380 204 282 204 c 2,32,-1
 271 204 l 2,33,34
 200 203 200 203 168.5 189 c 128,-1,35
 137 175 137 175 137 156 c 0,36,37
 137 140 137 140 159.5 132.5 c 128,-1,38
 182 125 182 125 244 120 c 2,39,-1
 361 113 l 2,40,41
 511 104 511 104 511 -19 c 0,42,43
 511 -92 511 -92 450 -131.5 c 128,-1,44
 389 -171 389 -171 278 -171 c 0,45,0
 166 -171 166 -171 105 -133 c 128,-1,1
440 362 m 0,46,47
 440 423 440 423 400 455.5 c 128,-1,48
 360 488 360 488 283 488 c 0,49,50
 207 488 207 488 165 455 c 128,-1,51
 123 422 123 422 123 362 c 0,52,53
 123 303 123 303 164 272 c 128,-1,54
 205 241 205 241 283 241 c 0,55,56
 440 241 440 241 440 362 c 0,46,47
470 -19 m 0,57,58
 470 23 470 23 444.5 46 c 128,-1,59
 419 69 419 69 360 73 c 2,60,-1
 188 84 l 2,61,62
 171 85 171 85 146.5 71 c 128,-1,63
 122 57 122 57 103.5 32.5 c 128,-1,64
 85 8 85 8 85 -22 c 0,65,66
 85 -76 85 -76 138 -105 c 128,-1,67
 191 -134 191 -134 287 -134 c 0,68,69
 470 -134 470 -134 470 -19 c 0,57,58
286 688 m 1,70,-1
 208 628 l 1,71,-1
 152 628 l 1,72,-1
 271 723 l 1,73,-1
 303 723 l 1,74,-1
 420 628 l 1,75,-1
 360 628 l 1,76,-1
 286 688 l 1,70,-1
EndSplineSet
EndChar

StartChar: Gbreve
Encoding: 286 286 223
Width: 705
GlyphClass: 2
Flags: W
AnchorPoint: "Anchor-5" 0 0 basechar 0
AnchorPoint: "Anchor-4" 354 0 basechar 0
AnchorPoint: "Anchor-3" 349 723 basechar 0
AnchorPoint: "Anchor-2" 0 0 basechar 0
LayerCount: 2
Fore
SplineSet
193 33.5 m 128,-1,1
 128 77 128 77 94 160 c 128,-1,2
 60 243 60 243 60 359 c 0,3,4
 60 477 60 477 95 561.5 c 128,-1,5
 130 646 130 646 195 689.5 c 128,-1,6
 260 733 260 733 349 733 c 0,7,8
 408 733 408 733 463.5 706.5 c 128,-1,9
 519 680 519 680 555.5 635 c 128,-1,10
 592 590 592 590 597 538 c 1,11,-1
 551 530 l 1,12,13
 544 575 544 575 515.5 612 c 128,-1,14
 487 649 487 649 443.5 670.5 c 128,-1,15
 400 692 400 692 349 692 c 0,16,17
 232 692 232 692 166.5 605.5 c 128,-1,18
 101 519 101 519 101 365 c 0,19,20
 101 203 101 203 165.5 116 c 128,-1,21
 230 29 230 29 349 29 c 0,22,23
 421 29 421 29 472 63 c 128,-1,24
 523 97 523 97 548 148 c 128,-1,25
 573 199 573 199 573 249 c 2,26,-1
 573 333 l 1,27,-1
 371 333 l 1,28,-1
 371 368 l 1,29,-1
 612 368 l 1,30,-1
 612 0 l 1,31,-1
 573 0 l 1,32,-1
 573 126 l 1,33,34
 542 65 542 65 485 27.5 c 128,-1,35
 428 -10 428 -10 348 -10 c 0,36,0
 258 -10 258 -10 193 33.5 c 128,-1,1
434.5 868.5 m 128,-1,38
 401 840 401 840 348 840 c 128,-1,39
 295 840 295 840 263 867 c 128,-1,40
 231 894 231 894 223 929 c 1,41,-1
 270 929 l 2,42,43
 271 927 271 927 279.5 913.5 c 128,-1,44
 288 900 288 900 306 890 c 128,-1,45
 324 880 324 880 348 880 c 0,46,47
 398 880 398 880 429 929 c 1,48,-1
 478 929 l 1,49,37
 468 897 468 897 434.5 868.5 c 128,-1,38
EndSplineSet
EndChar

